<svg xmlns="http://www.w3.org/2000/svg" xmlns:xlink="http://www.w3.org/1999/xlink" width="28" height="20" viewBox="0 0 28 20">
  <defs>
    <clipPath id="clip-path">
      <rect width="28" height="20" fill="none"/>
    </clipPath>
  </defs>
  <g id="Componente_1" data-name="Componente 1" clip-path="url(#clip-path)">
    <path id="Trazado_5690" data-name="Trazado 5690" d="M5.454,25.8A3.327,3.327,0,0,0,2.615,27.6L1.179,30.89l-1.342-.348a1.5,1.5,0,0,0-.385-.051,1.151,1.151,0,0,0-1.194,1.185v.7A1.5,1.5,0,0,0-.2,33.83h.1l-.205.471a10.351,10.351,0,0,0-.726,3.467v6.582A1.5,1.5,0,0,0,.51,45.8H2.364a1.5,1.5,0,0,0,1.542-1.453V42.732H20.591v1.617A1.5,1.5,0,0,0,22.133,45.8h1.854a1.5,1.5,0,0,0,1.542-1.453V37.767A10.351,10.351,0,0,0,24.8,34.3L24.6,33.83h.119a1.5,1.5,0,0,0,1.542-1.454v-.7a1.151,1.151,0,0,0-1.195-1.185,1.5,1.5,0,0,0-.385.051l-1.36.353-1.438-3.3A3.325,3.325,0,0,0,19.042,25.8M2.269,33.02l2.184-5.014a2,2,0,0,1,1.7-1.076H18.341a2,2,0,0,1,1.7,1.076l2.184,5.014c.258.591-.087,1.075-.765,1.075H3.035C2.356,34.095,2.012,33.611,2.269,33.02ZM7.2,39.476a.6.6,0,0,1-.617.581H2.418a.6.6,0,0,1-.617-.581V37.612a.6.6,0,0,1,.617-.581H6.586a.6.6,0,0,1,.617.581Zm15.452,0a.6.6,0,0,1-.617.581H17.87a.6.6,0,0,1-.617-.581V37.612a.6.6,0,0,1,.617-.581h4.168a.6.6,0,0,1,.617.581Z" transform="translate(1.742 -25.802)" fill="#fafafa"/>
  </g>
</svg>
