<svg xmlns="http://www.w3.org/2000/svg" xmlns:xlink="http://www.w3.org/1999/xlink" width="21.998" height="25.003" viewBox="0 0 21.998 25.003">
  <defs>
    <clipPath id="clip-path">
      <rect width="21.998" height="25.003" fill="none"/>
    </clipPath>
  </defs>
  <g id="comer-3" clip-path="url(#clip-path)">
    <path id="Trazado_349" data-name="Trazado 349" d="M318.237,527.708a5.4,5.4,0,0,0-3.765,1.576,9.008,9.008,0,0,0-.677-2.336c5.838-.812,4.206-5.333,4.206-5.333-4.119-.179-4.918,2.353-5,4.016a11.06,11.06,0,0,0-3.3-2.47,1.109,1.109,0,0,0-1.457.582c-.007.017-.014.034-.02.052a1.192,1.192,0,0,0,.618,1.517,6.034,6.034,0,0,1,3.823,4.051,5.569,5.569,0,0,0-3.849-1.653c-3.762,0-7.239,3.2-6.025,9.449.993,5.116,4.62,9.448,8.382,9.448a3.485,3.485,0,0,0,2.357-.806,3.472,3.472,0,0,0,2.357.806c3.89-.025,7.209-4.1,8.382-9.448C325.448,531.749,322.7,527.807,318.237,527.708Z" transform="translate(-302.545 -521.606)" fill="#fff"/>
  </g>
</svg>
