<svg xmlns="http://www.w3.org/2000/svg" xmlns:xlink="http://www.w3.org/1999/xlink" width="16" height="20" viewBox="0 0 16 20">
  <defs>
    <clipPath id="clip-path">
      <rect width="16" height="20" fill="none"/>
    </clipPath>
  </defs>
  <g id="bandera_1_" data-name="bandera (1)" clip-path="url(#clip-path)">
    <path id="bandera_1_2" data-name="bandera (1)" d="M23.64.9a1.151,1.151,0,0,0-.894,0c-.529.087-1.635,1.059-3.431,1.254-3.1.132-4.453-1.41-6.607-1.254a13.719,13.719,0,0,0-3.431.679s0-1.246,0-1.246c0-.184-.438-.316-.639-.316S8,.147,8,.332v1s0,.009,0,.013,0,.007,0,.011V19.664c0,.184.474.352.675.352s.6-.168.6-.352V10.111c1.131-.052,1.9-.933,3.77-.933,1.293,0,3.983,1.366,5.828,1.193a10.564,10.564,0,0,0,4.4-1.524,2.164,2.164,0,0,0,.623-.416.55.55,0,0,0,.1-.4V1.356A.665.665,0,0,0,23.64.9Zm-.894,6.667a6.5,6.5,0,0,1-3.871,1.541c-2.2.208-4.4-1.045-5.828-1.076-2.328-.032-3.277.937-3.77.8V2.821a11.244,11.244,0,0,1,3.34-.762c2.172-.156,3.522,1.628,7.008,1.333,1.389-.192,2.849-1.263,3.121-1.108C22.748,2.562,22.748,7.377,22.746,7.565Z" transform="translate(-8 -0.016)" fill="#99afce"/>
  </g>
</svg>
