<svg xmlns="http://www.w3.org/2000/svg" width="11.5" height="23" viewBox="0 0 11.5 23">
  <path id="Unión_15" data-name="Unión 15" d="M.564,21.446c0-.7.985-1.173,2.927-1.418a.379.379,0,0,1,.417.339.386.386,0,0,1-.327.432,4.572,4.572,0,0,0-2.247.648c.273.3,1.877.776,4.462.776s4.189-.477,4.461-.776A4.59,4.59,0,0,0,7.994,20.8a.385.385,0,0,1-.326-.432.378.378,0,0,1,.415-.34c1.954.245,2.944.723,2.944,1.421C11.027,22.957,6.33,23,5.8,23S.564,22.957.564,21.446ZM5.074,20.2V11.693A5.835,5.835,0,0,1,0,5.867,5.816,5.816,0,0,1,5.75,0,5.816,5.816,0,0,1,11.5,5.867a5.837,5.837,0,0,1-5.017,5.819V20.2a.7.7,0,1,1-1.41,0ZM1.376,5.867a4.447,4.447,0,0,0,4.4,4.486,4.447,4.447,0,0,0,4.4-4.486,4.447,4.447,0,0,0-4.4-4.487A4.447,4.447,0,0,0,1.376,5.867Z" fill="#99afce"/>
</svg>
