<svg xmlns="http://www.w3.org/2000/svg" xmlns:xlink="http://www.w3.org/1999/xlink" width="20" height="18" viewBox="0 0 20 18">
  <defs>
    <clipPath id="clip-path">
      <rect width="20" height="18" fill="none"/>
    </clipPath>
  </defs>
  <g id="casa" clip-path="url(#clip-path)">
    <g id="Grupo_772" data-name="Grupo 772">
      <g id="Grupo_771" data-name="Grupo 771">
        <path id="Trazado_235" data-name="Trazado 235" d="M-164.16,35.177l-9.48-7.275a.5.5,0,0,0-.614,0l-9.48,7.275a.562.562,0,0,0-.112.761.5.5,0,0,0,.726.118l9.173-7.039,9.173,7.039a.5.5,0,0,0,.307.105.511.511,0,0,0,.42-.223A.562.562,0,0,0-164.16,35.177Z" transform="translate(183.948 -27.798)" fill="#99afce"/>
      </g>
    </g>
    <g id="Grupo_774" data-name="Grupo 774" transform="translate(2.311 7.697)">
      <g id="Grupo_773" data-name="Grupo 773">
        <path id="Trazado_236" data-name="Trazado 236" d="M-157.583,69.5a.529.529,0,0,0-.513.545v8.669h-4.1V73.984a2.65,2.65,0,0,0-2.563-2.723,2.65,2.65,0,0,0-2.563,2.723v4.732h-4.1V70.047a.529.529,0,0,0-.513-.544.529.529,0,0,0-.512.544V79.26a.529.529,0,0,0,.512.545h5.126a.526.526,0,0,0,.511-.5.407.407,0,0,0,0-.042V73.984a1.59,1.59,0,0,1,1.538-1.634,1.59,1.59,0,0,1,1.538,1.634V79.26a.388.388,0,0,0,0,.042.526.526,0,0,0,.511.5h5.126a.53.53,0,0,0,.513-.545V70.047A.53.53,0,0,0-157.583,69.5Z" transform="translate(172.448 -69.502)" fill="#99afce"/>
      </g>
    </g>
  </g>
</svg>
