<svg id="logo-up" xmlns="http://www.w3.org/2000/svg" xmlns:xlink="http://www.w3.org/1999/xlink" width="194.782" height="87.388" viewBox="0 0 194.782 87.388">
  <defs>
    <clipPath id="clip-path">
      <rect width="160.809" height="53.004" fill="none"/>
    </clipPath>
  </defs>
  <g id="Grupo_1163" data-name="Grupo 1163">
    <rect id="Rectángulo_461" data-name="Rectángulo 461" width="194.782" height="17.285" transform="translate(0 0)" fill="none"/>
    <rect id="Rectángulo_462" data-name="Rectángulo 462" width="17.285" height="87.388" transform="translate(0 0)" fill="none"/>
    <rect id="Rectángulo_463" data-name="Rectángulo 463" width="17.285" height="87.388" transform="translate(177.456 0)" fill="none"/>
    <rect id="Rectángulo_464" data-name="Rectángulo 464" width="194.782" height="17.285" transform="translate(0 70.103)" fill="none"/>
  </g>
  <g id="Componente_5" data-name="Componente 5" transform="translate(16.977 17.118)" clip-path="url(#clip-path)">
    <g id="Grupo_1165" data-name="Grupo 1165" transform="translate(46.842 11.267)">
      <g id="Grupo_1164" data-name="Grupo 1164" transform="translate(0)">
        <path id="Trazado_257" data-name="Trazado 257" d="M777.781,360.319a4.635,4.635,0,0,1-1.74-.808,3.937,3.937,0,0,1-1.163-1.468,5.109,5.109,0,0,1-.429-2.185v-2.35c0-.33.008-.635.016-.94s.017-.61.017-.94c0-.973-.008-1.765-.025-2.367s-.033-1.056-.058-1.361c.239.025.495.049.742.066s.5.033.742.033.487-.008.742-.033.5-.041.742-.066c-.115,1.171-.19,2.26-.214,3.266s-.033,2.029-.033,3.068a12.209,12.209,0,0,0,.231,2.664,3.79,3.79,0,0,0,.693,1.567,2.218,2.218,0,0,0,1.13.734,6.2,6.2,0,0,0,1.55.181,2.487,2.487,0,0,0,1.7-.544,3.287,3.287,0,0,0,.924-1.443,7.582,7.582,0,0,0,.388-2.07c.049-.775.074-1.583.074-2.433,0-.833-.016-1.658-.041-2.49s-.066-1.658-.115-2.49c.165.025.33.049.487.066a2.778,2.778,0,0,0,.429.033,2.731,2.731,0,0,0,.454-.033c.14-.016.289-.041.454-.066-.025.264-.058.627-.074,1.064-.025.454-.049.965-.066,1.542s-.05,1.229-.066,1.938-.025,1.443-.025,2.235c0,2.095-.445,3.6-1.352,4.511a5.39,5.39,0,0,1-3.967,1.361A8.5,8.5,0,0,1,777.781,360.319Z" transform="translate(-774.4 -347.686)" fill="#0033a1"/>
        <path id="Trazado_258" data-name="Trazado 258" d="M926.313,349.409c-.025-.561-.049-1.064-.066-1.5a4.62,4.62,0,0,0,.816.107,4.469,4.469,0,0,0,.8-.107q1.967,2.189,3.884,4.3t3.934,4.3v-3.323c0-.586,0-1.171-.008-1.74s-.016-1.105-.016-1.583-.016-.9-.033-1.245-.041-.586-.066-.709a4.527,4.527,0,0,0,.816.107,4.64,4.64,0,0,0,.808-.107c-.058,1.089-.107,2.086-.14,2.969s-.066,1.715-.091,2.5-.041,1.559-.041,2.317-.008,1.583-.008,2.449V360.3c-.239-.016-.487-.025-.734-.025-.272,0-.5.008-.709.025q-3.7-4.342-7.867-8.725c-.008.355-.016.7-.016,1.047s-.008.709-.008,1.064v2.095c0,.717,0,1.336.008,1.847s.016.924.025,1.278.025.635.033.858.025.4.041.536a3.765,3.765,0,0,0-.437-.025h-.412c-.272,0-.552.008-.825.025a8.854,8.854,0,0,0,.091-1.031c.033-.594.074-1.311.115-2.161s.083-1.765.107-2.763.041-1.946.041-2.862C926.355,350.663,926.346,349.97,926.313,349.409Z" transform="translate(-913.498 -347.686)" fill="#0033a1"/>
        <path id="Trazado_259" data-name="Trazado 259" d="M1088.207,350.242c-.025-.775-.066-1.559-.107-2.342.2.025.429.049.668.066a9.934,9.934,0,0,0,1.616,0c.239-.017.47-.041.668-.066-.041.783-.074,1.567-.1,2.342s-.033,1.658-.033,2.664v2.449c0,1.006.008,1.888.033,2.664s.058,1.534.1,2.284c-.2-.017-.429-.025-.668-.025h-1.616q-.359,0-.668.025c.05-.75.091-1.509.107-2.284.033-.775.041-1.666.041-2.664v-2.449C1088.248,351.908,1088.24,351.017,1088.207,350.242Z" transform="translate(-1062.231 -347.686)" fill="#0033a1"/>
        <path id="Trazado_260" data-name="Trazado 260" d="M1152.73,352.353c.585-1.542,1.121-3.026,1.583-4.445a2.975,2.975,0,0,0,1.583,0c-.3.709-.66,1.567-1.08,2.565s-.858,2.053-1.311,3.175-.907,2.26-1.352,3.414-.841,2.235-1.187,3.249q-.359-.025-.792-.025c-.289,0-.552.008-.8.025-.173-.478-.4-1.072-.651-1.748s-.528-1.41-.825-2.185-.6-1.559-.924-2.367-.635-1.583-.932-2.342c-.313-.75-.594-1.451-.858-2.1s-.486-1.212-.684-1.666c.28.025.553.049.825.066s.536.033.8.033.528-.008.792-.033.528-.041.792-.066c.206.676.429,1.385.693,2.128s.52,1.509.8,2.284.561,1.559.858,2.334c.289.792.577,1.559.849,2.317Q1151.848,354.675,1152.73,352.353Z" transform="translate(-1113.98 -347.686)" fill="#0033a1"/>
        <path id="Trazado_261" data-name="Trazado 261" d="M1298.9,350.242c-.016-.775-.049-1.559-.1-2.342.544.016,1.08.033,1.608.066s1.064.041,1.6.041c.882,0,1.682-.008,2.367-.033s1.163-.041,1.4-.066a3.289,3.289,0,0,0-.074.775,3.108,3.108,0,0,0,.025.454c.016.115.033.231.058.371q-.532-.037-1.138-.074c-.412-.025-.825-.049-1.212-.074s-.742-.049-1.056-.058-.528-.016-.668-.016c-.041.668-.066,1.319-.066,1.963v1.963c.775-.008,1.476-.033,2.111-.058s1.286-.058,1.971-.1a3.911,3.911,0,0,0-.074.47c-.008.1-.017.223-.017.338a1.72,1.72,0,0,0,.025.289c.017.107.041.247.066.445q-2.054-.148-4.082-.148c0,.379-.008.767-.016,1.155s-.008.775-.008,1.155c0,.783.008,1.542.05,2.268.684,0,1.361-.016,2.053-.049s1.377-.107,2.07-.2c-.025.132-.041.256-.058.363a3.115,3.115,0,0,0-.025.445,3.165,3.165,0,0,0,.025.454,1.12,1.12,0,0,0,.058.272c-.322-.008-.726-.016-1.2-.025s-1.13-.008-1.954-.008h-2.853c-.272,0-.478.008-.61.008s-.256.008-.354.025c.049-.75.082-1.509.1-2.284s.033-1.666.033-2.664v-2.449C1298.932,351.908,1298.916,351.017,1298.9,350.242Z" transform="translate(-1255.555 -347.686)" fill="#0033a1"/>
        <path id="Trazado_262" data-name="Trazado 262" d="M1410.729,354.621v.734c0,1.006.008,1.888.033,2.664s.05,1.534.1,2.284c-.206-.016-.421-.025-.668-.025h-1.625q-.359,0-.668.025c.05-.75.091-1.509.115-2.284s.041-1.666.041-2.664v-2.449c0-1-.017-1.888-.041-2.664s-.066-1.559-.115-2.342c.206.025.429.049.668.066a7.937,7.937,0,0,0,.808.033c.33,0,.693-.017,1.113-.05s.916-.049,1.534-.049c.462,0,.841.016,1.171.033a6.469,6.469,0,0,1,.833.107,2.812,2.812,0,0,1,.61.181,2.75,2.75,0,0,1,1.344,1.262,2.852,2.852,0,0,1,.313,1.394,3.149,3.149,0,0,1-.718,2.144,3.84,3.84,0,0,1-2.07,1.171q.866,1.534,1.864,3.068c.651,1.014,1.319,2.029,1.979,3.026-.28-.017-.544-.025-.808-.025h-1.633q-.4,0-.816.025l-3.191-5.69h-.173Zm2.655-4.552a1.381,1.381,0,0,0-.495-.709,1.8,1.8,0,0,0-.857-.322,9.26,9.26,0,0,0-1.262-.066c-.033,1.641-.05,3.274-.05,4.915a.951.951,0,0,0,.214.025,1.34,1.34,0,0,0,.19.008,2.372,2.372,0,0,0,1.8-.643,2.668,2.668,0,0,0,.618-1.946A3.8,3.8,0,0,0,1413.384,350.069Z" transform="translate(-1355.658 -347.686)" fill="#0033a1"/>
        <path id="Trazado_263" data-name="Trazado 263" d="M1533.182,346.422a1.929,1.929,0,0,0-1.352.487,1.5,1.5,0,0,0-.52,1.138,1.486,1.486,0,0,0,.412,1.1,4.545,4.545,0,0,0,1.014.767c.4.231.849.445,1.32.66a6.571,6.571,0,0,1,1.311.783,4.035,4.035,0,0,1,1.022,1.122,3.265,3.265,0,0,1,.4,1.69,3.925,3.925,0,0,1-.346,1.658,3.724,3.724,0,0,1-.973,1.286,4.412,4.412,0,0,1-1.509.808,6.322,6.322,0,0,1-1.954.28,6.967,6.967,0,0,1-1.748-.206,3.422,3.422,0,0,1-1.163-.511c.124-.421.223-.8.305-1.155s.157-.726.223-1.138h.338a2.278,2.278,0,0,0,1.517,1.8,2.817,2.817,0,0,0,.981.157,2.123,2.123,0,0,0,1.6-.544,1.853,1.853,0,0,0,.511-1.3,1.628,1.628,0,0,0-.4-1.13,3.855,3.855,0,0,0-1-.767c-.4-.223-.825-.437-1.3-.651a6.7,6.7,0,0,1-1.295-.767,4.034,4.034,0,0,1-1-1.113,3.248,3.248,0,0,1-.4-1.691,3.926,3.926,0,0,1,.33-1.666,3.59,3.59,0,0,1,.891-1.212,3.8,3.8,0,0,1,1.295-.742,4.536,4.536,0,0,1,1.534-.256,5.334,5.334,0,0,1,1.707.239,3.81,3.81,0,0,1,1.245.66c-.107.28-.2.553-.28.808s-.173.585-.3.99h-.272A2.113,2.113,0,0,0,1533.182,346.422Z" transform="translate(-1466.864 -345.3)" fill="#0033a1"/>
        <path id="Trazado_264" data-name="Trazado 264" d="M1647.115,350.242c-.025-.775-.066-1.559-.115-2.342.206.025.429.049.668.066a8.057,8.057,0,0,0,.808.033c.3,0,.569-.008.816-.033.231-.017.462-.041.66-.066-.041.783-.074,1.567-.1,2.342s-.033,1.658-.033,2.664v2.449c0,1.006,0,1.888.033,2.664s.057,1.534.1,2.284c-.206-.017-.429-.025-.66-.025h-1.625q-.359,0-.668.025c.049-.75.091-1.509.115-2.284s.041-1.666.041-2.664v-2.449C1647.157,351.908,1647.14,351.017,1647.115,350.242Z" transform="translate(-1575.041 -347.686)" fill="#0033a1"/>
        <path id="Trazado_265" data-name="Trazado 265" d="M1716.715,350.242c-.025-.775-.066-1.559-.116-2.342.206.025.421.049.668.066a7.937,7.937,0,0,0,.808.033c.4,0,.841-.017,1.328-.05s1.138-.049,1.93-.049a12.839,12.839,0,0,1,2.812.28,5.887,5.887,0,0,1,2.193.948,4.3,4.3,0,0,1,1.418,1.8,6.94,6.94,0,0,1,.511,2.845,7.056,7.056,0,0,1-.495,2.7,6.609,6.609,0,0,1-1.352,2.07,5.924,5.924,0,0,1-1.979,1.311,6.449,6.449,0,0,1-2.408.453c-.9,0-1.657-.008-2.292-.016s-1.2-.016-1.666-.016h-.808c-.247,0-.462.008-.668.025.05-.75.091-1.509.116-2.284s.041-1.666.041-2.664v-2.449C1716.757,351.908,1716.74,351.017,1716.715,350.242Zm2.7,6.44v1.08c0,.355,0,.668.008.957s.016.47.016.553c.173.016.4.033.643.041s.561.016.932.016a3.992,3.992,0,0,0,3.216-1.385,6.348,6.348,0,0,0,1.179-4.189,6.477,6.477,0,0,0-.289-2,4.342,4.342,0,0,0-.833-1.5A3.606,3.606,0,0,0,1723,349.3a4.123,4.123,0,0,0-1.69-.33c-.429,0-.784.008-1.047.025s-.536.033-.816.066c0,.082,0,.272-.017.552s-.025.619-.025.973l.016,1.072v5.022Z" transform="translate(-1638.901 -347.686)" fill="#0033a1"/>
        <path id="Trazado_266" data-name="Trazado 266" d="M1869.2,359.485q-.433-.025-.816-.025h-1.526q-.383,0-.767.025c-.19-.594-.388-1.2-.594-1.814s-.421-1.229-.652-1.847c-.379-.008-.767-.016-1.146-.016s-.767-.008-1.155-.008c-.313,0-.627,0-.94.008s-.618.008-.932.016c-.231.619-.454,1.229-.66,1.847s-.388,1.22-.561,1.814a3.627,3.627,0,0,0-.429-.025h-.849q-.223,0-.47.025c.14-.313.338-.75.569-1.3s.5-1.179.792-1.872.6-1.443.932-2.251.66-1.608.981-2.424.651-1.625.973-2.416.61-1.534.874-2.218c.115.025.231.041.338.058a2.249,2.249,0,0,0,.338.025,2.089,2.089,0,0,0,.338-.025c.116-.016.223-.033.346-.058.379,1.023.792,2.119,1.237,3.282s.874,2.309,1.328,3.431c.437,1.13.874,2.194,1.286,3.2C1868.462,357.935,1868.849,358.784,1869.2,359.485Zm-6.375-9.005c-.313.726-.61,1.435-.883,2.144s-.544,1.418-.808,2.152h3.291c-.256-.734-.52-1.451-.783-2.152S1863.11,351.206,1862.821,350.48Z" transform="translate(-1768.366 -346.86)" fill="#0033a1"/>
        <path id="Trazado_267" data-name="Trazado 267" d="M2008.615,350.242c-.033-.775-.066-1.559-.115-2.342.206.025.421.049.668.066a8.044,8.044,0,0,0,.808.033c.387,0,.841-.017,1.336-.05s1.138-.049,1.93-.049a12.84,12.84,0,0,1,2.812.28,5.888,5.888,0,0,1,2.193.948,4.3,4.3,0,0,1,1.418,1.8,6.949,6.949,0,0,1,.5,2.845,7.056,7.056,0,0,1-.495,2.7,6.6,6.6,0,0,1-1.344,2.07,6.045,6.045,0,0,1-1.987,1.311,6.437,6.437,0,0,1-2.4.453c-.907,0-1.666-.008-2.309-.016s-1.187-.016-1.649-.016h-.808q-.359,0-.668.025c.049-.75.091-1.509.115-2.284s.033-1.666.033-2.664v-2.449C2008.657,351.908,2008.648,351.017,2008.615,350.242Zm2.713,6.44v1.08c0,.355,0,.668.008.957s.016.47.016.553c.181.016.4.033.651.041s.561.016.932.016a3.975,3.975,0,0,0,3.208-1.385,6.3,6.3,0,0,0,1.179-4.189,6.227,6.227,0,0,0-.3-2,4.341,4.341,0,0,0-.833-1.5,3.757,3.757,0,0,0-1.295-.957,4.111,4.111,0,0,0-1.682-.33c-.429,0-.775.008-1.047.025s-.544.033-.825.066c0,.082-.008.272-.017.552s-.016.619-.016.973l.016,1.072v5.022Z" transform="translate(-1906.73 -347.686)" fill="#0033a1"/>
      </g>
      <path id="Trazado_268" data-name="Trazado 268" d="M778.424,562.334c-.025-.775-.066-1.55-.115-2.334q.309.037.668.074c.247.025.511.033.808.033.4,0,.841-.017,1.328-.058.487-.025,1.138-.049,1.93-.049a13.444,13.444,0,0,1,2.82.28,5.948,5.948,0,0,1,2.193.948,4.3,4.3,0,0,1,1.418,1.8,6.989,6.989,0,0,1,.5,2.837,7.1,7.1,0,0,1-.495,2.713,6.3,6.3,0,0,1-1.352,2.07,5.99,5.99,0,0,1-1.979,1.3,6.512,6.512,0,0,1-2.408.454c-.9,0-1.666-.008-2.309-.008-.635-.016-1.187-.016-1.657-.016h-.808q-.359,0-.668.025c.049-.75.091-1.509.115-2.284s.041-1.658.041-2.655v-2.449C778.465,564,778.457,563.109,778.424,562.334Zm2.713,6.449v1.072c0,.346.008.668.017.957s.008.47.008.552c.181.016.4.025.651.041s.561.016.932.016a4.017,4.017,0,0,0,3.216-1.385,7.6,7.6,0,0,0,.891-6.185,4.421,4.421,0,0,0-.833-1.5,3.754,3.754,0,0,0-1.286-.957,4.264,4.264,0,0,0-1.691-.338c-.429,0-.783.008-1.047.025s-.536.041-.816.058c0,.091,0,.272-.017.561s-.025.61-.025.965l.017,1.08v5.039Z" transform="translate(-777.978 -542.295)" fill="#0033a1"/>
      <path id="Trazado_269" data-name="Trazado 269" d="M939.7,562.242c-.025-.775-.058-1.55-.1-2.334.544.016,1.072.033,1.608.058s1.064.041,1.6.041c.891,0,1.674-.008,2.367-.033s1.155-.041,1.394-.074a3.251,3.251,0,0,0-.074.767c0,.2.017.346.025.462a3.432,3.432,0,0,0,.049.363c-.355-.025-.726-.049-1.146-.074s-.825-.049-1.2-.074-.742-.041-1.056-.049-.536-.016-.668-.016c-.033.66-.058,1.319-.066,1.963s-.008,1.295-.008,1.954c.783-.008,1.484-.033,2.119-.058s1.287-.066,1.971-.1c-.033.2-.066.363-.074.462a2.316,2.316,0,0,0-.017.346,1.792,1.792,0,0,0,.025.3,4.311,4.311,0,0,1,.066.437c-1.377-.107-2.73-.157-4.09-.157,0,.388,0,.775-.017,1.155s-.008.767-.008,1.163c0,.783.016,1.534.049,2.26.684,0,1.369-.025,2.053-.058s1.369-.1,2.07-.19c-.017.14-.041.256-.049.363a3.414,3.414,0,0,0-.016.454c0,.19.008.338.016.445a1.628,1.628,0,0,0,.049.272c-.322-.008-.717-.016-1.2-.016s-1.122-.008-1.946-.008h-2.853c-.272,0-.478,0-.61.008s-.256.008-.355.016c.041-.75.074-1.509.1-2.284s.041-1.658.041-2.655V564.9C939.74,563.908,939.724,563.017,939.7,562.242Z" transform="translate(-925.977 -542.203)" fill="#0033a1"/>
      <path id="Trazado_270" data-name="Trazado 270" d="M1051.632,562.334c-.033-.775-.066-1.55-.124-2.334.2.025.429.049.66.074a8.11,8.11,0,0,0,.817.033c.289,0,.561-.008.808-.033s.453-.041.66-.074c-.041.783-.074,1.559-.1,2.342s-.033,1.666-.033,2.664v2.458c0,.693.008,1.344.008,1.987s.008,1.2.017,1.666c.685,0,1.369-.025,2.053-.058s1.377-.1,2.07-.19c-.025.14-.033.256-.049.363a3.375,3.375,0,0,0-.017.453,3.307,3.307,0,0,0,.017.445,1.641,1.641,0,0,0,.049.272c-.322-.008-.717-.017-1.2-.017s-1.121-.008-1.954-.008h-2.862c-.264,0-.47,0-.61.008s-.247.008-.346.017c.049-.75.091-1.509.124-2.284s.033-1.658.033-2.655v-2.449C1051.665,564,1051.648,563.109,1051.632,562.334Z" transform="translate(-1028.649 -542.295)" fill="#0033a1"/>
      <path id="Trazado_271" data-name="Trazado 271" d="M1213.824,562.334c-.033-.775-.066-1.55-.124-2.334q.309.037.668.074a7.936,7.936,0,0,0,.808.033c.412,0,.849-.017,1.3-.058.445-.025.891-.049,1.32-.049a8.394,8.394,0,0,1,2,.19,2.734,2.734,0,0,1,1.13.553,3.007,3.007,0,0,1,.841,1.047,3.267,3.267,0,0,1,.272,1.385,4.342,4.342,0,0,1-.338,1.781,3.079,3.079,0,0,1-.957,1.2,4.25,4.25,0,0,1-1.46.676,7.567,7.567,0,0,1-1.847.214h-.907c0,.9,0,1.8.016,2.7s.05,1.781.107,2.655q-.309-.025-.668-.025h-1.616c-.247,0-.462.008-.668.025.058-.75.091-1.509.124-2.284s.033-1.658.033-2.655v-2.449C1213.865,564,1213.849,563.109,1213.824,562.334Zm5.212-.008a1.876,1.876,0,0,0-.412-.742,1.65,1.65,0,0,0-.6-.4,1.973,1.973,0,0,0-.718-.132h-.594a1.123,1.123,0,0,0-.165.016c-.008.866-.016,1.707-.016,2.54v2.515a4.975,4.975,0,0,0,.907-.091,2.053,2.053,0,0,0,.874-.371,2.031,2.031,0,0,0,.635-.8,3.232,3.232,0,0,0,.247-1.385A3.56,3.56,0,0,0,1219.035,562.326Z" transform="translate(-1177.473 -542.295)" fill="#0033a1"/>
      <path id="Trazado_272" data-name="Trazado 272" d="M1315.32,571.477c-.3-.017-.561-.025-.825-.025h-1.534q-.383,0-.767.025-.285-.891-.594-1.806c-.206-.619-.421-1.237-.643-1.847-.388-.008-.775-.017-1.163-.017h-2.078c-.313,0-.627.008-.94.017-.239.61-.462,1.229-.668,1.847s-.387,1.22-.561,1.806a3.691,3.691,0,0,0-.42-.025h-.858q-.223,0-.47.025c.14-.313.338-.742.577-1.295s.5-1.179.792-1.88.6-1.443.932-2.243.66-1.608.99-2.424.651-1.625.973-2.416.6-1.534.874-2.218c.115.025.231.041.338.058a2.38,2.38,0,0,0,.346.016,2.439,2.439,0,0,0,.346-.016c.107-.016.214-.033.338-.058.388,1.023.8,2.111,1.237,3.282s.874,2.317,1.328,3.439c.437,1.113.874,2.185,1.295,3.2S1314.966,570.784,1315.32,571.477Zm-6.375-8.989c-.313.717-.61,1.427-.882,2.136s-.544,1.427-.808,2.152h3.291c-.264-.726-.528-1.451-.784-2.152S1309.234,563.2,1308.946,562.488Z" transform="translate(-1260.143 -541.377)" fill="#0033a1"/>
      <path id="Trazado_273" data-name="Trazado 273" d="M1458.665,568.488a3.672,3.672,0,0,0-.14.767,9.324,9.324,0,0,1-6.474.289,5.915,5.915,0,0,1-2.095-1.254,5.377,5.377,0,0,1-1.3-1.9A6.165,6.165,0,0,1,1448.2,564a7.814,7.814,0,0,1,.585-3.183,5.742,5.742,0,0,1,1.567-2.136,6.412,6.412,0,0,1,2.276-1.2,9.859,9.859,0,0,1,2.721-.379,7.031,7.031,0,0,1,.99.074,8.181,8.181,0,0,1,1.014.2,8.033,8.033,0,0,1,.924.28,4.987,4.987,0,0,1,.75.346,5.554,5.554,0,0,0-.28.915,8.707,8.707,0,0,0-.132.932h-.256a4.529,4.529,0,0,0-1.4-1.237,3.662,3.662,0,0,0-1.7-.371,3.4,3.4,0,0,0-1.443.33,3.943,3.943,0,0,0-1.328.99,4.992,4.992,0,0,0-.957,1.707,7.441,7.441,0,0,0-.371,2.49,6.629,6.629,0,0,0,.379,2.383,4.853,4.853,0,0,0,.973,1.616,3.721,3.721,0,0,0,1.369.907,4.436,4.436,0,0,0,1.542.289,3.64,3.64,0,0,0,.882-.107,4.667,4.667,0,0,0,.874-.272,4.313,4.313,0,0,0,.825-.421,3.5,3.5,0,0,0,.676-.561l.231.14A7.383,7.383,0,0,0,1458.665,568.488Z" transform="translate(-1392.635 -539.634)" fill="#0033a1"/>
      <path id="Trazado_274" data-name="Trazado 274" d="M1607.083,511.568c.388-.453.7-.792.924-1.006a1.925,1.925,0,0,1,.52-.4.994.994,0,0,1,.379-.066.78.78,0,0,1,.635.247.827.827,0,0,1,.214.561.96.96,0,0,1-.066.346,1.434,1.434,0,0,1-.4.421,9.908,9.908,0,0,1-.981.693c-.437.28-1.047.66-1.831,1.13h-.981C1606.168,512.673,1606.687,512.03,1607.083,511.568Zm-1.468,4.973c-.025-.775-.066-1.559-.115-2.334.206.025.421.041.668.058s.5.033.808.033.569-.017.817-.033c.231-.017.462-.033.668-.058-.041.784-.074,1.559-.1,2.334s-.033,1.666-.033,2.664v2.457c0,.99.008,1.88.033,2.655s.058,1.534.1,2.284q-.309-.025-.668-.025h-1.625q-.359,0-.668.025c.05-.75.091-1.509.115-2.284s.033-1.666.033-2.655V519.2C1605.656,518.206,1605.64,517.324,1605.615,516.541Z" transform="translate(-1536.963 -496.51)" fill="#0033a1"/>
      <path id="Trazado_275" data-name="Trazado 275" d="M1675.932,562.242c-.033-.775-.066-1.55-.124-2.334.544.016,1.072.033,1.608.058s1.064.041,1.6.041c.882,0,1.674-.008,2.367-.033s1.155-.041,1.385-.074a3.3,3.3,0,0,0-.066.767,3.579,3.579,0,0,0,.017.462c.016.107.033.231.05.363-.346-.025-.726-.049-1.146-.074l-1.2-.074c-.387-.025-.734-.041-1.047-.049s-.536-.016-.668-.016c-.049.66-.091,1.319-.091,1.963s-.008,1.295-.008,1.954c.792-.008,1.5-.033,2.127-.058s1.287-.066,1.971-.1a4.216,4.216,0,0,0-.074.462,2.267,2.267,0,0,0-.025.346,1.791,1.791,0,0,0,.025.3,4.225,4.225,0,0,1,.066.437c-1.369-.107-2.738-.157-4.1-.157v.924c0,1,.008,1.88.041,2.655s.066,1.534.116,2.284q-.309-.025-.668-.025h-1.616q-.359,0-.668.025c.041-.75.074-1.509.1-2.284s.033-1.658.033-2.655l.025-2.449C1675.965,563.908,1675.948,563.017,1675.932,562.242Z" transform="translate(-1601.466 -542.203)" fill="#0033a1"/>
      <path id="Trazado_276" data-name="Trazado 276" d="M1788.615,562.334c-.033-.775-.066-1.55-.115-2.334q.3.037.668.074a8.043,8.043,0,0,0,.808.033,7.934,7.934,0,0,0,.808-.033c.247-.025.462-.041.668-.074-.041.783-.074,1.559-.1,2.334s-.025,1.666-.025,2.672v2.449c0,1,.008,1.88.025,2.655s.058,1.534.1,2.284q-.309-.025-.668-.025h-1.616c-.239,0-.47.008-.668.025.049-.75.083-1.509.115-2.284s.041-1.658.041-2.655v-2.449C1788.657,564,1788.64,563.109,1788.615,562.334Z" transform="translate(-1704.872 -542.295)" fill="#0033a1"/>
      <path id="Trazado_277" data-name="Trazado 277" d="M1861.457,568.488a3.664,3.664,0,0,0-.14.767,8.166,8.166,0,0,1-3.67.734,8.315,8.315,0,0,1-2.812-.445,5.918,5.918,0,0,1-2.078-1.254,5.273,5.273,0,0,1-1.3-1.9A6.163,6.163,0,0,1,1851,564a7.68,7.68,0,0,1,.585-3.183,5.724,5.724,0,0,1,1.559-2.136,6.482,6.482,0,0,1,2.276-1.2,9.8,9.8,0,0,1,2.713-.379,7.238,7.238,0,0,1,1,.074,7.375,7.375,0,0,1,1,.2,7.694,7.694,0,0,1,.932.28,5.882,5.882,0,0,1,.75.346,5.531,5.531,0,0,0-.281.915,8.676,8.676,0,0,0-.132.932h-.248a4.44,4.44,0,0,0-1.4-1.237,3.651,3.651,0,0,0-1.691-.371,3.469,3.469,0,0,0-1.451.33,3.862,3.862,0,0,0-1.328.99,5.124,5.124,0,0,0-.957,1.707,7.435,7.435,0,0,0-.371,2.49,6.81,6.81,0,0,0,.38,2.383,5.007,5.007,0,0,0,.981,1.616,3.747,3.747,0,0,0,1.377.907,4.39,4.39,0,0,0,1.534.289,3.636,3.636,0,0,0,.882-.107,4.938,4.938,0,0,0,.882-.272,4.241,4.241,0,0,0,.816-.421,3.267,3.267,0,0,0,.677-.561l.239.14A4.887,4.887,0,0,0,1861.457,568.488Z" transform="translate(-1762.218 -539.634)" fill="#0033a1"/>
      <path id="Trazado_278" data-name="Trazado 278" d="M1990.511,561.067A6.32,6.32,0,0,1,1991.9,559a6.439,6.439,0,0,1,2.169-1.385,7.665,7.665,0,0,1,2.845-.511,8.682,8.682,0,0,1,2.672.4,6.083,6.083,0,0,1,2.152,1.188,5.461,5.461,0,0,1,1.451,2.02,7.093,7.093,0,0,1,.528,2.845,6.308,6.308,0,0,1-1.93,4.585,6.522,6.522,0,0,1-2.169,1.369,7.7,7.7,0,0,1-2.771.487,9.642,9.642,0,0,1-2.672-.355,5.714,5.714,0,0,1-2.177-1.13,5.655,5.655,0,0,1-1.468-2.012,7.237,7.237,0,0,1-.536-2.919A6.517,6.517,0,0,1,1990.511,561.067Zm9.978.033a4.61,4.61,0,0,0-.8-1.583,3.576,3.576,0,0,0-1.245-1.006,3.619,3.619,0,0,0-1.583-.346,3.109,3.109,0,0,0-1.649.445,3.75,3.75,0,0,0-1.221,1.2,5.77,5.77,0,0,0-.767,1.773,8.854,8.854,0,0,0-.256,2.177,8.345,8.345,0,0,0,.305,2.441,4.3,4.3,0,0,0,.825,1.6,3.057,3.057,0,0,0,1.2.874,3.834,3.834,0,0,0,1.435.28,3.606,3.606,0,0,0,1.55-.346,3.526,3.526,0,0,0,1.287-1.047,5.534,5.534,0,0,0,.882-1.781,8.806,8.806,0,0,0,.338-2.573A7.321,7.321,0,0,0,2000.489,561.1Z" transform="translate(-1889.755 -539.634)" fill="#0033a1"/>
    </g>
    <g id="Grupo_1172" data-name="Grupo 1172">
      <path id="Trazado_279" data-name="Trazado 279" d="M387.854,527.394l-.882-.99.017-8.914.866-.99h-4l.866.981V524.7s-2.548,3.183-5.1.363c0,0-2.606-2.7.594-8.56h-2.961l.907.973s-2.919,4.956,0,8.247a4.74,4.74,0,0,0,6.556.519v1.155Z" transform="translate(-362.807 -491.115)" fill="#0033a1"/>
      <g id="Grupo_1167" data-name="Grupo 1167" transform="translate(17.064 21.08)">
        <g id="Grupo_1166" data-name="Grupo 1166" transform="translate(0 0)">
          <path id="Trazado_280" data-name="Trazado 280" d="M416.623,464.3l-3.323.049.973.932-.008,18.283-.882.957h3.95l-.874-.965-.058-10.646s7.546.412,7.546-4.379C423.954,468.151,424.169,464.3,416.623,464.3Zm-.247,7.628V465.29a17.924,17.924,0,0,1,1.963.049c3.769.181,3.719,2.862,3.719,2.862C422.058,472.761,416.376,471.928,416.376,471.928Z" transform="translate(-413.3 -464.3)" fill="#0033a1"/>
        </g>
      </g>
      <g id="Grupo_1168" data-name="Grupo 1168" transform="translate(3.276 3.367)">
        <path id="Trazado_281" data-name="Trazado 281" d="M251.272,592.562c-.4-.528-.932-.5-1.509-.495l-.066.008-1.847.1H247.8l.008.041a1.539,1.539,0,0,1,.033.206v.206l-.008.049.041-.008,1.583-.082a3.809,3.809,0,0,1,1.064.033.852.852,0,0,1,.66.874.815.815,0,0,1-.181.594.853.853,0,0,1-.561.3,5.09,5.09,0,0,1-.841.082l-.14.008-1.484.082-.041.008.008.041.008.091a1.816,1.816,0,0,1,.033.3v.437h.041l2.128-.115a2.344,2.344,0,0,0,.651-.124,1.5,1.5,0,0,0,.816-1.616A1.942,1.942,0,0,0,251.272,592.562Z" transform="translate(-247.66 -563.815)" fill="#0033a1"/>
        <path id="Trazado_282" data-name="Trazado 282" d="M249.944,543.19l-.008-.033a.142.142,0,0,0-.008-.066c0-.049-.008-.1-.008-.14a.711.711,0,0,1,.008-.132V542.7l-.041.008-2.424.066.52-.52c.454-.47.924-.915,1.418-1.394l.462-.445.008-.008v-.025l-.008-.454V539.9h-.041l-3.571.1H246.2l.008.049a1.754,1.754,0,0,1,.025.206.864.864,0,0,1-.008.206v.041h.041l2.342-.066c-.487.462-.965.94-1.427,1.4-.289.289-.586.594-.882.882l-.008.008v.017l.016.528v.033h.033l3.563-.1h.041Z" transform="translate(-246.192 -515.952)" fill="#0033a1"/>
        <path id="Trazado_283" data-name="Trazado 283" d="M246.216,517.848c.008.091.017.2.017.3s-.008.2-.017.289l-.008.107-.008.041h.041l3.571-.017h.041v-.041l-.008-.1a1.791,1.791,0,0,1-.017-.3c0-.091,0-.2.008-.289l.008-.1.008-.041h-.041l-3.571.016H246.2v.041Z" transform="translate(-246.192 -495.583)" fill="#0033a1"/>
        <path id="Trazado_284" data-name="Trazado 284" d="M249.761,469.6l.025-.008v-.033c0-.016-.008-.041-.008-.058a1.119,1.119,0,0,1-.016-.165.891.891,0,0,1,.025-.157c0-.017.008-.041.008-.058V469.1l-.025-.016c-1.08-.421-2.144-.907-3.158-1.377l-.379-.181-.058-.025v.066a1.181,1.181,0,0,1,.008.239,2.328,2.328,0,0,1-.016.239l-.008.033.025.008c.9.313,1.781.7,2.474,1.014l-.726.256c-.586.206-1.187.421-1.781.577l-.033.008v.025l.008.124a2.488,2.488,0,0,1,.008.355c0,.107-.016.231-.025.346l-.008.115v.066l.049-.025C247.543,470.386,248.681,469.966,249.761,469.6Z" transform="translate(-246.1 -449.523)" fill="#0033a1"/>
        <path id="Trazado_285" data-name="Trazado 285" d="M251.271,436.142h.041v-.033l.14-2.012v-.041h-.041l-.058.008c-.058,0-.115.008-.173.008a1.471,1.471,0,0,1-.165-.033l-.049-.008-.041-.008v.05a8.225,8.225,0,0,1-.008,1.187l-1.245-.091.033-.511a5.212,5.212,0,0,1,.091-.643l.008-.05h-.049l-.058.008a1.1,1.1,0,0,1-.165,0,1.028,1.028,0,0,1-.157-.025l-.058-.017-.049-.008.008.05a4.284,4.284,0,0,1,0,.651l-.033.511-1.039-.074a7.339,7.339,0,0,1,.148-1.171l.008-.049-.049.008h-.049a1.214,1.214,0,0,1-.173.008.586.586,0,0,1-.165-.033l-.049-.008-.041-.016v.041l-.132,2.012v.041h.041Z" transform="translate(-247.568 -418.602)" fill="#0033a1"/>
        <path id="Trazado_286" data-name="Trazado 286" d="M253.8,394.5l-.338.165c-.388.19-.792.371-1.2.544a.953.953,0,0,0-.833-.932.811.811,0,0,0-.841.371,2.012,2.012,0,0,0-.223.792l-.008.049-.148,1.122-.008.033.041.008,3.538.495.041.008v-.041l.008-.1c.008-.1.008-.2.025-.3s.033-.2.058-.289l.016-.1.008-.041H253.9l-1.583-.223.223-.1c.132-.049.247-.107.33-.14l1.171-.47.025-.008v-.016l.008-.115c.008-.115.016-.239.033-.363s.041-.239.066-.355l.025-.107.008-.074-.066.025Zm-1.814,1.517-1.3-.19v-.041c.033-.305.074-.61.454-.627a1.3,1.3,0,0,1,.256.008.693.693,0,0,1,.536.28A.713.713,0,0,1,251.981,396.017Z" transform="translate(-249.862 -382.328)" fill="#0033a1"/>
        <path id="Trazado_287" data-name="Trazado 287" d="M262.405,354.628a1.323,1.323,0,0,0-1.4.6c-.247.272-.47.511-.734.429-.305-.091-.4-.313-.305-.66a.6.6,0,0,1,.569-.429h.025l.008-.025.025-.074.008-.025-.033-.016c-.14-.091-.3-.2-.445-.313l-.016-.016-.016.016a1.374,1.374,0,0,0-.495.75,1.3,1.3,0,0,0,.058,1.006,1.126,1.126,0,0,0,.668.536,1.192,1.192,0,0,0,1.352-.561c.256-.28.462-.528.8-.429a.494.494,0,0,1,.3.231.612.612,0,0,1,.033.47.671.671,0,0,1-.718.5h-.033l-.008.033-.025.091-.008.033.025.017a4.613,4.613,0,0,1,.594.338l.016.016.016-.016a1.764,1.764,0,0,0,.4-1.946A1.065,1.065,0,0,0,262.405,354.628Z" transform="translate(-258.414 -345.474)" fill="#0033a1"/>
        <path id="Trazado_288" data-name="Trazado 288" d="M275.92,323.425l-.033-.025-.025.041-.049.082c-.049.082-.1.173-.148.247s-.115.157-.173.231l-.066.074-.025.033.033.016,2.952,2.045.033.016.017-.033.049-.082a2.048,2.048,0,0,1,.148-.256c.049-.074.115-.157.173-.239l.066-.074.025-.033-.033-.025Z" transform="translate(-272.984 -317.306)" fill="#0033a1"/>
        <path id="Trazado_289" data-name="Trazado 289" d="M300.371,285.35a1.582,1.582,0,0,0-1.311.305l-1.427,1.089-.033.025.016.025,2.136,2.878.017.033.033-.025,1.163-.9a1.872,1.872,0,0,0,.4-2.73A1.749,1.749,0,0,0,300.371,285.35Zm.2,3.282-.33.247-1.715-2.326.379-.289a1.09,1.09,0,0,1,.833-.272,1.429,1.429,0,0,1,.891.643C301.245,287.477,301.228,288.129,300.569,288.632Z" transform="translate(-293.353 -282.356)" fill="#0033a1"/>
        <path id="Trazado_290" data-name="Trazado 290" d="M362.05,261.325l-.025-.025-.025.016a.837.837,0,0,1-.181.074c-.058.017-.115.033-.181.049h-.033v.033l-.3,3.95-.008.066.058-.025a.247.247,0,0,0,.082-.033c.05-.016.1-.041.148-.058s.1-.025.148-.041c.033,0,.058-.016.082-.016l.033-.008v-.033c-.017-.256-.008-.5,0-.759l.008-.371,1.105-.363c.223.272.429.577.651.882l.017.025.016.025.025-.016.107-.041c.107-.041.2-.082.313-.124.1-.033.2-.058.313-.091l.115-.025.058-.017-.033-.041Zm.66,2.119-.8.264.082-1.171Z" transform="translate(-351.8 -260.327)" fill="#0033a1"/>
        <path id="Trazado_291" data-name="Trazado 291" d="M406.5,251.906a1.572,1.572,0,0,0-1.278-.437l-1.781.157H403.4l.008.041.305,3.587.008.041.033-.008,1.451-.132a1.986,1.986,0,0,0,1.328-.627,1.949,1.949,0,0,0,.437-1.468A1.757,1.757,0,0,0,406.5,251.906Zm-1.954,2.927-.247-2.9.47-.041a1.1,1.1,0,0,1,.858.223,1.435,1.435,0,0,1,.421,1.014c.091,1.047-.264,1.6-1.089,1.666C404.959,254.792,404.653,254.825,404.546,254.834Z" transform="translate(-390.428 -251.304)" fill="#0033a1"/>
        <path id="Trazado_292" data-name="Trazado 292" d="M478.727,249.706l-1.781-.206H476.9v.033l-.4,3.579-.008.033h.041l1.451.165a1.986,1.986,0,0,0,1.468-.379,1.936,1.936,0,0,0,.668-1.328,1.854,1.854,0,0,0-.247-1.22A1.606,1.606,0,0,0,478.727,249.706Zm-1.006.264.47.058c.775.091,1.113.569,1.006,1.468-.115,1.047-.569,1.509-1.394,1.418l-.4-.041Z" transform="translate(-457.5 -249.5)" fill="#0033a1"/>
        <path id="Trazado_293" data-name="Trazado 293" d="M528.5,261.452l.025-.049.025-.041-.05-.008a4.611,4.611,0,0,1-.61-.165l-.478-.165.346-1.006a6.741,6.741,0,0,1,1.072.454l.049.025.008-.049.008-.049a1.207,1.207,0,0,1,.041-.165c.016-.049.049-.1.074-.157l.025-.041.016-.041-.041-.016-1.872-.668-.033-.008-.008.033-1.188,3.389-.008.041.033.017,1.88.66.033.016.008-.041.017-.049a.975.975,0,0,1,.033-.165.548.548,0,0,1,.074-.157l.025-.049.025-.041-.041-.008a9.076,9.076,0,0,1-1.122-.322l.412-1.2.478.173a4.23,4.23,0,0,1,.586.256l.049.025.008-.049.008-.058c.008-.049.025-.115.033-.165A.511.511,0,0,1,528.5,261.452Z" transform="translate(-502.826 -258.492)" fill="#0033a1"/>
        <path id="Trazado_294" data-name="Trazado 294" d="M559.189,276.5a2.587,2.587,0,0,1-.256-.148c-.074-.049-.157-.115-.231-.173l-.082-.066-.025-.016-.025.033-1.954,3.01-.017.033.033.025,1.649,1.105.033.025.016-.033.025-.049a.9.9,0,0,1,.074-.157l.107-.132.033-.041.033-.033-.041-.025c-.322-.173-.643-.346-1.006-.577l1.732-2.655.017-.033-.033-.025Z" transform="translate(-530.995 -273.906)" fill="#0033a1"/>
        <path id="Trazado_295" data-name="Trazado 295" d="M597.33,329.963a1.06,1.06,0,0,0,.833-.107c.536-.272.643-.775.305-1.46l-.577-1.163-.017-.033-.033.016-3.2,1.625-.041.017.017.033.058.082c.041.091.1.173.14.264a1.922,1.922,0,0,1,.115.272l.033.091.017.041.041-.016,1.377-.7C596.7,329.526,596.991,329.847,597.33,329.963Zm.61-1.831.124.256a.37.37,0,0,1,.016.3.752.752,0,0,1-.4.412.639.639,0,0,1-.8-.091,1.912,1.912,0,0,1-.157-.256Z" transform="translate(-565.861 -320.792)" fill="#0033a1"/>
        <path id="Trazado_296" data-name="Trazado 296" d="M612.325,374.943l-.008-.025a1.57,1.57,0,0,1-.041-.19,1.6,1.6,0,0,1-.008-.2V374.5h-.025l-3.785-.99-.058-.008.017.058a.294.294,0,0,0,.016.083,1.325,1.325,0,0,1,.033.157,1.1,1.1,0,0,1,.008.165.281.281,0,0,0,.008.082v.033h.025c.256.025.487.082.742.132l.346.074.165,1.163c-.313.181-.643.338-.981.5l-.016.008-.025.008.008.033.025.115c.025.115.049.223.066.33s.025.223.033.338v.115l.008.066.05-.033,3.381-1.971Zm-1.187-.264-1.006.569-.115-.849Z" transform="translate(-578.523 -363.274)" fill="#0033a1"/>
        <path id="Trazado_297" data-name="Trazado 297" d="M616.477,419.142h.016l.462.066.033.008.008-.025.025-.074.008-.025-.016-.016a1.408,1.408,0,0,1-.478-.874c-.082-.75.429-1.278,1.336-1.377.775-.091,1.592.181,1.682,1.014a1.062,1.062,0,0,1-.371.891l-.017.017v.025l.008.074v.033h.025l.214.025c.107.008.223.025.338.041l.025.008.008-.033a2.492,2.492,0,0,0,.14-1.122,2.215,2.215,0,0,0-.742-1.526,1.947,1.947,0,0,0-1.5-.371,1.7,1.7,0,0,0-1.163.627,2.17,2.17,0,0,0-.4,1.583,2.276,2.276,0,0,0,.346,1.031Z" transform="translate(-585.594 -402.163)" fill="#0033a1"/>
        <path id="Trazado_298" data-name="Trazado 298" d="M623.128,462.858c0,.008-.008-.033-.008-.033l-.016-.107c-.016-.091-.033-.19-.049-.289s-.008-.2-.008-.3V462H623l-3.554.338H619.4l.008.041.016.1c.017.1.033.19.05.289s.008.2.008.3v.14l.041-.008,3.562-.338Z" transform="translate(-588.616 -444.476)" fill="#0033a1"/>
        <path id="Trazado_299" data-name="Trazado 299" d="M623.222,485.926a2.745,2.745,0,0,1,0,.52v.173l.049-.008.049-.016c.049-.008.107-.025.157-.033a.608.608,0,0,1,.173.008h.049l.041.008-.008-.058c-.041-.239-.074-.437-.091-.627,0,0-.025-.4-.033-.52l1.039-.082a8.072,8.072,0,0,1,.008,1.179v.049l.049-.008.049-.017a1.262,1.262,0,0,1,.173-.025,1.1,1.1,0,0,1,.165,0l.058.008h.041l-.008-.041-.14-2-.008-.033-.033.008-3.562.264-.041.008v.033l.017.1c.017.1.033.19.041.3.008.091.008.2.008.289v.107l-.008.041h.041l1.682-.124Z" transform="translate(-590.451 -465.029)" fill="#0033a1"/>
        <path id="Trazado_300" data-name="Trazado 300" d="M623.749,520.324v.14h.041l3.563-.19.041-.008v-.041l-.016-.1c-.017-.1-.025-.19-.033-.289s0-.2,0-.3l.008-.1V519.4h-.041l-3.571.19H623.7v.041l.016.1a1.709,1.709,0,0,1,.033.289A1.872,1.872,0,0,1,623.749,520.324Z" transform="translate(-592.561 -497.143)" fill="#0033a1"/>
        <path id="Trazado_301" data-name="Trazado 301" d="M666.162,462.272c.107.066.2.124.256.165a.674.674,0,0,1,.107.1.14.14,0,0,1,.025.082.177.177,0,0,1-.033.148.167.167,0,0,1-.115.066.228.228,0,0,1-.074-.008c-.025,0-.058-.025-.1-.066a1.374,1.374,0,0,1-.181-.19c-.074-.091-.181-.206-.313-.355L665.7,462C665.89,462.107,666.046,462.206,666.162,462.272Z" transform="translate(-631.097 -444.476)" fill="#0033a1"/>
        <path id="Trazado_302" data-name="Trazado 302" d="M627.387,542.661l-.016.008v.017l.008.074v.033l.025.008c.066.016.14.025.206.041.115.025.223.041.33.066l.025.008.017-.025a2.475,2.475,0,0,0,.231-1.1,1.948,1.948,0,0,0-2.07-2.095,1.841,1.841,0,0,0-1.748,2.07,2.455,2.455,0,0,0,.256,1.064l.008.017.017.008.445.107h.033l.008-.025.033-.066.008-.025-.016-.017a1.46,1.46,0,0,1-.4-.907,1.1,1.1,0,0,1,.289-.816,1.626,1.626,0,0,1,1.163-.437,1.739,1.739,0,0,1,1.27.421,1.023,1.023,0,0,1-.124,1.575Z" transform="translate(-593.197 -515.761)" fill="#0033a1"/>
        <path id="Trazado_303" data-name="Trazado 303" d="M624.138,585.754a1.857,1.857,0,0,0-1.394.454,2.037,2.037,0,0,0-.586,1.451,2.177,2.177,0,0,0,.528,1.608,1.889,1.889,0,0,0,3.266-1.311,2.178,2.178,0,0,0-.511-1.608A1.856,1.856,0,0,0,624.138,585.754Zm1.435,2.144c-.033.742-.75,1.047-1.451,1.014-.75-.025-1.616-.363-1.583-1.212a.9.9,0,0,1,.3-.668,1.509,1.509,0,0,1,1.105-.338,1.946,1.946,0,0,1,1.394.478A1.031,1.031,0,0,1,625.573,587.9Z" transform="translate(-591.144 -558.021)" fill="#0033a1"/>
      </g>
      <g id="Grupo_1169" data-name="Grupo 1169" transform="translate(5.964 40.542)">
        <path id="Trazado_304" data-name="Trazado 304" d="M279.558,702.634l2.35-1.583.049-.041-.033-.05-.058-.074c-.049-.074-.107-.14-.157-.214s-.091-.157-.132-.231l-.041-.082-.033-.058-.058.041-2.688,1.814-.058.033.033.049.99,1.517.041.058.05-.05.033-.033c.041-.033.074-.066.115-.1a.494.494,0,0,1,.132-.066l.041-.025.066-.033-.049-.058C279.986,703.219,279.772,702.955,279.558,702.634Z" transform="translate(-278.7 -700.3)" fill="#0033a1"/>
        <path id="Trazado_305" data-name="Trazado 305" d="M304.252,724.394l-.049-.041-.066-.058c-.066-.058-.14-.115-.2-.173s-.124-.132-.181-.2l-.058-.066-.041-.058-.049.049-2.268,2.367-.041.041.05.041.074.058.2.173c.058.058.107.132.173.2l.058.074.049.049.049-.041,2.268-2.367Z" transform="translate(-299.436 -721.862)" fill="#0033a1"/>
        <path id="Trazado_306" data-name="Trazado 306" d="M323.075,739.808l.033-.058-.058-.025-.041-.016c-.05-.016-.1-.041-.14-.058s-.074-.049-.115-.083a.143.143,0,0,1-.041-.033l-.041-.025-.033.025c-.536.4-1.072.759-1.583,1.088l-.371.247v-.058c.041-.775.074-1.567.14-2.334l.008-.049-.041-.008c-.016-.008-.033-.008-.049-.017-.049-.016-.091-.041-.132-.058s-.066-.049-.107-.074a.142.142,0,0,0-.041-.033l-.049-.041-.041.049c-.709.94-1.394,1.856-2.02,2.622l-.049.058.074.033c.025.008.041.016.066.025a.379.379,0,0,1,.132.058.435.435,0,0,1,.124.091l.049.041.049.041.033-.066c.305-.5.643-1,1.113-1.633l-.041.734c-.033.519-.058,1.014-.091,1.468l-.008.041.049.017a.529.529,0,0,1,.132.074l.033.033.041-.025c.61-.445,1.229-.874,1.822-1.278l-.173.4c-.206.478-.412.973-.651,1.46l-.025.049.05.025.1.049c.082.041.157.083.239.124s.157.1.239.157l.082.066.066.041.016-.066c.28-.783.635-1.616,1.039-2.581Z" transform="translate(-315.034 -735.075)" fill="#0033a1"/>
        <path id="Trazado_307" data-name="Trazado 307" d="M372.639,762.165v-.049l-.049-.008a.429.429,0,0,1-.173-.033.873.873,0,0,1-.157-.058l-.041-.017-.025.041-2.136,2.886-.058.082.091.016c.025.008.05.008.074.016a.967.967,0,0,1,.148.033.824.824,0,0,1,.132.041.264.264,0,0,1,.074.025l.049.016.025-.049a6.216,6.216,0,0,1,.371-.577l.165-.256.99.256c.041.322.058.643.074.99v.066l.041.008.107.016c.1.017.19.033.289.058s.181.058.28.091l.107.033.091.033-.016-.1Zm-.569,1.922-.668-.181.561-.775Z" transform="translate(-362.471 -756.912)" fill="#0033a1"/>
        <path id="Trazado_308" data-name="Trazado 308" d="M439.482,793.408l-.058-.008v.066l-.025.511v.066h.058l1.188.041h.058l.008-.058.016-.52v-.066h-.058Z" transform="translate(-426.148 -785.723)" fill="#0033a1"/>
        <path id="Trazado_309" data-name="Trazado 309" d="M489.3,768.473a1.19,1.19,0,0,0-.891-.165l-1.155.148-.058.008.008.066.4,3.274.008.066.066-.016.091-.017a1.277,1.277,0,0,1,.256-.049,2.481,2.481,0,0,1,.256-.016h.165l-.008-.066-.165-1.377c.734-.1,1.435-.338,1.328-1.27A1,1,0,0,0,489.3,768.473Zm-1.089,1.451-.148-1.187.239-.025c.214-.033.4.19.445.528a.564.564,0,0,1-.305.635A2.306,2.306,0,0,1,488.214,769.925Z" transform="translate(-470.006 -762.684)" fill="#0033a1"/>
        <path id="Trazado_310" data-name="Trazado 310" d="M523.546,761.767c-.025-.05-.041-.1-.058-.14a.432.432,0,0,1-.025-.148l-.008-.041-.008-.083-.074.033a8.414,8.414,0,0,1-.973.355l-.3-1.056.412-.124a4.4,4.4,0,0,1,.561-.124l.083-.016-.033-.074-.025-.049a.714.714,0,0,1-.058-.14.884.884,0,0,1-.025-.157l-.008-.041-.008-.074-.082.033a4.857,4.857,0,0,1-.536.2s-.3.082-.412.124l-.247-.874a7.882,7.882,0,0,1,1-.223l.082-.016-.033-.074-.017-.049a.585.585,0,0,1-.058-.132.466.466,0,0,1-.025-.148v-.049l-.008-.074-.074.025-1.732.5-.058.016.016.066.9,3.142.016.066.058-.016,1.732-.511.066-.017-.025-.066Z" transform="translate(-500.835 -753.792)" fill="#0033a1"/>
        <path id="Trazado_311" data-name="Trazado 311" d="M551.713,749.742l-.289-.165c-.33-.19-.676-.388-1.006-.594a.906.906,0,0,0,.214-1.13.77.77,0,0,0-.734-.454,1.712,1.712,0,0,0-.709.272l-.041.025-.9.47-.049.033.025.049,1.509,2.928.025.058.058-.033.074-.049c.074-.049.148-.1.223-.14s.157-.074.231-.107l.091-.033.058-.033-.033-.058-.627-1.22.1.058c.107.074.214.14.28.19l.965.627.033.016.041-.016.091-.058a2.157,2.157,0,0,1,.272-.165c.091-.049.2-.1.289-.14l.1-.041.107-.049-.1-.066Zm-2.062-.569-.536-1.031.008-.008c.28-.148.478-.239.66,0a1.013,1.013,0,0,1,.124.19.652.652,0,0,1,.082.52A.577.577,0,0,1,549.651,749.173Z" transform="translate(-525.976 -743.516)" fill="#0033a1"/>
        <path id="Trazado_312" data-name="Trazado 312" d="M580.473,717.5l-.041-.033-1.179-1.22-.049-.049-.049.058c-.041.049-.074.1-.115.14a.455.455,0,0,1-.14.115l-.066.05.049.049,1.014,1.039a4.118,4.118,0,0,1,.61.75.757.757,0,0,1-.181.948.721.721,0,0,1-.487.223.824.824,0,0,1-.528-.206,5.4,5.4,0,0,1-.553-.528l-.082-.091-.94-.965-.049-.049-.041.049-.049.066a2.065,2.065,0,0,1-.181.2c-.058.058-.124.115-.19.173l-.074.066-.049.041.049.049,1.361,1.394a2.492,2.492,0,0,0,.47.379,1.339,1.339,0,0,0,1.608-.412,1.623,1.623,0,0,0,.478-.849A1.546,1.546,0,0,0,580.473,717.5Z" transform="translate(-552.492 -714.889)" fill="#0033a1"/>
        <path id="Trazado_313" data-name="Trazado 313" d="M583.222,707.6c-.033-.206-.05-.363-.058-.462a.543.543,0,0,1,.016-.223.212.212,0,0,1,.066-.107.243.243,0,0,1,.2-.107.268.268,0,0,1,.19.066.362.362,0,0,1,.074.091.434.434,0,0,1,.016.2c0,.091-.016.223-.033.4s-.058.421-.107.726l-.214.256Q583.271,707.9,583.222,707.6Z" transform="translate(-558.053 -706.172)" fill="#0033a1"/>
      </g>
      <path id="Trazado_314" data-name="Trazado 314" d="M247.088,226.58a35.461,35.461,0,0,0-1.55-6.473,16,16,0,0,0-7.6-9.286c-2.87-1.534-6.927-2.276-11.718-2.128l-.313.008a25.22,25.22,0,0,0-7.743,1.2,14.264,14.264,0,0,0-3.051,1.443,14.574,14.574,0,0,0-5.443,5.641,24.323,24.323,0,0,0-2.507,7.158,39.443,39.443,0,0,0-.553,4.181c-.239,3.81-.3,7.125-.19,10.16.206,8.131,2.152,14.192,5.789,18.027a15.282,15.282,0,0,0,6.581,4.115,29.084,29.084,0,0,0,8.9,1.047c3.315-.1,6.8-.4,9.863-1.9a13.714,13.714,0,0,0,4-2.911,21.061,21.061,0,0,0,4.956-9.36C248.1,240.648,247.558,231.453,247.088,226.58Zm-2.21,20.336a18.338,18.338,0,0,1-4.536,8.618,14.221,14.221,0,0,1-3.6,2.647c-2.787,1.369-6.02,1.641-9.1,1.74a30.27,30.27,0,0,1-8.263-.932,13.122,13.122,0,0,1-5.929-3.637,15.411,15.411,0,0,1-3.266-5.385,35.259,35.259,0,0,1-2-11.636c-.107-2.911-.049-6.094.173-9.764a26.9,26.9,0,0,1,2.812-10.605,13.02,13.02,0,0,1,4.865-5.121,13.263,13.263,0,0,1,2.746-1.286,24.353,24.353,0,0,1,6.919-1.08l.5-.016c4.527-.14,8.486.553,10.828,1.888a14.6,14.6,0,0,1,6.9,8.436,36.187,36.187,0,0,1,1.394,6.144C245.884,232.707,246.247,240.9,244.878,246.915Z" transform="translate(-206.373 -208.674)" fill="#0033a1"/>
      <path id="Trazado_315" data-name="Trazado 315" d="M327.962,325.147c-.025-.874-.041-1.773-.091-2.688-.289-3.9-.651-7.323-2.07-9.83-2.581-4.412-7.908-4.42-10.473-4.428h-.552c-5.525.074-8.857,1.732-10.481,5.237-1.484,3.224-1.6,7.356-1.7,11-.008,6.7.115,11.355,1.781,15.05,2.35,4.923,7.323,5.434,11.875,5.294,3.249-.181,4.923-.429,7.348-1.946a8.4,8.4,0,0,0,2.672-3.167,16.482,16.482,0,0,0,1.146-3.884,52.841,52.841,0,0,0,.577-7.628l.025-1.171C328.02,326.977,327.962,325.147,327.962,325.147Zm-1.089,1.847c0-.016-.033,1.369-.033,1.369a54.334,54.334,0,0,1-.478,7.075c-.511,3.125-1.583,5.138-3.472,6.515-2.218,1.418-3.843,1.567-6.746,1.732-4.4.115-8.766-.4-10.819-4.865-1.517-3.6-1.633-8.205-1.633-14.3v-.058c.1-3.628.2-7.381,1.55-10.358,1.369-3.208,4.4-4.733,9.541-4.8l.594.008c2.515-.008,7.191-.008,9.483,3.975,1.361,2.433,1.633,6.111,1.872,9.352.074.957.091,1.9.107,2.812C326.849,326,326.849,326.491,326.874,326.994Z" transform="translate(-294.661 -299.993)" fill="#0033a1"/>
      <g id="Grupo_1171" data-name="Grupo 1171" transform="translate(13.955 11.457)">
        <g id="Grupo_1170" data-name="Grupo 1170" transform="translate(0 4.42)">
          <path id="Trazado_316" data-name="Trazado 316" d="M379.69,404.325l1.089-2.458-1.253.915-.206-1.352-.668,1.08-.47-1.311-.462,1.3-.775-1.039-.091,1.3-1.254-.924,1.08,2.482Z" transform="translate(-375.6 -401.2)" fill="#0033a1"/>
          <path id="Trazado_317" data-name="Trazado 317" d="M477.982,404.325l1.08-2.458-1.245.915-.206-1.352-.668,1.08-.47-1.311-.47,1.3-.767-1.039-.1,1.3-1.237-.924,1.072,2.482Z" transform="translate(-465.794 -401.2)" fill="#0033a1"/>
        </g>
        <path id="Trazado_318" data-name="Trazado 318" d="M428.882,350.725l1.089-2.457-1.253.907-.206-1.344-.668,1.08-.47-1.311-.462,1.3-.775-1.031-.091,1.295-1.245-.924,1.072,2.482Z" transform="translate(-420.743 -347.6)" fill="#0033a1"/>
      </g>
    </g>
  </g>
</svg>
