<svg xmlns="http://www.w3.org/2000/svg" xmlns:xlink="http://www.w3.org/1999/xlink" width="31.636" height="28" viewBox="0 0 31.636 28">
  <defs>
    <clipPath id="clip-path">
      <rect width="31.636" height="28" fill="none"/>
    </clipPath>
  </defs>
  <g id="Componente_5" data-name="Componente 5" clip-path="url(#clip-path)">
    <path id="Trazado_5692" data-name="Trazado 5692" d="M387.43,526.763a.513.513,0,0,0-.237.05.53.53,0,0,0-.32.459h0v16.092h0a.513.513,0,0,0,.05.2.424.424,0,0,0,.038.056.546.546,0,0,0,.078.106.5.5,0,0,0,.065.044.51.51,0,0,0,.1.063.546.546,0,0,0,.084.02.554.554,0,0,0,.094.022c.008,0,.015,0,.023,0s.015,0,.023,0a.554.554,0,0,0,.092-.022.6.6,0,0,0,.086-.02.573.573,0,0,0,.1-.061.787.787,0,0,0,.067-.046.6.6,0,0,0,.076-.1c.012-.021.03-.037.04-.059a.524.524,0,0,0,.049-.2v0h0V527.273A.534.534,0,0,0,387.43,526.763Z" transform="translate(-363.768 -518.479)" fill="none"/>
    <path id="Trazado_5693" data-name="Trazado 5693" d="M383.163,527.8a.534.534,0,0,0-.557.51v14.016a.534.534,0,0,0,1.067,0V528.311A.534.534,0,0,0,383.163,527.8Z" transform="translate(-363.768 -518.479)" fill="none"/>
    <path id="Trazado_5694" data-name="Trazado 5694" d="M391.672,527.777a.533.533,0,0,0-.531.534v14.016a.525.525,0,0,0,.043.207.4.4,0,0,0,.05.074.507.507,0,0,0,.064.1.485.485,0,0,0,.076.051.527.527,0,0,0,.093.063.656.656,0,0,0,.092.018.545.545,0,0,0,.113.024h0a.532.532,0,0,0,.113-.024.656.656,0,0,0,.092-.018.493.493,0,0,0,.093-.063.406.406,0,0,0,.076-.051.512.512,0,0,0,.065-.1.385.385,0,0,0,.092-.281V528.308A.532.532,0,0,0,391.672,527.777Z" transform="translate(-363.768 -518.479)" fill="none"/>
    <path id="Trazado_5695" data-name="Trazado 5695" d="M365.579,534.968h-.249a1.563,1.563,0,0,0-1.562,1.561v8.383a1.563,1.563,0,0,0,1.562,1.562l.249,0a.387.387,0,0,0,.388-.388V535.356A.388.388,0,0,0,365.579,534.968Z" transform="translate(-363.768 -518.479)" fill="#fff"/>
    <path id="Trazado_5696" data-name="Trazado 5696" d="M368.952,534.957a.387.387,0,0,0,.388-.388.787.787,0,0,1,.786-.785h4.353a.786.786,0,0,1,.785.785.388.388,0,1,0,.777,0,1.564,1.564,0,0,0-1.562-1.562h-4.353a1.564,1.564,0,0,0-1.562,1.562A.388.388,0,0,0,368.952,534.957Z" transform="translate(-363.768 -518.479)" fill="#fff"/>
    <rect id="Rectángulo_1400" data-name="Rectángulo 1400" width="10.632" height="11.506" rx="0.388" transform="translate(3.152 16.489)" fill="#fff"/>
    <path id="Trazado_5697" data-name="Trazado 5697" d="M379.122,534.964h-.228a.388.388,0,0,0-.388.388v10.73a.388.388,0,0,0,.388.388h.228a1.563,1.563,0,0,0,1.562-1.562v-8.382A1.564,1.564,0,0,0,379.122,534.964Z" transform="translate(-363.768 -518.479)" fill="#fff"/>
    <rect id="Rectángulo_1401" data-name="Rectángulo 1401" width="8.591" height="1.557" transform="translate(19.342)" fill="#fff"/>
    <rect id="Rectángulo_1402" data-name="Rectángulo 1402" width="1.588" height="1.038" transform="translate(18.302 26.962)" fill="#fff"/>
    <rect id="Rectángulo_1403" data-name="Rectángulo 1403" width="1.588" height="1.038" transform="translate(27.381 26.962)" fill="#fff"/>
    <path id="Trazado_5698" data-name="Trazado 5698" d="M393.806,525.716H390.6v-4.642h-1.054v4.642h-4.278v-4.642h-1.058v4.642H381a1.581,1.581,0,0,0-1.6,1.557V534.3h.035a1.834,1.834,0,0,1,1.969,1.652v8.868a.93.93,0,0,1-.013.1H393.8a1.578,1.578,0,0,0,1.6-1.557V527.273A1.58,1.58,0,0,0,393.806,525.716Zm-10.133,16.611a.534.534,0,0,1-1.067,0V528.311a.534.534,0,0,1,1.067,0Zm4.267,1.038h0v0a.524.524,0,0,1-.049.2c-.01.022-.028.038-.04.059a.6.6,0,0,1-.076.1.787.787,0,0,1-.067.046.573.573,0,0,1-.1.061.6.6,0,0,1-.086.02.554.554,0,0,1-.092.022c-.008,0-.015,0-.023,0s-.015,0-.023,0a.554.554,0,0,1-.094-.022.546.546,0,0,1-.084-.02.51.51,0,0,1-.1-.063.5.5,0,0,1-.065-.044.546.546,0,0,1-.078-.106.424.424,0,0,1-.038-.056.513.513,0,0,1-.05-.2h0V527.273h0a.53.53,0,0,1,.32-.459.513.513,0,0,1,.237-.05.534.534,0,0,1,.51.51Zm4.267-15.054v14.016a.385.385,0,0,1-.092.281.512.512,0,0,1-.065.1.406.406,0,0,1-.076.051.493.493,0,0,1-.093.063.656.656,0,0,1-.092.018.532.532,0,0,1-.113.024h0a.545.545,0,0,1-.113-.024.656.656,0,0,1-.092-.018.527.527,0,0,1-.093-.063.485.485,0,0,1-.076-.051.507.507,0,0,1-.064-.1.4.4,0,0,1-.05-.074.525.525,0,0,1-.043-.207V528.311a.533.533,0,0,1,1.066,0Z" transform="translate(-363.768 -518.479)" fill="#fff"/>
  </g>
</svg>
