<svg xmlns="http://www.w3.org/2000/svg" xmlns:xlink="http://www.w3.org/1999/xlink" width="28" height="28" viewBox="0 0 28 28">
  <defs>
    <clipPath id="clip-path">
      <rect width="28" height="28" fill="none"/>
    </clipPath>
  </defs>
  <g id="CONTRASEÑA_up" data-name="CONTRASEÑA up" clip-path="url(#clip-path)">
    <circle id="Elipse_226" data-name="Elipse 226" cx="14" cy="14" r="14" fill="#4ce4b1" opacity="0.7"/>
    <g id="Trazado_319" data-name="Trazado 319" transform="translate(-133 -111)">
      <path id="Trazado_319-2" data-name="Trazado 319" d="M547.633-34.355h-1.39v-2.193a4,4,0,0,0-4.22-3.736,4,4,0,0,0-4.22,3.736v2.193h-1.39a1.319,1.319,0,0,0-1.39,1.23v7.61a1.32,1.32,0,0,0,1.39,1.231h11.22a1.319,1.319,0,0,0,1.39-1.23v-7.61A1.318,1.318,0,0,0,547.633-34.355Zm-8.9-2.193a3.125,3.125,0,0,1,3.294-2.915,3.124,3.124,0,0,1,3.294,2.915v2.193h-6.587ZM548.1-25.514h0a.44.44,0,0,1-.463.41H536.413a.441.441,0,0,1-.463-.41v-7.61a.44.44,0,0,1,.463-.41h11.22a.439.439,0,0,1,.463.41Z" transform="translate(-395.023 157.291)" fill="#fff"/>
    </g>
  </g>
</svg>
