<svg xmlns="http://www.w3.org/2000/svg" xmlns:xlink="http://www.w3.org/1999/xlink" width="30" height="17.831" viewBox="0 0 30 17.831">
  <defs>
    <clipPath id="clip-path">
      <rect width="30" height="17.831" fill="none"/>
    </clipPath>
  </defs>
  <g id="Componente" clip-path="url(#clip-path)">
    <path id="Trazado_5701" data-name="Trazado 5701" d="M464.023,528.461c.087.368.189.716.3,1.047s.218.645.33.947l.02.054.014.037.029.073c.02.048.037.095.053.141s.033.09.048.134.031.086.043.128a3.509,3.509,0,0,1,.13.506,2.925,2.925,0,0,1,.037.584,4.718,4.718,0,0,1-.069.627c-.019.1-.036.2-.058.293s-.041.183-.062.263c-.04.165-.079.3-.106.4l-.032.111-.012.039.034.006a.833.833,0,0,0,.1.01,1.508,1.508,0,0,0,.367-.03,2.226,2.226,0,0,0,.254-.072,2.186,2.186,0,0,0,.93-.664,3.088,3.088,0,0,0,.562-1,4.062,4.062,0,0,0,.215-1.4,3.241,3.241,0,0,0-.021-.368c-.013-.121-.029-.242-.049-.361s-.047-.236-.075-.35c-.014-.058-.03-.114-.046-.17l-.025-.084-.021-.067c-.107-.341-.229-.675-.354-.993-.251-.635-.519-1.2-.718-1.664-.1-.231-.184-.434-.249-.623a2.581,2.581,0,0,1-.133-.567,2.8,2.8,0,0,1,0-.6c.013-.1.027-.2.043-.287s.035-.178.052-.258c.036-.159.07-.29.092-.381l.035-.143s-.042.006-.121.024a1.761,1.761,0,0,0-.331.117,1.8,1.8,0,0,0-.228.124,1.85,1.85,0,0,0-.258.191,2.362,2.362,0,0,0-.539.678,3.366,3.366,0,0,0-.358,1.117,5.308,5.308,0,0,0-.024,1.266A8.425,8.425,0,0,0,464.023,528.461Z" transform="translate(-442.538 -523.774)" fill="#fff"/>
    <rect id="Rect치ngulo_1404" data-name="Rect치ngulo 1404" width="21.078" height="4.293" transform="translate(8.922 13.538)" fill="#fff"/>
    <rect id="Rect치ngulo_1405" data-name="Rect치ngulo 1405" width="6.9" height="4.293" transform="translate(0 13.538)" fill="#fff"/>
    <path id="Trazado_5702" data-name="Trazado 5702" d="M467.88,528.461c.087.368.189.716.3,1.047s.218.645.33.947l.02.054.014.037.029.073c.02.048.037.095.053.141s.033.09.048.134.031.086.043.128a3.645,3.645,0,0,1,.13.506,2.925,2.925,0,0,1,.037.584,4.718,4.718,0,0,1-.069.627c-.018.1-.036.2-.058.293s-.041.183-.062.263c-.04.165-.079.3-.106.4l-.032.111-.012.039.034.006a.832.832,0,0,0,.1.01,1.508,1.508,0,0,0,.367-.03,2.224,2.224,0,0,0,.254-.072,2.186,2.186,0,0,0,.93-.664,3.089,3.089,0,0,0,.562-1,4.062,4.062,0,0,0,.215-1.4,3.49,3.49,0,0,0-.02-.368c-.013-.121-.029-.242-.049-.361s-.047-.236-.075-.35c-.014-.058-.03-.114-.046-.17l-.025-.084-.021-.067c-.107-.341-.229-.675-.354-.993-.25-.635-.519-1.2-.718-1.664-.1-.231-.184-.434-.249-.623a2.583,2.583,0,0,1-.133-.567,2.8,2.8,0,0,1,.005-.6c.013-.1.027-.2.043-.287s.035-.178.052-.258c.036-.159.07-.29.092-.381l.035-.143s-.042.006-.121.024a1.761,1.761,0,0,0-.331.117,1.8,1.8,0,0,0-.228.124,1.85,1.85,0,0,0-.258.191,2.362,2.362,0,0,0-.539.678,3.359,3.359,0,0,0-.358,1.117,5.361,5.361,0,0,0-.024,1.266A8.422,8.422,0,0,0,467.88,528.461Z" transform="translate(-442.538 -523.774)" fill="#fff"/>
  </g>
</svg>
