<svg xmlns="http://www.w3.org/2000/svg" xmlns:xlink="http://www.w3.org/1999/xlink" width="30.991" height="25.004" viewBox="0 0 30.991 25.004">
  <defs>
    <clipPath id="clip-path">
      <rect width="30.991" height="25.004" fill="none"/>
    </clipPath>
  </defs>
  <g id="hablar-3" clip-path="url(#clip-path)">
    <g id="Grupo_1309" data-name="Grupo 1309" transform="translate(-153.545 -521.601)">
      <path id="Trazado_344" data-name="Trazado 344" d="M157.771,540.523l-.278,6.082h8.019l.615-2.8s.349.641,2.421.832,1.819-2.576,1.819-2.576,1.38-.665,1.38-1.165-.817-1.145-.817-1.145.879.173,1.2-.231-.387-1.867-.387-1.867a2.547,2.547,0,0,0,1.719-.8c.637-.768-2.009-3.039-2.009-4.5,1.5-8.026-4.459-11.7-11.07-10.543s-6.365,5.531-6.753,7.622C152.846,534.671,157.771,540.524,157.771,540.523Z" fill="#fff"/>
    </g>
    <path id="Trazado_345" data-name="Trazado 345" d="M180.694,527.361a.467.467,0,0,0-.815,0c-.225.319-.189.471.036.79a10.8,10.8,0,0,1,.421,15.268c-.136.144-.277.284-.421.421a.615.615,0,0,0-.041.845.468.468,0,0,0,.815,0,11.68,11.68,0,0,0,.831-16.5Q181.129,527.754,180.694,527.361Z" transform="translate(-153.545 -521.601)" fill="#fff"/>
    <path id="Trazado_346" data-name="Trazado 346" d="M178.565,529.262a.54.54,0,0,0-.762-.053.439.439,0,0,0-.053.053.553.553,0,0,0-.009.781l.02.019c3.355,3.175,3.541,8.069.133,11.825-.225.248-.373.584-.148.831a.54.54,0,0,0,.762.053.531.531,0,0,0,.053-.053,8.836,8.836,0,0,0,1.007-12.453A8.958,8.958,0,0,0,178.565,529.262Z" transform="translate(-153.545 -521.601)" fill="#fff"/>
    <path id="Trazado_347" data-name="Trazado 347" d="M176.509,531.661a.7.7,0,0,0-.815,0,.544.544,0,0,0-.076.766l.017.019a5.119,5.119,0,0,1-.107,7.857c-.225.172-.062.56.163.733a.708.708,0,0,0,.815,0,6.276,6.276,0,0,0,0-9.375Z" transform="translate(-153.545 -521.601)" fill="#fff"/>
  </g>
</svg>
