<svg id="cubo-de-la-basura" xmlns="http://www.w3.org/2000/svg" width="20" height="24" viewBox="0 0 20 24">
  <g id="Grupo_3381" data-name="Grupo 3381">
    <g id="Grupo_3380" data-name="Grupo 3380">
      <path id="Trazado_5384" data-name="Trazado 5384" d="M133.289,211a.374.374,0,0,1,.748,0v14.117a2.248,2.248,0,0,1-.677,1.6,2.318,2.318,0,0,1-1.628.667H120.144a2.317,2.317,0,0,1-1.628-.667,2.245,2.245,0,0,1-.677-1.6V211a.374.374,0,0,1,.748,0v14.117a1.518,1.518,0,0,0,.458,1.082,1.567,1.567,0,0,0,1.1.452h11.587a1.565,1.565,0,0,0,1.1-.452,1.516,1.516,0,0,0,.459-1.081V211Z" transform="translate(-115.938 -203.391)" fill="red"/>
      <path id="Trazado_5385" data-name="Trazado 5385" d="M257.794,227.022a.368.368,0,0,1-.736,0V213.95a.368.368,0,1,1,.736,0Z" transform="translate(-250.58 -206.242)" fill="red"/>
      <path id="Trazado_5386" data-name="Trazado 5386" d="M354.252,227.022a.368.368,0,0,1-.736,0V213.95a.368.368,0,1,1,.736,0Z" transform="translate(-343.884 -206.242)" fill="red"/>
      <path id="Trazado_5387" data-name="Trazado 5387" d="M450.733,227.022a.368.368,0,0,1-.736,0V213.95a.368.368,0,1,1,.736,0v13.072Z" transform="translate(-437.21 -206.242)" fill="red"/>
      <path id="Trazado_5388" data-name="Trazado 5388" d="M251.143,2.269a.368.368,0,1,1-.736,0A2.275,2.275,0,0,1,252.676,0h2.852A2.277,2.277,0,0,1,257.8,2.269a.368.368,0,1,1-.736,0A1.541,1.541,0,0,0,255.529.736h-2.852a1.541,1.541,0,0,0-1.534,1.533Z" transform="translate(-244.102 0)" fill="red"/>
      <path id="Trazado_5389" data-name="Trazado 5389" d="M60.254,103.108H77.584a1.339,1.339,0,0,1,.942.387l0,0a1.305,1.305,0,0,1,.392.93v.951a.37.37,0,0,1-.373.368H59.292a.37.37,0,0,1-.373-.368v-.951a1.307,1.307,0,0,1,.392-.93l0,0a1.34,1.34,0,0,1,.942-.387Zm17.329.736H60.254a.59.59,0,0,0-.416.17l0,0a.574.574,0,0,0-.172.411v.583H78.173v-.583a.575.575,0,0,0-.172-.411l0,0A.588.588,0,0,0,77.584,103.844Z" transform="translate(-58.919 -99.781)" fill="red"/>
    </g>
  </g>
</svg>
