<svg xmlns="http://www.w3.org/2000/svg" xmlns:xlink="http://www.w3.org/1999/xlink" width="28" height="28" viewBox="0 0 28 28">
  <defs>
    <clipPath id="clip-path">
      <rect width="28" height="28" fill="none"/>
    </clipPath>
  </defs>
  <g id="usuario_UP" data-name="usuario UP" clip-path="url(#clip-path)">
    <path id="Trazado_5472" data-name="Trazado 5472" d="M14,0A14,14,0,1,1,0,14,14,14,0,0,1,14,0Z" fill="#08f" opacity="0.7"/>
    <g id="usuario-up" transform="translate(-85 -113)">
      <path id="Trazado_320" data-name="Trazado 320" d="M535.531-29.8h.107a3.019,3.019,0,0,0,2.35-1.063c1.283-1.513,1.07-4.106,1.047-4.354a3.59,3.59,0,0,0-1.615-3.162,3.574,3.574,0,0,0-1.789-.491h-.057a3.582,3.582,0,0,0-1.793.478,3.589,3.589,0,0,0-1.637,3.175c-.023.247-.237,2.841,1.047,4.354A3,3,0,0,0,535.531-29.8Zm-2.5-5.33v-.028c.11-2.5,1.807-2.768,2.533-2.768h.04c.9.021,2.43.4,2.533,2.768a.066.066,0,0,0,0,.028c0,.024.237,2.4-.823,3.643a2.142,2.142,0,0,1-1.717.746h-.033a2.133,2.133,0,0,1-1.713-.746C532.8-32.724,533.031-35.1,533.031-35.126Z" transform="translate(-436.588 157.866)" fill="#fff"/>
      <path id="Trazado_321" data-name="Trazado 321" d="M542.591-26.327v-.1c-.02-.69-.065-2.3-1.544-2.82l-.034-.01a9.765,9.765,0,0,1-2.829-1.318.453.453,0,0,0-.633.1l-.008.013a.477.477,0,0,0,.112.655,10.511,10.511,0,0,0,3.112,1.454c.794.289.883,1.157.907,1.952a.627.627,0,0,0,0,.087,6.477,6.477,0,0,1-.072,1.077,12.336,12.336,0,0,1-6.009,1.429,12.409,12.409,0,0,1-6.012-1.433,6.078,6.078,0,0,1-.072-1.077V-26.4c.024-.8.112-1.663.907-1.952a10.646,10.646,0,0,0,3.112-1.453.477.477,0,0,0,.112-.655.454.454,0,0,0-.629-.124l-.012.009a9.651,9.651,0,0,1-2.829,1.318l-.034.01c-1.479.519-1.524,2.133-1.544,2.82a.627.627,0,0,1,0,.087v.01a5.459,5.459,0,0,0,.174,1.579.446.446,0,0,0,.177.22,12.681,12.681,0,0,0,6.653,1.666,12.723,12.723,0,0,0,6.653-1.666.468.468,0,0,0,.177-.22A5.731,5.731,0,0,0,542.591-26.327Z" transform="translate(-436.588 157.866)" fill="#fff"/>
    </g>
  </g>
</svg>
