<svg xmlns="http://www.w3.org/2000/svg" width="322.116" height="222.204" viewBox="0 0 322.116 222.204">
  <g id="Grupo_7437" data-name="Grupo 7437" transform="translate(0 10.593)" opacity="0.8">
    <ellipse id="Elipse_607" data-name="Elipse 607" cx="161.058" cy="11.471" rx="161.058" ry="11.471" transform="translate(0 188.668)" fill="#a6b9d4" opacity="0.18"/>
    <g id="Grupo_7503" data-name="Grupo 7503" transform="translate(25.779 -10.593)">
      <path id="Trazado_5007" data-name="Trazado 5007" d="M7080.021,2153.719c-1.866-2.08-16.029-1.632-19.61-.673s-9.744,13.917-9.744,13.917h0c1.277,2.78,2.064,4.532,2.064,4.532s1.128.957,2.868,2.645h0a73.4,73.4,0,0,0,15.741-4.222C7080.093,2166.422,7081.7,2155.6,7080.021,2153.719Z" transform="translate(-6835.422 -2080.157)" fill="#cf3736"/>
      <g id="Grupo_7502" data-name="Grupo 7502" transform="translate(220.048)">
        <g id="Grupo_7501" data-name="Grupo 7501">
          <g id="Grupo_7500" data-name="Grupo 7500">
            <path id="Trazado_12701" data-name="Trazado 12701" d="M7060.518,2177.264a32.562,32.562,0,0,1-3.693,4.355c-1.355,1.107-1.479,2.492-1.478,4.618,0,1.6,3.262,4.085,3.878,2.874s-2.438-1.825-1.107-3.428c2.875-3.46,4.188,1.971,4.435.185a26.2,26.2,0,0,1,1.493-4.782S7062.427,2177.172,7060.518,2177.264Z" transform="translate(-7055.347 -2079.496)" fill="#ffd5b6"/>
            <g id="Grupo_7497" data-name="Grupo 7497" transform="translate(0.513)">
              <path id="Trazado_12702" data-name="Trazado 12702" d="M7083.216,2082.124a21.333,21.333,0,0,1,9.431,1.19c.485.175.963.374,1.431.594,6.208,2.937,9.132,10.028,8.32,16.639-.828,6.746-.237,8.639,3.313,11.479s6.745,12.781-2.367,17.87-32.662,3.786-32.662,3.786-8.758,1.184-8.875-9.586,8.047-11.361,7.574-20.354c-.3-5.706.9-12.138,4.47-16.74A13.365,13.365,0,0,1,7083.216,2082.124Z" transform="translate(-7055.689 -2082.011)" fill="#50030e"/>
              <path id="Trazado_12703" data-name="Trazado 12703" d="M7076.89,2099.485a1.094,1.094,0,0,0-1.272-.479,1.716,1.716,0,0,0-1.022,1,2.453,2.453,0,0,0,.076,2.06,4.852,4.852,0,0,0,2.568,1.908" transform="translate(-7055.356 -2081.563)" fill="#ffd5b6"/>
              <path id="Trazado_12704" data-name="Trazado 12704" d="M7080.451,2117.542s5.749,2.214,9.193.334a4.6,4.6,0,0,0,1.238-.991,6.387,6.387,0,0,1-1.012-5.673c.047-.131.088-.295-.013-.39l-3.364-.136-3.848-.151c.027.3.041.609.055.917v.075a17.828,17.828,0,0,1-.185,3.083,5.188,5.188,0,0,1-.547,1.845A2.138,2.138,0,0,1,7080.451,2117.542Z" transform="translate(-7055.197 -2081.258)" fill="#ffd5b6"/>
              <path id="Trazado_12705" data-name="Trazado 12705" d="M7082.522,2111.475a.974.974,0,0,0,.124.047c.833.362,5.659,2.557,6.944,6.35a4.6,4.6,0,0,0,1.238-.991,6.387,6.387,0,0,1-1.012-5.673c.047-.131.088-.295-.013-.39l-3.364-.136-3.793.766Z" transform="translate(-7055.142 -2081.254)" fill="#f09f86" opacity="0.3" style="mix-blend-mode: multiply;isolation: isolate"/>
              <path id="Trazado_12706" data-name="Trazado 12706" d="M7076.828,2105.426c1.128,3.042,2.125,5.159,5.113,6.4a.088.088,0,0,0,.041.014c2.987,1.229,7.8,1.031,10.376-.909a8.57,8.57,0,0,0,3.124-4.662,1.789,1.789,0,0,0,2.509-1.517c.444-2.331.2-5.913-3.22-3.842-1.784.26-10.7-4.5-12.57-11.176-1.1,2.809-4.033,4.689-5.271,5.38a1.456,1.456,0,0,0-.717.956A17.405,17.405,0,0,0,7076.828,2105.426Z" transform="translate(-7055.319 -2081.807)" fill="#ffd5b6"/>
              <path id="Trazado_12707" data-name="Trazado 12707" d="M7095.856,2105.525c-1.128,3.042-2.482,5.25-5.469,6.494a.091.091,0,0,1-.041.014c-2.987,1.23-7.8,1.032-10.376-.908a8.565,8.565,0,0,1-3.125-4.662s-1.546-5.02.35-5.4c1.062.154,4.775-1.452,8-4.185,1.1,1.149,6.416,6.84,11.416,3.212A14.291,14.291,0,0,1,7095.856,2105.525Z" transform="translate(-7055.308 -2081.618)" fill="#ffd5b6"/>
              <path id="Trazado_12708" data-name="Trazado 12708" d="M7060.385,2177.976c1.614,1.081,1.19,1.074,2.01,1.942a12.246,12.246,0,0,1,1.518,1.879s8.88-19.891,9.829-31.2a33.527,33.527,0,0,0-7.287-.177c-.915.143-.827.383-.827.383C7065.389,2151.291,7063.933,2170.99,7060.385,2177.976Z" transform="translate(-7055.727 -2080.208)" fill="#ffd5b6"/>
              <path id="Trazado_12709" data-name="Trazado 12709" d="M7067.022,2198.238s-3.458,30.833-2.462,36.185,13.53,31.721,14.631,35.349,2.366,7.177,1.774,8.483a29.714,29.714,0,0,1-3.262,4.308l7.123,1.657s3.527-2.416,3.9-3.971-1.717-5.28-2.917-7.6-3.352-19.345-4.762-24.374-6.06-13.387-6.2-14.949,6.69-27.01,7.584-32.336Z" transform="translate(-7055.621 -2078.942)" fill="#ffd5b6"/>
              <g id="Grupo_7492" data-name="Grupo 7492" transform="translate(17.087 196.723)">
                <path id="Trazado_12710" data-name="Trazado 12710" d="M7090.335,2277.733s.488,1.343.63,1.951-2.1,3.512-6.244,6.38c-2.941,2.27-5.563,3.835-8.312,3.777-1.754-.037-3.2-.632-3.4-.991a11.622,11.622,0,0,1-.5-1.727" transform="translate(-7072.494 -2273.567)" fill="#ffbb81"/>
                <path id="Trazado_12711" data-name="Trazado 12711" d="M7087.534,2273.688a13.105,13.105,0,0,1-7.079,1.761s-.117-.065-.474.337c-.825.928-1.747,4.675-3.246,5.875s-4.119,3.732-4.239,5.373,5.047,3.3,9.63-.308c3.6-2.838,7.951-6.452,8.454-7.463s-1.956-4.018-2.046-4.557S7088.188,2273.579,7087.534,2273.688Z" transform="translate(-7072.495 -2273.674)" fill="#006551"/>
                <path id="Trazado_12712" data-name="Trazado 12712" d="M7081.505,2279.818s-2.661-1.7-3.589-1.138c-.6.363.921.2,2.2.992S7082.127,2280.465,7081.505,2279.818Z" transform="translate(-7072.354 -2273.545)" fill="#ddcdc3"/>
                <path id="Trazado_12713" data-name="Trazado 12713" d="M7080.88,2281.031s-2.661-1.7-3.589-1.138c-.6.362.922.2,2.2.992S7081.5,2281.678,7080.88,2281.031Z" transform="translate(-7072.371 -2273.513)" fill="#ddcdc3"/>
                <path id="Trazado_12714" data-name="Trazado 12714" d="M7080.255,2282.244s-2.661-1.7-3.589-1.139c-.6.364.922.2,2.2.993S7080.877,2282.891,7080.255,2282.244Z" transform="translate(-7072.388 -2273.481)" fill="#ddcdc3"/>
              </g>
              <path id="Trazado_12715" data-name="Trazado 12715" d="M7081.476,2197.219s5.338,30.213,6.234,36.8,4.855,41.621,3.992,44.73-4.035,6.844-4.035,6.844l6.837,4.528s3.656-3.071,4-4.381-1.577-4.866-1.387-6.753,1.476-30.7,2.006-36.191-.8-10.687-1.142-15.373,1.125-28.4,1.125-28.4" transform="translate(-7055.17 -2078.969)" fill="#ffd5b6"/>
              <g id="Grupo_7494" data-name="Grupo 7494" transform="translate(23.603 202.076)">
                <g id="Grupo_7493" data-name="Grupo 7493">
                  <path id="Trazado_12716" data-name="Trazado 12716" d="M7099.089,2284.715s-.055,1.427-.155,2.043-3.274,2.456-8.2,3.54c-3.582.987-6.6,1.443-9.123.348-1.609-.7-2.719-1.8-2.767-2.2a11.462,11.462,0,0,1,.191-1.789" transform="translate(-7078.842 -2278.736)" fill="#ffbb81"/>
                  <path id="Trazado_12717" data-name="Trazado 12717" d="M7098.065,2279.964a13.1,13.1,0,0,1-7.219-1.051s-.083-.1-.566.132c-1.115.545-3.388,3.666-5.23,4.207s-5.224,1.895-5.957,3.367,3.42,4.969,9.03,3.364c4.41-1.262,9.8-2.961,10.65-3.707s-.289-4.46-.167-4.991S7098.712,2280.111,7098.065,2279.964Z" transform="translate(-7078.838 -2278.89)" fill="#06755f"/>
                  <path id="Trazado_12718" data-name="Trazado 12718" d="M7090.034,2283.47s-1.819-2.581-2.891-2.414c-.693.109.78.53,1.661,1.752S7090.364,2284.3,7090.034,2283.47Z" transform="translate(-7078.628 -2278.833)" fill="#ddcdc3"/>
                  <path id="Trazado_12719" data-name="Trazado 12719" d="M7089,2284.355s-1.818-2.581-2.891-2.413c-.693.109.779.53,1.661,1.752S7089.326,2285.19,7089,2284.355Z" transform="translate(-7078.655 -2278.809)" fill="#ddcdc3"/>
                  <path id="Trazado_12720" data-name="Trazado 12720" d="M7087.958,2285.241s-1.818-2.581-2.89-2.413c-.693.109.779.53,1.662,1.751S7088.289,2286.076,7087.958,2285.241Z" transform="translate(-7078.683 -2278.786)" fill="#ddcdc3"/>
                </g>
              </g>
              <g id="Grupo_7496" data-name="Grupo 7496" transform="translate(9.472 69.941)">
                <g id="Grupo_7495" data-name="Grupo 7495">
                  <path id="Trazado_12721" data-name="Trazado 12721" d="M7065.075,2201.543c4.09.513,8.819.887,13.529,1.154,1.232.069,2.474.127,3.687.187,7.657.355,14.761.463,18.309.493.809-6.12,1.577-11.5,1.577-11.5,2.444-12.032-1.331-25.1-3.961-37.092l-4.454-4.424-.207-.207-.158.01-2.759.246-16.5,1.438s-.208,1.133-.572,3.095c-.02.109-.039.236-.068.355C7071.785,2164.531,7067.094,2189.886,7065.075,2201.543Z" transform="translate(-7065.075 -2150.153)" fill="#0e222d"/>
                </g>
              </g>
              <path id="Trazado_12722" data-name="Trazado 12722" d="M7109.409,2151.349c.406,8.071,3.892,20.661,5.531,28.576a33.18,33.18,0,0,0,1.863,2.982s1.95,3.809,1.051,6.264c-.51,2.042-4.327,2.553-5.261,1.953-1.691-1.1-2-3.979-2-3.979l-.462-4.368c-2.715-8.524-6.447-20.844-9.162-29.368Z" transform="translate(-7054.655 -2080.18)" fill="#ffd5b6"/>
              <path id="Trazado_12723" data-name="Trazado 12723" d="M7090.871,2115.336a7.712,7.712,0,0,1-9.934.077,10,10,0,0,0-1.309,1.772s5.467,5.159,12.7-.077A14.36,14.36,0,0,0,7090.871,2115.336Z" transform="translate(-7055.219 -2081.131)" fill="#006551"/>
              <path id="Trazado_12724" data-name="Trazado 12724" d="M7060.172,2150.562c0,1.463,1.08,2.079,3.083,2.461a52.054,52.054,0,0,0,8.934.458h.021c.026.013.062.034.1.054.075.054.157.123.252.206a2.437,2.437,0,0,1,.212.2,18.083,18.083,0,0,0,1.4,1.237,10.119,10.119,0,0,0,1.121.773c1.7,1,11.238,1.463,17.63.923,5.857-.54,5.932-1,7.163-1.7a8.483,8.483,0,0,0,2.837.369,19.085,19.085,0,0,0,5.939-.984c2.236-.848,1.853-.691,2.776-1.845s1.538-.465,1.771-1.313-.773-1.23-1.621-2.925.308-1.845-.847-5.16-2.079-8.777-3.616-14.554a14.137,14.137,0,0,0-7.45-9.275,8.464,8.464,0,0,0-1.716-.581c-.588-.123-1.142-.267-1.647-.409-.144-.041-.281-.082-.417-.123a19.058,19.058,0,0,1-3.248-1.313c-4.388,1-12.707.075-12.707.075a17.152,17.152,0,0,1-3.876,1.388c-4.614.93-9.084,11.244-10.083,13.787s-3.082,9.774-4.388,11.394-1.388,1.7-.848,3c.417,1.012-.267,1.886-.6,2.9A2.914,2.914,0,0,0,7060.172,2150.562Z" transform="translate(-7055.732 -2081.086)" fill="#006551"/>
              <path id="Trazado_12725" data-name="Trazado 12725" d="M7072.446,2153.9a17.98,17.98,0,0,0,1.4,1.237,10.12,10.12,0,0,0,1.121.773c1.7,1,11.238,1.462,17.63.922,5.857-.54,5.932-1,7.163-1.7a8.476,8.476,0,0,0,2.837.37,19.093,19.093,0,0,0,5.939-.984c2.236-.848,1.853-.691,2.776-1.845s1.538-.465,1.771-1.313-.773-1.23-1.621-2.925.308-1.845-.847-5.161-2.079-8.777-3.616-14.554a14.138,14.138,0,0,0-7.45-9.275,8.494,8.494,0,0,0-1.716-.581c-.588-.123-1.142-.267-1.647-.409-.144-.042-.281-.083-.417-.123-.041.013-.082.021-.124.034C7095.646,2118.374,7100.676,2155.784,7072.446,2153.9Z" transform="translate(-7055.408 -2081.052)" opacity="0.2" style="mix-blend-mode: multiply;isolation: isolate"/>
              <path id="Trazado_12726" data-name="Trazado 12726" d="M7117.365,2187.9a1.872,1.872,0,0,1-.794,1.916,4.693,4.693,0,0,1-2.061.726,2.947,2.947,0,0,1-1.928-.143,2.358,2.358,0,0,1-1.037-1.784,3.063,3.063,0,0,1,.676-2.53c.714-.751,2.564-1.908,3.54-1.558s1.435,2.017,1.577,3.043C7117.4,2188.043,7117.365,2187.9,7117.365,2187.9Z" transform="translate(-7054.377 -2079.306)" fill="#ffd5b6"/>
              <path id="Trazado_12727" data-name="Trazado 12727" d="M7099.727,2152.723a4.461,4.461,0,0,0-.208-1.4,2.169,2.169,0,0,1-.09-1.1c.161-.509.631-.653.879-1.083.821-1.428.3-2.722-.16-4.082a19.946,19.946,0,0,1-1.088-4.783c-.146-1.835.626-3.541.5-5.323,0-.038.062-.047.068-.009a5.767,5.767,0,0,1-.148,2.071,12.66,12.66,0,0,0,.022,4.419,18.783,18.783,0,0,0,.919,3.015,11.653,11.653,0,0,1,5.486-7.75c.063-.035.142.055.081.1a16.32,16.32,0,0,0-5.509,7.813,10.946,10.946,0,0,1,.7,2.834,2.37,2.37,0,0,1-.342,1.569c-.17.254-.477.412-.64.659-.8,1.224-.43,1.167-.111,2.165.412,1.29-.1,2.131-1.161,2.927-.128.1-.274-.109-.168-.218A2.352,2.352,0,0,0,7099.727,2152.723Z" transform="translate(-7054.715 -2080.614)" fill="#006551" opacity="0.5" style="mix-blend-mode: multiply;isolation: isolate"/>
              <path id="Trazado_12728" data-name="Trazado 12728" d="M7086.935,2155.693a75.927,75.927,0,0,0,9.488-22.455c.506-2.085.923-4.2,1.339-6.3q.74-3.741,1.484-7.485a8.464,8.464,0,0,0-1.716-.581c-.588-.123-1.142-.267-1.647-.409a.1.1,0,0,1,.007.027s-2.479,24.108-11.926,36.392C7083.677,2157.237,7086.935,2155.693,7086.935,2155.693Z" transform="translate(-7055.105 -2081.049)" fill="#8dd6ee"/>
              <path id="Trazado_12729" data-name="Trazado 12729" d="M7072.213,2152.963l1.408,1.229,1.456-1.366a5.873,5.873,0,0,1-1.647-2.153,14.054,14.054,0,0,1-.211-3.4c-.171.786-.575,1.5-.773,2.29a10.26,10.26,0,0,0-.136,3.233A.155.155,0,0,1,7072.213,2152.963Z" transform="translate(-7055.415 -2080.288)" fill="#8dd6ee"/>
              <path id="Trazado_12730" data-name="Trazado 12730" d="M7073.257,2154.1c3.2-.616,9.081-.089,12.685.346,8.957-12.5,11.335-35.583,11.335-35.583a.117.117,0,0,0-.006-.028c.506.144,1.06.288,1.647.411a8.4,8.4,0,0,1,1.715.581q-.748,3.743-1.483,7.484c-.417,2.106-.833,4.218-1.34,6.3a75.969,75.969,0,0,1-8.78,21.278c.031.2.451,2.9.865,7.151-7.7,2.94-18.162-.492-18.306-.444A67.466,67.466,0,0,1,7073.257,2154.1Z" transform="translate(-7055.432 -2081.039)" opacity="0.2" style="mix-blend-mode: multiply;isolation: isolate"/>
              <path id="Trazado_12731" data-name="Trazado 12731" d="M7055.846,2135.459" transform="translate(-7055.846 -2080.6)" fill="none" stroke="#ff9a00" stroke-miterlimit="10" stroke-width="0.666"/>
              <path id="Trazado_12732" data-name="Trazado 12732" d="M7070.556,2160.322c.143-.047,10.6,3.384,18.3.444-.43-4.423-.868-7.17-.868-7.17-.143-.047-10.964-1.695-15.769-.772A66.8,66.8,0,0,0,7070.556,2160.322Z" transform="translate(-7055.458 -2080.149)" fill="#8dd6ee"/>
              <path id="Trazado_12733" data-name="Trazado 12733" d="M7072.213,2152.824l6.986,4.158,8.749-3.386C7087.805,2153.549,7077.019,2151.9,7072.213,2152.824Z" transform="translate(-7055.415 -2080.149)" fill="#20435b" opacity="0.3" style="mix-blend-mode: multiply;isolation: isolate"/>
              <path id="Trazado_12734" data-name="Trazado 12734" d="M7072.181,2152.824l7.02,3.486,8.749-2.714C7087.806,2153.549,7076.985,2151.9,7072.181,2152.824Z" transform="translate(-7055.416 -2080.149)" fill="#8dd6ee"/>
              <path id="Trazado_12735" data-name="Trazado 12735" d="M7092.895,2101.282c.458,2.262-.62,12.608-10.764,11.125,3.035.986,7.668.652,10.244-1.29a10.213,10.213,0,0,0,3.25-4.8,1.752,1.752,0,0,0,2.355-1.566c.444-2.331.2-5.913-3.22-3.842-1.784.26-10.7-4.5-12.57-11.176-1.1,2.809-4.033,4.689-5.271,5.38a1.456,1.456,0,0,0-.717.956s5.3-2.037,5.947-5.044C7084.022,2095.587,7088.909,2100.468,7092.895,2101.282Z" transform="translate(-7055.309 -2081.807)" fill="#f09f86" opacity="0.3" style="mix-blend-mode: multiply;isolation: isolate"/>
              <path id="Trazado_12736" data-name="Trazado 12736" d="M7090.489,2118.06a4.5,4.5,0,0,1-2.091,1.155,7.76,7.76,0,0,1-1.786.162,13.872,13.872,0,0,1-5.031-.751" transform="translate(-7055.167 -2081.059)" fill="none" stroke="#006551" stroke-miterlimit="10" stroke-width="0.666" opacity="0.3" style="mix-blend-mode: multiply;isolation: isolate"/>
              <path id="Trazado_12737" data-name="Trazado 12737" d="M7078.256,2201.9c1.232.069,2.474.127,3.687.187.778-10.7,1.576-21.581,1.576-21.581S7080.346,2192.12,7078.256,2201.9Z" transform="translate(-7055.254 -2079.411)" opacity="0.2" style="mix-blend-mode: multiply;isolation: isolate"/>
              <path id="Trazado_12738" data-name="Trazado 12738" d="M7060.172,2150.039c0,1.463,1.08,2.079,3.083,2.461a52.054,52.054,0,0,0,8.934.458h.021c.026.013.062.034.1.054-.226-.643-.308-1.367.643-4.785a6.27,6.27,0,0,0-.445-4.382c-.725-1.62-.594-3.308.062-6.971,0,0-5.2,17.2-12.222,12.214A2.914,2.914,0,0,0,7060.172,2150.039Z" transform="translate(-7055.732 -2080.563)" opacity="0.2" style="mix-blend-mode: multiply;isolation: isolate"/>
              <path id="Trazado_12739" data-name="Trazado 12739" d="M7068.484,2130.058c2.325,1.416,3.384,4.327,3.863,7a12.028,12.028,0,0,0-.787,5.352,8.711,8.711,0,0,0,.568,2.112,5.468,5.468,0,0,1,.287,4.272,7.205,7.205,0,0,0-.444,4.348h.021a1.7,1.7,0,0,1,.348.26.137.137,0,0,0,.069-.144,10.26,10.26,0,0,1,.136-3.233c.2-.786.6-1.5.773-2.29a3.457,3.457,0,0,0,.082-.513c.1-1.435-.84-2.666-1.182-4.012a9.934,9.934,0,0,1,.28-5.195c.013.116.021-.1.082-.294a56.514,56.514,0,0,0,1.934-6.507.043.043,0,0,0-.083-.021c-.471,1.839-1.3,3.651-1.954,5.483a12.221,12.221,0,0,0-1.025-3.507c-.581-1.251-1.415-2.966-2.891-3.28C7068.458,2129.867,7068.389,2130,7068.484,2130.058Z" transform="translate(-7055.514 -2080.747)" fill="#006551" opacity="0.5" style="mix-blend-mode: multiply;isolation: isolate"/>
              <path id="Trazado_12740" data-name="Trazado 12740" d="M7082.971,2089.13a18.972,18.972,0,0,0,5.447,6.558,26.72,26.72,0,0,0,7.559,4.021" transform="translate(-7055.13 -2081.823)" fill="none" stroke="#ffccbf" stroke-miterlimit="10" stroke-width="0.666" style="mix-blend-mode: multiply;isolation: isolate"/>
              <path id="Trazado_12741" data-name="Trazado 12741" d="M7084.754,2089.978a16.827,16.827,0,0,0,9.007,6.124" transform="translate(-7055.083 -2081.8)" fill="none" stroke="#ffccbf" stroke-miterlimit="10" stroke-width="0.666" style="mix-blend-mode: multiply;isolation: isolate"/>
              <path id="Trazado_12742" data-name="Trazado 12742" d="M7080.872,2089.577a11.03,11.03,0,0,1-4.361,4.3" transform="translate(-7055.301 -2081.811)" fill="none" stroke="#ffccbf" stroke-miterlimit="10" stroke-width="0.666" style="mix-blend-mode: multiply;isolation: isolate"/>
              <path id="Trazado_12743" data-name="Trazado 12743" d="M7092.087,2098.6a2.331,2.331,0,0,0-1.527-1.391,1.551,1.551,0,0,0-1.775.843" transform="translate(-7054.977 -2081.611)" fill="none" stroke="#6e2200" stroke-linecap="round" stroke-linejoin="round" stroke-width="0.666"/>
              <path id="Trazado_12744" data-name="Trazado 12744" d="M7082.647,2098.293q-.2-.226-.4-.443a1.815,1.815,0,0,0-.944-.626,1.856,1.856,0,0,0-1.5.739" transform="translate(-7055.214 -2081.609)" fill="none" stroke="#6e2200" stroke-linecap="round" stroke-linejoin="round" stroke-width="0.666"/>
            </g>
            <g id="Grupo_7498" data-name="Grupo 7498" transform="translate(35.358 18.531)">
              <path id="Trazado_12745" data-name="Trazado 12745" d="M7089.795,2101.183c-.01.624.309,1.136.712,1.143s.74-.495.75-1.118-.308-1.136-.712-1.143S7089.806,2100.559,7089.795,2101.183Z" transform="translate(-7089.795 -2100.065)" fill="#6e2200"/>
            </g>
            <g id="Grupo_7499" data-name="Grupo 7499" transform="translate(25.469 18.427)">
              <path id="Trazado_12746" data-name="Trazado 12746" d="M7081.624,2101.106c-.011.623-.348,1.124-.751,1.118s-.723-.52-.712-1.143.347-1.125.751-1.117S7081.634,2100.482,7081.624,2101.106Z" transform="translate(-7080.16 -2099.964)" fill="#6e2200"/>
            </g>
          </g>
        </g>
        <path id="Trazado_12747" data-name="Trazado 12747" d="M7092.441,2099.185s-1.9-1.517-2.9-.5c-.47-.3-.95-.634-1.43-.993a1.955,1.955,0,0,1,1.678-1.164l2.276-.379Z" transform="translate(-7054.482 -2081.637)" fill="#50030e"/>
        <g id="Grupo_3068" data-name="Grupo 3068" transform="translate(29.628 18.389)" opacity="0.6" style="mix-blend-mode: multiply;isolation: isolate">
          <path id="Trazado_5315" data-name="Trazado 5315" d="M7084.934,2104.252a.906.906,0,0,1,.548-.226c.314.017.525.323.65.61a.552.552,0,0,1,.055.392.5.5,0,0,1-.274.247C7084.959,2105.721,7083.751,2105.109,7084.934,2104.252Z" transform="translate(-7084.207 -2099.819)" fill="#f09f86"/>
          <g id="Grupo_3067" data-name="Grupo 3067">
            <path id="Trazado_5316" data-name="Trazado 5316" d="M7085.173,2105.136l.039-.218a5.278,5.278,0,0,0,.079-.587,7.167,7.167,0,0,0-.682-3.694c-.085-.177-.18-.351-.282-.519l-.115-.191.169.144a3.438,3.438,0,0,1,.42.443,4.052,4.052,0,0,1,.489.772,4.471,4.471,0,0,1,.354,1.069,4.524,4.524,0,0,1,.053,1.125,4.211,4.211,0,0,1-.183.9,3.48,3.48,0,0,1-.234.563Z" transform="translate(-7084.212 -2099.927)" fill="#f09f86"/>
          </g>
        </g>
        <path id="Trazado_5302" data-name="Trazado 5302" d="M7088.672,2106.119a12.121,12.121,0,0,1-2.909.392,28.733,28.733,0,0,1-3.427-.277s.771,3.312,3.427,3.312C7088.33,2109.546,7088.672,2106.119,7088.672,2106.119Z" transform="translate(-7054.634 -2081.374)" fill="#fff"/>
        <g id="Grupo_3053" data-name="Grupo 3053" transform="translate(22.772 21.936)" opacity="0.3">
          <g id="Grupo_3050" data-name="Grupo 3050" transform="translate(12.148)">
            <g id="Grupo_3049" data-name="Grupo 3049">
              <path id="Trazado_5305" data-name="Trazado 5305" d="M7089.369,2104.647c-.025.449.864.646,1.987.442s2.057-.733,2.08-1.183-.863-.647-1.985-.443S7089.391,2104.2,7089.369,2104.647Z" transform="translate(-7089.369 -2103.383)" fill="#ff3d17"/>
            </g>
          </g>
          <g id="Grupo_3052" data-name="Grupo 3052" transform="translate(0 0.283)">
            <g id="Grupo_3051" data-name="Grupo 3051">
              <path id="Trazado_5306" data-name="Trazado 5306" d="M7077.533,2104.179c-.025-.448.864-.646,1.987-.44s2.057.738,2.078,1.188-.865.646-1.987.44S7077.558,2104.629,7077.533,2104.179Z" transform="translate(-7077.533 -2103.658)" fill="#ff3d17"/>
            </g>
          </g>
        </g>
      </g>
      <g id="Grupo_3098" data-name="Grupo 3098" transform="translate(0 28.912)">
        <g id="Grupo_3095" data-name="Grupo 3095" transform="translate(34.962 2.388)">
          <path id="Unión_1" data-name="Unión 1" d="M6937.81,2174.615h-58.574a9.891,9.891,0,0,1-.094-1.316l-.03-2.543,5.962-9.207a21.094,21.094,0,0,1,17.7-9.63h121.218a21.066,21.066,0,0,1,17.688,9.63l6.243,9.635.009.623a10.955,10.955,0,0,1-.329,2.814Z" transform="translate(-6874.914 -2111.465)" fill="#28272b"/>
          <path id="Trazado_5227" data-name="Trazado 5227" d="M6994.661,2178.56A12.982,12.982,0,0,1,7006,2159.286h0a12.975,12.975,0,0,1,12.969,12.98h0a12.93,12.93,0,0,1-1.628,6.294h4.135a16.72,16.72,0,0,0-15.473-23.014H7006a16.711,16.711,0,0,0-16.7,16.718h0a16.667,16.667,0,0,0,1.231,6.295Z" transform="translate(-6872.005 -2111.369)" fill="#151818"/>
          <path id="Trazado_5521" data-name="Trazado 5521" d="M6875.021,2167.187s10.2-39.381,16.63-44.533c3.44-2.758,9.576-6.1,10.765-6.34,33.3-5.629,115.109-5.234,128.293,2.639,11.977,7.152,19.94,52.322,16.955,52.216-1.481-.052-83.932-2.259-113.4-2.7C6903.669,2168.02,6875.188,2168.165,6875.021,2167.187Z" transform="translate(-6875.021 -2112.505)" fill="#cad4e9" opacity="0.62"/>
        </g>
        <g id="Grupo_3097" data-name="Grupo 3097">
          <path id="Rectángulo_1250" data-name="Rectángulo 1250" d="M7040.1,2260.018h31.952v24.907a3.555,3.555,0,0,1-3.552,3.557h-24.847a3.555,3.555,0,0,1-3.552-3.557v-24.907Z" transform="translate(-6835.701 -2106.223)"/>
          <path id="Rectángulo_1251" data-name="Rectángulo 1251" d="M6877.962,2288.483h-24.845a3.554,3.554,0,0,1-3.552-3.555v-24.909h31.95v24.909a3.553,3.553,0,0,1-3.552,3.555Z" transform="translate(-6840.731 -2106.224)"/>
          <path id="Trazado_5006" data-name="Trazado 5006" d="M7058.118,2172.607s-17.335-50.089-22.033-53.994c-5.286-4.394-38.8-8.434-72.68-8.434s-67.392,4.046-72.682,8.434c-4.7,3.9-22.032,53.993-22.032,53.993s-22.119,18.714-22.119,37.163v52.185a9.332,9.332,0,0,0,9.438,9.225h214.757a9.333,9.333,0,0,0,9.483-9.179v-52.233C7080.237,2191.32,7058.118,2172.607,7058.118,2172.607Zm-12.564-7.6a5.6,5.6,0,0,1-5.231,2.265,729.965,729.965,0,0,0-153.836,0,5.6,5.6,0,0,1-5.767-7.945c5.588-11.857,11.5-35.013,13.582-36.765,4.284-3.611,35.4-7.813,69.1-7.813s64.819,4.2,69.1,7.813c2.079,1.752,7.994,24.908,13.581,36.766a5.606,5.606,0,0,1-.54,5.679Z" transform="translate(-6840.81 -2110.179)" fill="#ea4a49"/>
          <path id="Trazado_5008" data-name="Trazado 5008" d="M7025.084,2213.8l5.881-15.171a5.6,5.6,0,0,1,3.99-3.439c6.192-1.4,20.367-4.3,24.123-2.395,4.664,2.371,7.234,13.538,7.234,13.538C7055.688,2209.688,7040.809,2212.217,7025.084,2213.8Z" transform="translate(-6836.098 -2108.014)" fill="#fff"/>
          <path id="Trazado_5009" data-name="Trazado 5009" d="M7053.883,2248.939a8.495,8.495,0,1,1-8.5-8.5h0A8.5,8.5,0,0,1,7053.883,2248.939Z" transform="translate(-6835.786 -2106.74)" fill="#cf3736"/>
          <path id="Trazado_5010" data-name="Trazado 5010" d="M6841.548,2153.719c1.866-2.08,16.031-1.632,19.611-.673s9.743,13.917,9.743,13.917h0c-1.275,2.78-2.062,4.532-2.062,4.532s-1.128.957-2.868,2.645h0a73.39,73.39,0,0,1-15.741-4.222C6841.478,2166.422,6839.871,2155.6,6841.548,2153.719Z" transform="translate(-6840.958 -2109.069)" fill="#cf3736"/>
          <path id="Trazado_5011" data-name="Trazado 5011" d="M6896.77,2213.8l-5.881-15.171a5.6,5.6,0,0,0-3.992-3.439c-6.192-1.4-20.367-4.3-24.124-2.395-4.664,2.371-7.234,13.538-7.234,13.538C6866.17,2209.688,6881.049,2212.217,6896.77,2213.8Z" transform="translate(-6840.573 -2108.014)" fill="#fff"/>
          <path id="Trazado_5012" data-name="Trazado 5012" d="M6961.7,2243.414h-50.386v9.492c0,5.271,1.93,10.014,10.006,10.014h80.76c8.074,0,10.007-4.744,10.007-10.014v-9.492Z" transform="translate(-6839.101 -2106.662)" fill="#cf3736"/>
          <path id="Trazado_5013" data-name="Trazado 5013" d="M6867.352,2248.939a8.5,8.5,0,1,0,8.5-8.5h0A8.5,8.5,0,0,0,6867.352,2248.939Z" transform="translate(-6840.262 -2106.74)" fill="#cf3736"/>
          <path id="Trazado_5014" data-name="Trazado 5014" d="M7020.045,2204.26a3,3,0,0,0-2.629-1.556H6906.391a3,3,0,0,0-2.534,4.608c4.365,6.891,14.658,19.074,32.853,19.074H6987.1c18.191,0,28.489-12.183,32.853-19.074A3,3,0,0,0,7020.045,2204.26Z" transform="translate(-6839.31 -2107.736)" fill="#cf3736"/>
        </g>
      </g>
    </g>
  </g>
</svg>
