<svg xmlns="http://www.w3.org/2000/svg" width="290.184" height="251.072" viewBox="0 0 290.184 251.072">
  <g id="Grupo_7569" data-name="Grupo 7569" transform="translate(-69 -134.884)" opacity="0.8">
    <g id="Grupo_6696" data-name="Grupo 6696" transform="translate(265.97 143.248)">
      <ellipse id="Elipse_631" data-name="Elipse 631" cx="45.741" cy="6.981" rx="45.741" ry="6.981" transform="translate(0 225.205)" fill="#597fb5" opacity="0.1"/>
      <g id="Grupo_7504" data-name="Grupo 7504" transform="translate(16.823 0)">
        <g id="Grupo_7519" data-name="Grupo 7519" transform="translate(0)">
          <g id="Grupo_7518" data-name="Grupo 7518" transform="translate(0)">
            <g id="Grupo_7513" data-name="Grupo 7513">
              <g id="Grupo_7512" data-name="Grupo 7512">
                <g id="Grupo_7504-2" data-name="Grupo 7504" transform="translate(44.793 203.302)">
                  <path id="Trazado_12748" data-name="Trazado 12748" d="M1222.061-745.692s1.813,4.09,2.5,6.452c1.9,1.67,5.527-3.86,5.527-3.86s-3.021-3.626-3.194-6.133C1223.1-746.381,1222.061-745.692,1222.061-745.692Z" transform="translate(-1218.15 749.233)" fill="#fac1ad"/>
                  <path id="Trazado_12749" data-name="Trazado 12749" d="M1220.852-734.738s.76,3.456-4.451,5.3c.2,3.8.6,6.7,0,8.128s-7.054,1.774-6.364,7.417c.231.808.461,1.5.461,1.5s5.963.439,10.24-2.015a14.655,14.655,0,0,0,3.925-8.958c.079-3.145,1.638-6.133,1.638-6.905C1226.3-731.889,1220.852-734.738,1220.852-734.738Z" transform="translate(-1209.985 739.432)" fill="#1f3b89"/>
                  <path id="Trazado_12750" data-name="Trazado 12750" d="M1219.739-710.036a14.669,14.669,0,0,0,3.925-8.961c.079-3.143,1.639-6.131,1.639-6.9,0,0,0-.01,0-.017.644.573,1.1,1.141,1.1,1.607,0,.772-1.559,3.76-1.638,6.905a14.654,14.654,0,0,1-3.924,8.958c-4.277,2.454-10.24,2.015-10.24,2.015s-.231-.689-.461-1.5c0-.024,0-.043,0-.068C1211.78-707.961,1216.3-708.065,1219.739-710.036Z" transform="translate(-1210.087 733.467)" fill="#fff"/>
                </g>
                <g id="Grupo_7505" data-name="Grupo 7505" transform="translate(0 211.215)">
                  <path id="Trazado_12751" data-name="Trazado 12751" d="M1122.7-724.793s-1.612,6.566-2.879,8.638c2.187,2.3,6.679,1.384,6.679,1.384s.46-6.91,1.15-9.1C1126.732-724.907,1122.7-724.793,1122.7-724.793Z" transform="translate(-1104.228 724.797)" fill="#fac1ad"/>
                  <path id="Trazado_12752" data-name="Trazado 12752" d="M1094.082-700.689s1.842,3.614.461,10.609c-3.111,1.643-16.065,3.8-22.283,2.075-1.642-1.643.257-4.837,3.886-5.357s10.653-5.959,11.114-7.859C1088.67-700.27,1090.684-699.469,1094.082-700.689Z" transform="translate(-1071.664 708.856)" fill="#1f3b89"/>
                  <path id="Trazado_12753" data-name="Trazado 12753" d="M1071.991-671.649a1.072,1.072,0,0,0,.757.6c6.116,1.7,18.74-.362,22.113-1.99-.079.638-.178,1.306-.318,2.015-3.11,1.643-16.065,3.8-22.283,2.075A2.225,2.225,0,0,1,1071.991-671.649Z" transform="translate(-1071.664 689.801)" fill="#fff"/>
                </g>
                <g id="Grupo_7509" data-name="Grupo 7509" transform="translate(7.504)">
                  <path id="Trazado_12754" data-name="Trazado 12754" d="M1113.923-1359.06s-12.435.4-12.435,13.187c-.173,4.318,3.1,11.575,3.45,14.683s-15.049,17.942-8.458,31.44c-.174,14.681,11.572,26.775,11.572,26.775l19-11.4,1.813,6.564a20.691,20.691,0,0,0,13.906-10.709c3.283-3.973,6.91-13.474,2.591-19.865s-2.073-8.637-2.937-12.438-3.281-6.91-4.318-11.4-.077-20.4-4.009-25.7C1129.172-1364.573,1113.923-1359.06,1113.923-1359.06Z" transform="translate(-1094.838 1366.33)" fill="#421820"/>
                  <path id="Trazado_12755" data-name="Trazado 12755" d="M1155.141-1282.386a17.477,17.477,0,0,0-.864,6.65c.172,4.06,1.209,6.651,4.75,8.81-2.505,9.673-6.651,14.337-13.645,12.869s-5.874-13.041-5.874-13.041a14.405,14.405,0,0,0,4.75-2.678c1.987-1.815,1.037-7.169.519-9.069S1155.141-1282.386,1155.141-1282.386Z" transform="translate(-1124.997 1313.035)" fill="#fac1ad"/>
                  <g id="Grupo_7508" data-name="Grupo 7508" transform="translate(2.817)">
                    <path id="Trazado_12756" data-name="Trazado 12756" d="M1119.825-1333.336s-2.3,11.632,0,16.122,6.449,6.219,8.177,6.335,13.7-2.418,16.007-10.711c2.763,1.267,5.592-1.727,5.733-4.49a2.308,2.308,0,0,0-.017-.4c-.331-2.515-4.972-3.838-6.177-1.1-.461-6.679-6.563-10.364-10.364-10.594S1119.825-1333.336,1119.825-1333.336Z" transform="translate(-1113.858 1350.76)" fill="#fac1ad"/>
                    <g id="Grupo_7506" data-name="Grupo 7506" transform="translate(6.183 24.248)">
                      <path id="Trazado_12757" data-name="Trazado 12757" d="M1122.844-1300a2.069,2.069,0,0,1,2.061-1.938,2.07,2.07,0,0,1,2.062,1.938h.213a2.281,2.281,0,0,0-2.275-2.152,2.283,2.283,0,0,0-2.276,2.152Z" transform="translate(-1122.629 1302.151)" fill="#50030e"/>
                    </g>
                    <g id="Grupo_7507" data-name="Grupo 7507" transform="translate(16.302 24.248)">
                      <path id="Trazado_12758" data-name="Trazado 12758" d="M1154.092-1300a2.068,2.068,0,0,1,2.061-1.938,2.069,2.069,0,0,1,2.06,1.938h.215a2.283,2.283,0,0,0-2.275-2.152,2.283,2.283,0,0,0-2.277,2.152Z" transform="translate(-1153.876 1302.151)" fill="#50030e"/>
                    </g>
                    <path id="Trazado_12759" data-name="Trazado 12759" d="M1126.96-1307.312a5.824,5.824,0,0,0-.855-.292,4.541,4.541,0,0,0-.878-.146,3.189,3.189,0,0,0-.977.09,2.654,2.654,0,0,0-.472.156l-.433.223a4.779,4.779,0,0,0-.7.549,5.771,5.771,0,0,0-.461.461c-.117.114-.182.179-.182.179s.034-.086.1-.233a2.933,2.933,0,0,1,.334-.59,3.646,3.646,0,0,1,.662-.72,5.559,5.559,0,0,1,.479-.3,3.337,3.337,0,0,1,.553-.2,2.968,2.968,0,0,1,2.073.276A2.675,2.675,0,0,1,1126.96-1307.312Z" transform="translate(-1116.021 1330.5)" fill="#50030e"/>
                    <path id="Trazado_12760" data-name="Trazado 12760" d="M1153.246-1306.521a2.684,2.684,0,0,1,.756-.548,2.968,2.968,0,0,1,2.072-.275,3.192,3.192,0,0,1,.553.2c.175.086.325.2.481.3a3.612,3.612,0,0,1,.662.72,2.97,2.97,0,0,1,.333.59c.07.147.1.233.1.233l-.182-.179a5.553,5.553,0,0,0-.462-.461,4.515,4.515,0,0,0-.7-.549c-.139-.073-.284-.148-.432-.223a2.776,2.776,0,0,0-.471-.155,3.2,3.2,0,0,0-.978-.09,4.45,4.45,0,0,0-.878.147A5.607,5.607,0,0,0,1153.246-1306.521Z" transform="translate(-1137.148 1329.966)" fill="#50030e"/>
                    <path id="Trazado_12761" data-name="Trazado 12761" d="M1133.441-1275.135s5.463.652,7.338,0c-1.345,3.261-3.854,3.824-5.065,2.642A23.616,23.616,0,0,1,1133.441-1275.135Z" transform="translate(-1123.757 1308.132)" fill="#fff"/>
                    <path id="Trazado_12762" data-name="Trazado 12762" d="M1139.293-1353.472s7.176-15.551-4.544-18.661c-4.084-7.8-18.683-5.361-26.27.9-9.037,7.457-3.452,18.032-.689,19.529-.346-.805-.476-5.252,3.093-4.676s13.82.345,15.318-3.916c-.461,2.649-3.935,5.758-4.961,5.758a8.518,8.518,0,0,0,7.034-3.684c-.922,3.109,1.037,5.869,4.607,7.426.229-1.553,1.136-4.016,3.641-4.273C1137.9-1355.243,1139.293-1353.472,1139.293-1353.472Z" transform="translate(-1103.535 1377.028)" fill="#421820"/>
                  </g>
                </g>
                <g id="Grupo_7510" data-name="Grupo 7510" transform="translate(12.896 95.167)">
                  <path id="Trazado_12763" data-name="Trazado 12763" d="M1115.8-1081.282s-5.47,33.511-4.087,49.4c.689,9.674,7.308,19.668,14.451,27.58s21.868,36.586,22.56,37.506a7.177,7.177,0,0,0,4.63-3.687c-3.85-9.592-7.439-29.443-12.449-36.178s-13.631-16.094-14.494-19.2,5.757-42.436,5.745-46.613S1115.8-1081.282,1115.8-1081.282Z" transform="translate(-1111.486 1081.887)" fill="#f2ae99"/>
                  <path id="Trazado_12764" data-name="Trazado 12764" d="M1129.625-1083.152s-4.319,22.025,10.537,29.8c3.455-7.6,5.931-26.142,5.931-26.142Z" transform="translate(-1123.356 1083.152)" fill="#223c99"/>
                  <path id="Trazado_12765" data-name="Trazado 12765" d="M1151.635-1083.152s2.85,5.873,5.268,9.76,1.987,13.128-1.468,23.147-10.239,21.917-11.365,27.1.04,18.011-3.185,30.678c-1.553,6.1-3.944,12.825-6.266,19.417-2.5,7.094-4.261,14.114-4.261,14.114s-3.662-3.245-5.043-4.167c1.537-5.908,5.82-45.681,5.59-51.67s1.844-15.662,2.534-18.656,2.534-21.651,1.843-23.493S1137.24-1075,1143-1080.3C1144.841-1080.762,1151.635-1083.152,1151.635-1083.152Z" transform="translate(-1120.837 1083.152)" fill="#fac1ad"/>
                </g>
                <g id="Grupo_7511" data-name="Grupo 7511" transform="translate(5.889 44.699)">
                  <path id="Trazado_12766" data-name="Trazado 12766" d="M1196.276-1204.111a24.217,24.217,0,0,0-3.541,7.688c-4.058-.69-8.031-8.292-7.773-12.525s3.63-9.24,4.017-10.018S1196.276-1204.111,1196.276-1204.111Z" transform="translate(-1154.153 1225.473)" fill="#f2b9a7"/>
                  <path id="Trazado_12767" data-name="Trazado 12767" d="M1090.748-1215.366c.181-.661.976-16.365,7.367-18.5a69.008,69.008,0,0,1,9.156-2.648s-7.643,19.9-10.967,31.174c-.254.08-6.406-6.721-6.455-6.779C1090.222-1213.449,1090.537-1214.594,1090.748-1215.366Z" transform="translate(-1089.85 1237.316)" fill="#fac1ad"/>
                  <path id="Trazado_12768" data-name="Trazado 12768" d="M1112.525-1237.579c1.959-.706,3.593-1.171,3.593-1.171s-2.268,7.957,2.108,11.182C1125.712-1226.532,1133-1239,1133-1239a37,37,0,0,1,6.67,1.818c-7.314,6.625-8.935,18.978-1.4,25.325-1,4.966-2.988,16.98-.66,24.679-10.133,8.753-29.135,2.189-29.135,2.189s.777-15.86-.345-21.652c-.691-3.569-4.25-8.66-5.139-11.745C1102.005-1221.955,1106.969-1231.341,1112.525-1237.579Z" transform="translate(-1098.646 1238.998)" fill="#ff2c55"/>
                </g>
              </g>
            </g>
            <path id="Trazado_12769" data-name="Trazado 12769" d="M1133.261-1093.822s-14.634,5.068-28.016,0c-3.337,12.848-7.067,34.7-7.48,47.954,6.835,6.421,14.959,10.985,25.4,7.357s15.418-3.006,20.383-2.178,11-2.485,10.883-6.835S1143.283-1089.375,1133.261-1093.822Z" transform="translate(-1089.313 1185.534)" fill="#1f3b89"/>
            <g id="Grupo_7517" data-name="Grupo 7517" transform="translate(26.398 44.954)">
              <g id="Grupo_7514" data-name="Grupo 7514">
                <path id="Trazado_12770" data-name="Trazado 12770" d="M1155.564-1217.616c2.991-12.907,8.591-19.305,12.958-20.6l4,1c-3.114-.058-10.948,4.663-14.537,20.157-4.139,17.859-2.647,40.705,3.449,53.463,13.258,4.588,26.453-3.6,29.584-5.75-1.908-6.122-12.746-41.208-13.868-51.8l2.471-.262c1.179,11.131,13.909,51.77,14.037,52.179l.26.828-.685.529c-.534.411-10.767,8.168-23.308,8.168a28.217,28.217,0,0,1-9.816-1.724l-.464-.171-.219-.443C1152.923-1175.161,1151.263-1199.052,1155.564-1217.616Z" transform="translate(-1153.181 1238.211)" fill="#ffc127"/>
              </g>
              <g id="Grupo_7515" data-name="Grupo 7515" transform="translate(14.376 1.455)">
                <path id="Trazado_12771" data-name="Trazado 12771" d="M1208.591-1190.738a22.621,22.621,0,0,1-1.3-3.81c-.579-2.606-3.479-11.406-4.58-15.879-.212-.86-4.658-13.055-4.762-13.342-1.382-3.8,1.2-11.128,5.974-9.788,4.879,1.369,7.223,20.13,7.423,21.178.716,3.756,2.551,12.76,4.352,16.451.037.077.327.84.559,1.611a2.749,2.749,0,0,1-.084,1.634C1215.848-1192.035,1208.591-1190.738,1208.591-1190.738Z" transform="translate(-1197.576 1233.719)" fill="#fac1ad"/>
                <path id="Trazado_12772" data-name="Trazado 12772" d="M1255.084-1112.047a2.748,2.748,0,0,1-.084,1.634" transform="translate(-1236.404 1151.448)" fill="#fac1ad"/>
              </g>
              <g id="Grupo_7516" data-name="Grupo 7516" transform="translate(3.502 59.423)">
                <path id="Trazado_12773" data-name="Trazado 12773" d="M1198.041-1054.713,1164-1045s-.559,24.053,8.307,35.324c15.39,7.233,36.584-11.114,37.826-14.532C1211.931-1034.124,1198.041-1054.713,1198.041-1054.713Z" transform="translate(-1163.995 1054.713)" fill="#f2ae16"/>
                <path id="Trazado_12774" data-name="Trazado 12774" d="M1198.056-1054.713,1164.017-1045s3.576,18.859,12.442,30.13c15.39,7.233,32.448-5.92,33.691-9.337C1211.946-1034.124,1198.056-1054.713,1198.056-1054.713Z" transform="translate(-1164.01 1054.713)" fill="#ffc127"/>
                <path id="Trazado_12775" data-name="Trazado 12775" d="M1171.377-1044.342s9.353,5.024,13.392,15.121c2.33,4.816,14.327,1.41,21.454-3.567s10.069-6.685,9.064-9.481-8.723-11.141-14.65-10.425S1172.665-1046.337,1171.377-1044.342Z" transform="translate(-1168.986 1053.377)" fill="#f2ae16"/>
              </g>
            </g>
          </g>
        </g>
        <g id="Grupo_7527" data-name="Grupo 7527" transform="translate(2.373 62.815)">
          <g id="Grupo_7525" data-name="Grupo 7525" transform="translate(0 0)">
            <path id="Trazado_12776" data-name="Trazado 12776" d="M1094.457-1176.161l-3.737-6.894h-11.367l-.36.684,9.622,16,10.893.525Z" transform="translate(-1078.993 1183.055)" fill="#455a64"/>
            <path id="Trazado_12777" data-name="Trazado 12777" d="M1094.1-1174.049l-3.737-6.894h-11.367l9.262,16.682,10.893.525Z" transform="translate(-1078.993 1181.627)" fill="#263238"/>
            <g id="Grupo_7524" data-name="Grupo 7524" transform="translate(0.833 3.372)">
              <path id="Trazado_12778" data-name="Trazado 12778" d="M1082.32-1172.641s-1.189.415-.584,1.942a13.03,13.03,0,0,0,2.412,3.819,1.4,1.4,0,0,0,.473,1.368s-.842.211-.316,1.631a1.6,1.6,0,0,0,1,2.1s-.421,1.21,1.1,1.789a3.592,3.592,0,0,0,3-.422Z" transform="translate(-1081.565 1172.641)" fill="#fac1ad"/>
              <path id="Trazado_12779" data-name="Trazado 12779" d="M1091.2-1155.21c1.08.291,2.267.524,3.267.9.329.125.654.131.872.407a.751.751,0,0,1,.019.964,1.048,1.048,0,0,1-.879.177,15.536,15.536,0,0,1-3.349-.928" transform="translate(-1088.032 1160.855)" fill="#fac1ad"/>
              <path id="Trazado_12780" data-name="Trazado 12780" d="M1092.53-1149.642c1.08.292,2.267.524,3.266.9.328.125.655.131.873.407a.75.75,0,0,1,.019.963,1.049,1.049,0,0,1-.879.177,15.511,15.511,0,0,1-3.349-.928" transform="translate(-1088.932 1157.09)" fill="#fac1ad"/>
              <path id="Trazado_12781" data-name="Trazado 12781" d="M1094.427-1143.912c1.081.291,2.268.524,3.267.9.329.125.654.131.872.407a.75.75,0,0,1,.019.963,1.049,1.049,0,0,1-.879.178,15.529,15.529,0,0,1-3.349-.928" transform="translate(-1090.214 1153.216)" fill="#fac1ad"/>
              <g id="Grupo_7520" data-name="Grupo 7520" transform="translate(3.162 7.2)">
                <path id="Trazado_12782" data-name="Trazado 12782" d="M1091.328-1150.4c.018-.046.781.221,1.738.487s1.747.435,1.739.484a6.525,6.525,0,0,1-1.784-.321A6.523,6.523,0,0,1,1091.328-1150.4Z" transform="translate(-1091.328 1150.406)" fill="#f2b9a7"/>
              </g>
              <g id="Grupo_7521" data-name="Grupo 7521" transform="translate(2.961 8.792)">
                <path id="Trazado_12783" data-name="Trazado 12783" d="M1090.708-1145.487c.017-.045.89.244,1.977.562a20.5,20.5,0,0,1,1.968.6,9.127,9.127,0,0,1-2.015-.434A9.093,9.093,0,0,1,1090.708-1145.487Z" transform="translate(-1090.708 1145.491)" fill="#f2b9a7"/>
              </g>
              <g id="Grupo_7522" data-name="Grupo 7522" transform="translate(3.67 10.835)">
                <path id="Trazado_12784" data-name="Trazado 12784" d="M1092.9-1139.174a10.716,10.716,0,0,1,1.857.377,10.646,10.646,0,0,1,1.816.541,10.764,10.764,0,0,1-1.857-.377A10.684,10.684,0,0,1,1092.9-1139.174Z" transform="translate(-1092.898 1139.182)" fill="#f2b9a7"/>
              </g>
              <g id="Grupo_7523" data-name="Grupo 7523" transform="translate(2.268 5.42)">
                <path id="Trazado_12785" data-name="Trazado 12785" d="M1088.57-1155.9c.017-.046.974.278,2.178.587s2.2.494,2.19.542a2.38,2.38,0,0,1-.663-.055,15.771,15.771,0,0,1-1.569-.324,15.645,15.645,0,0,1-1.529-.477A2.4,2.4,0,0,1,1088.57-1155.9Z" transform="translate(-1088.57 1155.905)" fill="#f2b9a7"/>
              </g>
            </g>
            <path id="Trazado_12786" data-name="Trazado 12786" d="M1096.366-1174.128a.571.571,0,0,0,.8-.088.571.571,0,0,0-.089-.8.571.571,0,0,0-.8.088A.571.571,0,0,0,1096.366-1174.128Z" transform="translate(-1090.595 1177.706)" fill="#ebebeb"/>
          </g>
          <g id="Grupo_7526" data-name="Grupo 7526" transform="translate(46.592 17.5)">
            <path id="Trazado_12787" data-name="Trazado 12787" d="M1222.869-1129.012a.807.807,0,0,1,.262.029,5.484,5.484,0,0,1,.7.177,7.986,7.986,0,0,1,2.122,1.046,7.983,7.983,0,0,1,1.722,1.621,5.516,5.516,0,0,1,.409.589.8.8,0,0,1,.119.235c-.024.016-.23-.295-.62-.749a9.348,9.348,0,0,0-1.726-1.559,9.372,9.372,0,0,0-2.064-1.071C1223.226-1128.9,1222.863-1128.984,1222.869-1129.012Z" transform="translate(-1222.869 1129.017)" fill="#f2b9a7"/>
          </g>
        </g>
        <path id="Trazado_12788" data-name="Trazado 12788" d="M1138.652-1161.119c-4.23-.975-7.468-6.066-9.106-6.859-1.216-.592-2.632,5.471-5.546,9.681a8.924,8.924,0,0,1,5.505.648c1.219,1.094,3.735,1.076,5.726,1.143s5.418,2.072,12.014,6.291a41.908,41.908,0,0,0,11.982,5.33s6,1.539,7.246-2.4c1.423-4.486-4.477-6.007-4.477-6.007C1155.951-1155.389,1144.21-1159.517,1138.652-1161.119Z" transform="translate(-1107.052 1235.703)" fill="#fac1ad"/>
        <path id="Trazado_12789" data-name="Trazado 12789" d="M1118.178-1165.478l-1.636-2.03a5.675,5.675,0,0,0-4.418-2.114H1110.7a6.513,6.513,0,0,0-2,.543l.343.632s-.882.011-.916.017c-2.081.147-5.471.476-5.649,1.072l-.007.278,0,.163,5.982.4s-5.089-.016-5.393,0c-.335.012-1.42-.085-1.4.512.018.491.6.878,1.479,1.007.362.053,4.77.436,4.77.436s-4.628-.044-4.852-.045c-.544,0-.475.87-.152.979.256.086,6.47,1.9,6.47,1.9a3.77,3.77,0,0,1-1.9.64c-.853-.061-2.315-1.158-2.62-.64s-.244.823-.061.945a21.714,21.714,0,0,0,2.864,1.34c.67.183,6.142,1.049,6.142,1.049l1.975.318Z" transform="translate(-1091.939 1236.787)" fill="#fac1ad"/>
        <g id="Grupo_7528" data-name="Grupo 7528" transform="translate(16.128 68.269)">
          <path id="Trazado_12790" data-name="Trazado 12790" d="M1121.469-1166.114a21.608,21.608,0,0,1,2.7-.1,21.637,21.637,0,0,1,2.7.07,21.634,21.634,0,0,1-2.7.1A21.608,21.608,0,0,1,1121.469-1166.114Z" transform="translate(-1121.469 1166.214)" fill="#f2b9a7"/>
        </g>
      </g>
    </g>
    <g id="Grupo_6723" data-name="Grupo 6723" transform="translate(163.753 134.884)">
      <ellipse id="Elipse_634" data-name="Elipse 634" cx="57.004" cy="8.192" rx="57.004" ry="8.192" transform="translate(0 234.689)" fill="#597fb5" opacity="0.1"/>
      <ellipse id="Elipse_635" data-name="Elipse 635" cx="21.528" cy="21.255" rx="21.528" ry="21.255" transform="matrix(-0.105, -0.995, 0.995, -0.105, 36.664, 115.335)" fill="#7c3711"/>
      <g id="Grupo_6722" data-name="Grupo 6722" transform="translate(17.515)">
        <g id="Grupo_6721" data-name="Grupo 6721">
          <g id="Grupo_6704" data-name="Grupo 6704" transform="translate(6.538 112.356)">
            <g id="Grupo_6699" data-name="Grupo 6699" transform="translate(3.527)">
              <path id="Trazado_11680" data-name="Trazado 11680" d="M131.643,103.687s-3.644,13.294-4.184,20.446-5.06,26.418-6.174,29.961-5.87,11.639-6.579,22.47,0,35.123,0,35.123,3.848,3.543,7.289,0c0,0,5.769-25.405,8.5-34.515a199.515,199.515,0,0,1,8.2-21.864c1.823-4.149,7.794-28.036,7.794-28.036l1.721.3s-.81,19.434,0,24.09,3.542,10.528,2.733,16.195.1,16.094,1.113,25.3,3.138,23.28,3.138,23.28a7.518,7.518,0,0,0,8-1.113s3.036-46.358,3.441-50.71-.911-20.041-.81-28.645-.132-30.264-3.1-34.919C162.719,101.056,145.442,102.27,131.643,103.687Z" transform="translate(-114.391 -101.056)" fill="#1f3b89"/>
              <g id="Grupo_6697" data-name="Grupo 6697" transform="translate(1.423 1.989)">
                <path id="Trazado_11681" data-name="Trazado 11681" stroke="#0a2d72" d="M133.013,102.761s-1.37,10.21-2.8,19.13-6.318,29.569-5.764,31.054.689,2.7-.8,2.969-2.429,1.485-1.08,1.889-1.484,3.24-2.024,4.454a65.374,65.374,0,0,0-4.049,19.03c-.675,10.121-1.119,30.434-1.119,30.434" fill="none" transform="translate(-115.382 -102.301)" stroke-linecap="round" stroke-linejoin="round" stroke-width="0.485" stroke-dasharray="2.424 1.939"/>
                <path id="Trazado_11682" data-name="Trazado 11682" d="M133.026,102.441s-.678,11.1-1.686,11.573-4.966,1.836-4.966,1.836" transform="translate(-110.587 -102.441)" fill="none" stroke="#0a2d72" stroke-linecap="round" stroke-linejoin="round" stroke-width="0.485"/>
              </g>
              <g id="Grupo_6698" data-name="Grupo 6698" transform="translate(33.163 0.557)">
                <path id="Trazado_11683" data-name="Trazado 11683" d="M141.135,101.666s1.894,14.779.679,17.342-4.333,8.184-4.333,8.184" transform="translate(-137.481 -101.347)" fill="none" stroke="#0a2d72" stroke-linecap="round" stroke-linejoin="round" stroke-width="0.485"/>
                <path id="Trazado_11684" data-name="Trazado 11684" d="M143.8,101.444s1.472,13.775,0,14.84-3.157,2.134-3.157,2.134" transform="translate(-136.103 -101.444)" fill="none" stroke="#0a2d72" stroke-linecap="round" stroke-linejoin="round" stroke-width="0.485"/>
              </g>
              <path id="Trazado_11685" data-name="Trazado 11685" d="M136.364,119.542s6.747-2.666,11.741-4.016" transform="translate(-104.806 -94.744)" fill="none" stroke="#0a2d72" stroke-linecap="round" stroke-linejoin="round" stroke-width="0.485"/>
              <path id="Trazado_11686" data-name="Trazado 11686" d="M141.055,118.768a26.27,26.27,0,0,1,10.032-1.418" transform="translate(-102.759 -93.97)" fill="none" stroke="#0a2d72" stroke-linecap="round" stroke-linejoin="round" stroke-width="0.485"/>
              <path id="Trazado_11687" data-name="Trazado 11687" d="M145.011,101.278s1.346,8.722,2.561,9.4,4.168,1.823,4.168,1.823" transform="translate(-101.034 -100.959)" fill="none" stroke="#0a2d72" stroke-linecap="round" stroke-linejoin="round" stroke-width="0.485"/>
              <path id="Trazado_11688" data-name="Trazado 11688" stroke="#0a2d72" d="M139.131,117.3s.885,25.255,1.9,28.358,4.725,7.692,4.083,8.5-3.779,1.08-2.953,2.024,2.312,3.24,1.772,5.129,3.647,48.73,3.647,48.73" fill="none" transform="translate(-103.599 -93.97)" stroke-linecap="round" stroke-linejoin="round" stroke-width="0.485" stroke-dasharray="2.424 1.939"/>
            </g>
            <g id="Grupo_6701" data-name="Grupo 6701" transform="translate(0 109.085)">
              <path id="Trazado_11689" data-name="Trazado 11689" d="M114.968,177.753s-2.126,8.3-2.835,12.146.71,9.542.71,9.542,12.146,2.355,18.523,0c0,0,3.036-6.3,0-8.531a19.086,19.086,0,0,0-5.664-2.934s-1.017-9.617-2.737-10.223S116.384,176.436,114.968,177.753Z" transform="translate(-111.935 -177.008)" fill="#df4370"/>
              <g id="Grupo_6700" data-name="Grupo 6700" transform="translate(4.146 3.938)">
                <path id="Trazado_11690" data-name="Trazado 11690" d="M114.822,180.606s4.814-1.925,8.479,0" transform="translate(-114.822 -179.75)" fill="none" stroke="#eedbff" stroke-linecap="round" stroke-linejoin="round" stroke-width="0.97"/>
                <path id="Trazado_11691" data-name="Trazado 11691" d="M115.382,182.723s4.956-1.666,8.4,0" transform="translate(-114.578 -178.777)" fill="none" stroke="#eedbff" stroke-linecap="round" stroke-linejoin="round" stroke-width="0.97"/>
              </g>
              <path id="Trazado_11692" data-name="Trazado 11692" d="M132.286,190.717c-6.979,1.264-16.848,0-20.139-.326.264,1.844.6,3.213.6,3.213s12.146,2.355,18.523,0A17,17,0,0,0,132.286,190.717Z" transform="translate(-111.843 -171.171)" fill="#f6eeff"/>
              <path id="Trazado_11693" data-name="Trazado 11693" d="M113.483,191.369s13.328,2.506,18.534,0a4.046,4.046,0,0,0-1.327-3.746,19.086,19.086,0,0,0-5.664-2.934S113.483,182.967,113.483,191.369Z" transform="translate(-111.26 -173.721)" fill="#f6eeff"/>
            </g>
            <g id="Grupo_6703" data-name="Grupo 6703" transform="translate(43.282 112.966)">
              <path id="Trazado_11694" data-name="Trazado 11694" d="M143.151,180.963s-.608,8.3-.911,10.627-.3,5.191.911,6.036,29.151.745,29.151.745,1.923-4.757,0-7.187-7.49-3.239-11.741-3.542l-9.982-7.582A9.931,9.931,0,0,0,143.151,180.963Z" transform="translate(-142.071 -179.711)" fill="#df4370"/>
              <g id="Grupo_6702" data-name="Grupo 6702" transform="translate(7.602 2.984)">
                <path id="Trazado_11695" data-name="Trazado 11695" d="M147.364,185.19s2.982-4.363,5.59-3.206" transform="translate(-147.364 -181.789)" fill="none" stroke="#eedbff" stroke-linecap="round" stroke-linejoin="round" stroke-width="0.97"/>
                <path id="Trazado_11696" data-name="Trazado 11696" d="M149.31,187.52s3.413-4.652,5.978-3.886" transform="translate(-146.515 -181.021)" fill="none" stroke="#eedbff" stroke-linecap="round" stroke-linejoin="round" stroke-width="0.97"/>
              </g>
              <path id="Trazado_11697" data-name="Trazado 11697" d="M147.272,187.365c0,1.662-.837,3.009-1.871,3.009s-1.873-1.347-1.873-3.009.837-3.009,1.873-3.009S147.272,185.7,147.272,187.365Z" transform="translate(-141.436 -177.685)" fill="#f6eeff"/>
              <path id="Trazado_11698" data-name="Trazado 11698" d="M172.3,194a13.646,13.646,0,0,0,.826-3.6c-1.731.18-5.435.46-11.757.46-7.853,0-16.713-.865-19.3-1.135.01,1.561.284,2.973,1.077,3.526C144.365,194.1,172.3,194,172.3,194Z" transform="translate(-142.07 -175.34)" fill="#f6eeff"/>
              <path id="Trazado_11699" data-name="Trazado 11699" d="M154.375,191.186s8.274.556,13.565-.247a4.173,4.173,0,0,0-.811-2.163c-1.923-2.429-7.49-3.239-11.741-3.542C155.387,185.234,152.957,188.23,154.375,191.186Z" transform="translate(-136.898 -177.302)" fill="#f6eeff"/>
            </g>
          </g>
          <g id="Grupo_6711" data-name="Grupo 6711" transform="translate(14.733 49.837)">
            <path id="Trazado_11700" data-name="Trazado 11700" d="M139.765,57.64c-.358.057-10.079,3.049-14.634,5.074a23.4,23.4,0,0,0-7.49,5.452s2.733,10.559,5.87,16.616,6.719,16.787,6.345,20.127-1.992,18.623-1.992,18.623,12.349,6.276,21.256,5.061,14.17-8.3,14.17-8.3-3.744-12.349-5.162-16.7a23.957,23.957,0,0,1-.405-13.058c1.013-4.049,3.846-24.393,3.138-28.441C160.861,62.094,153.488,55.413,139.765,57.64Z" transform="translate(-117.641 -57.185)" fill="#f4c27a"/>
            <g id="Grupo_6710" data-name="Grupo 6710" transform="translate(5.822 0.106)" opacity="0.5">
              <g id="Grupo_6709" data-name="Grupo 6709">
                <g id="Grupo_6705" data-name="Grupo 6705" transform="translate(0 6.26)">
                  <path id="Trazado_11701" data-name="Trazado 11701" d="M121.7,61.618s6.729,16.863,8.044,21.721a117.457,117.457,0,0,1,3.273,19.434c.473,6.477,0,21.256,0,21.256" transform="translate(-121.695 -61.618)" fill="none" stroke="#bf8c5e" stroke-miterlimit="10" stroke-width="0.485"/>
                </g>
                <g id="Grupo_6706" data-name="Grupo 6706" transform="translate(8.564 2.819)">
                  <path id="Trazado_11702" data-name="Trazado 11702" d="M127.658,59.222s7.68,24.656,8.893,31.539,1.518,14.575,1.923,20.344-.533,16.366-.533,16.366" transform="translate(-127.658 -59.222)" fill="none" stroke="#bf8c5e" stroke-miterlimit="10" stroke-width="0.485"/>
                </g>
                <g id="Grupo_6707" data-name="Grupo 6707" transform="translate(24.351)">
                  <path id="Trazado_11703" data-name="Trazado 11703" d="M138.65,57.259s.09,29.707.5,35.677,6.413,33.985,6.413,33.985" transform="translate(-138.65 -57.259)" fill="none" stroke="#bf8c5e" stroke-miterlimit="10" stroke-width="0.485"/>
                </g>
                <g id="Grupo_6708" data-name="Grupo 6708" transform="translate(30.367 2.029)">
                  <path id="Trazado_11704" data-name="Trazado 11704" d="M145.173,58.672s-1.805,30.277-2.311,35.436,7.447,27.7,7.447,27.7" transform="translate(-142.839 -58.672)" fill="none" stroke="#bf8c5e" stroke-miterlimit="10" stroke-width="0.485"/>
                </g>
              </g>
            </g>
          </g>
          <path id="Trazado_11705" data-name="Trazado 11705" d="M130.7,58.77a5.531,5.531,0,0,0,4.925,2.335c3.351-.2,4.093-4.352,4.093-4.352s2.031-.722,2.436,2.016-1.939,7.6-5.728,8.1A6.614,6.614,0,0,1,129.2,62.94C128.29,60.7,128.662,57.649,130.7,58.77Z" transform="translate(-98.07 -7.521)" fill="#bf8c5e"/>
          <g id="Grupo_6714" data-name="Grupo 6714" transform="translate(12.798)">
            <path id="Trazado_11706" data-name="Trazado 11706" d="M136.3,30.2c-7.023.019-11.741,5.264-11.2,14.576s1.484,19.165,7.019,19.165a25.489,25.489,0,0,1,0,7.556s3.374,3.922,6.072,2.77a7.2,7.2,0,0,0,3.644-3.984,17.47,17.47,0,0,1-.81-6.342s5.264-.946,6.207-10.528S150.608,30.167,136.3,30.2Z" transform="translate(-112.47 -18.921)" fill="#f7cbad"/>
            <g id="Grupo_6712" data-name="Grupo 6712" transform="translate(19.075 25.319)">
              <path id="Trazado_11707" data-name="Trazado 11707" d="M137.844,42.656a.861.861,0,1,1-.957-.753A.86.86,0,0,1,137.844,42.656Z" transform="translate(-126.716 -39.139)" fill="#ba631c"/>
              <path id="Trazado_11708" data-name="Trazado 11708" d="M131.289,42.949a.86.86,0,1,1-.955-.753A.859.859,0,0,1,131.289,42.949Z" transform="translate(-129.575 -39.011)" fill="#ba631c"/>
              <path id="Trazado_11709" data-name="Trazado 11709" d="M134.017,39.977s1.718,6.693-3.479,8.1a13.634,13.634,0,0,0,3.751,2.556" transform="translate(-129.155 -39.977)" fill="none" stroke="#ba631c" stroke-miterlimit="10" stroke-width="0.525"/>
              <path id="Trazado_11710" data-name="Trazado 11710" d="M130.773,48.792s3.576,4.251,7.692-.405" transform="translate(-129.052 -36.308)" fill="none" stroke="#ba631c" stroke-miterlimit="10" stroke-width="0.525"/>
            </g>
            <path id="Trazado_11711" data-name="Trazado 11711" d="M129.288,53.32c.462-.013,1.458-1.267,1.593-5.518s1.08-7.355,4.049-7.895a43.808,43.808,0,0,1,5.716-.556c-.26.386-.5.764-.717,1.115-.658,1.057-1.227,1.97-1.866,2.209a16.551,16.551,0,0,1-4.309.81,1.619,1.619,0,0,0,.06,3.237h.063a19.608,19.608,0,0,0,5.313-1.01c1.676-.623,2.6-2.1,3.489-3.532a12.7,12.7,0,0,1,2.087-2.73c2.251.224,4.1.786,4.6,1.943,1.283,2.969.987,11.516,2.147,11.425s2.239-9.2,2.442-11.764a12.6,12.6,0,0,0-.362-4.764s1.037-3.467-1.191-5.222-6.612-3.846-7.625-4.454-.945-3.239-1.958-3.711-4.211-1.08-4.2.27,1.682,1.958,2.265,2.766.213,2.3.768,2.5a7.956,7.956,0,0,1-3.033-1.62,6.186,6.186,0,0,0-3.7-1.956c-1.551-.27-3.306-1.013-3.981,0s.771,2.969,1.667,3.171,1.706,1.484,1.235,1.619a3.542,3.542,0,0,1-3.407-.2c-1.79-1.013-2.681-2.5-5.2-2.565s-4.412,1.485-4.007,2.363,2.482.741,4.007.944a19.709,19.709,0,0,1,4.576,1.89,12.756,12.756,0,0,1-3.658-.608c-1.754-.608-4.79-.2-5.465.675s-1.013,2.7.473,3.171,3.776,2.228,4.992,1.823,1.688,1.146.27,1.214-3.711-.434-5.33-.52-5.4,1.667-4.724,2.815,2.361,1.079,4.319,1.214a9.469,9.469,0,0,1,4.049.878c.743.473-.2,1.215-1.418,1.35s-4.994.067-5.094,1.283,2.261,1.956,4.622,1.416,3.846-.473,4.049.338S127.493,53.373,129.288,53.32Z" transform="translate(-116.293 -22.348)" fill="#293342"/>
            <path id="Trazado_11712" data-name="Trazado 11712" d="M128.751,53.079l-1.382-10.411s-2.7-4.175-6.279-1.813S125.345,53.426,128.751,53.079Z" transform="translate(-114.6 -14.591)" fill="#eaad83"/>
            <path id="Trazado_11713" data-name="Trazado 11713" d="M140.076,52.925l1.382-10.41s2.7-4.177,6.279-1.814S143.481,53.272,140.076,52.925Z" transform="translate(-105.919 -14.658)" fill="#eaad83"/>
            <g id="Grupo_6713" data-name="Grupo 6713" transform="translate(19.65 44.912)">
              <path id="Trazado_11714" data-name="Trazado 11714" d="M129.975,53.7a29.634,29.634,0,0,1,.271,5.251,7.276,7.276,0,0,0,4.181,1.092,8.787,8.787,0,0,0,4.643-2.6,15.445,15.445,0,0,1-.19-3.747C133.484,55.452,129.975,53.7,129.975,53.7Z" transform="translate(-129.975 -53.585)" fill="#eaad83"/>
              <path id="Trazado_11715" data-name="Trazado 11715" d="M136.561,53.619c-.122.033-.247.067-.385.112A2.971,2.971,0,0,0,136.561,53.619Z" transform="translate(-127.27 -53.619)" fill="#eaad83"/>
            </g>
            <path id="Trazado_11716" data-name="Trazado 11716" d="M140.535,43.527c.248.583-.378,1.408-1.4,1.843s-2.048.313-2.3-.27.378-1.407,1.4-1.841S140.288,42.944,140.535,43.527Z" transform="translate(-107.354 -13.341)" fill="#bc4681" opacity="0.17"/>
            <path id="Trazado_11717" data-name="Trazado 11717" d="M131.286,45.055c-.145.618-1.137.912-2.217.659s-1.837-.958-1.693-1.576,1.138-.912,2.218-.659S131.43,44.439,131.286,45.055Z" transform="translate(-111.467 -13.17)" fill="#bc4681" opacity="0.17"/>
          </g>
          <g id="Grupo_6717" data-name="Grupo 6717" transform="translate(0 53.343)">
            <path id="Trazado_11718" data-name="Trazado 11718" d="M121.19,64.831a25.266,25.266,0,0,0-3.408,7.019c-1.754,4.992-9.2,28.236-8.179,30.211s8.989-.251,11.587-4.773,7.01-13.48,7.01-13.48Z" transform="translate(-106.457 -57.351)" fill="#dda66b"/>
            <path id="Trazado_11719" data-name="Trazado 11719" d="M127.11,96.84a37.839,37.839,0,0,0,2.432-11.473c.023-5.891-2.13-18.807-5.359-24.19l-1.524.754-.629.323s0-1.077,2.153-2.153,3.229,0,3.229,0,6.459,8.61,7.534,24.756c.8,12.04-7.094,17.015-7.094,17.015l.135,1.162s-1.652.122-1.652-2.031A12.144,12.144,0,0,1,127.11,96.84Z" transform="translate(-100.993 -59.623)" fill="#944413"/>
            <g id="Grupo_6716" data-name="Grupo 6716" transform="translate(0 21.306)">
              <path id="Trazado_11720" data-name="Trazado 11720" d="M122.116,83.991s-.843-.625-5.364,0-8.7,5.6-9.245,9.311.608,10.528,4.994,10.055S122.116,83.991,122.116,83.991Z" transform="translate(-107.383 -70.42)" fill="#bf8c5e"/>
              <g id="Grupo_6715" data-name="Grupo 6715" transform="translate(2.678)">
                <path id="Trazado_11721" data-name="Trazado 11721" d="M122.821,85.869s3.682-2.969,4.3-4.689,2.781-6.141,3.591-6.529,5.473-.185,6.515.557,1.583,3.171,1.043,3.711,1.235,2.429.213,2.969-2.8-.708-2.8-.708,1.843,2.228,1.541,3.408-.846.876-2.567.471-2.946-.731-3.273.375-1.688,4.079-4.926,3.606c0,0-3.981,6.209-5.162,9.38s-3.543,7.22-8.873,7.422-2.565-9.514-1.62-11.4S122.821,85.869,122.821,85.869Z" transform="translate(-109.247 -74.458)" fill="#f7cbad"/>
                <path id="Trazado_11722" data-name="Trazado 11722" d="M126.732,76.248s2.94.58,3.832,2.365" transform="translate(-101.62 -73.677)" fill="#eaad83"/>
              </g>
            </g>
          </g>
          <g id="Grupo_6720" data-name="Grupo 6720" transform="translate(46.954 49.537)">
            <path id="Trazado_11723" data-name="Trazado 11723" d="M141.1,57.825a2.651,2.651,0,0,1,1.818-.867c1.077,0,4.306,1.077,3.229,4.306a52.15,52.15,0,0,0-1.076,8.61V83.867a61.12,61.12,0,0,0,1.891,11.126c.261.714,1.337,1.791,1.337,2.867a3.53,3.53,0,0,1-1.076,2.153c-.26.053-1.077,0-2.68-1.685-1.347-1.757-3.779-6.482-3.779-17.69,0-12.916,1.077-15.069,1.077-18.3S142.511,58.692,141.1,57.825Z" transform="translate(-139.775 -56.958)" fill="#944413"/>
            <path id="Trazado_11724" data-name="Trazado 11724" d="M148.279,60.6s7.557,12.013,10.526,16.465,12.551,14.507,7.086,18.286S146.484,81.3,146.484,81.3Z" transform="translate(-137.28 -55.368)" fill="#dda66b"/>
            <g id="Grupo_6719" data-name="Grupo 6719" transform="translate(0 17.365)">
              <path id="Trazado_11725" data-name="Trazado 11725" d="M154.171,77.857s7.289-1.823,10.021,0,5.229,9.11,4.014,11.539-3.779,5.939-7.287,3.171S154.171,77.857,154.171,77.857Z" transform="translate(-133.927 -65.56)" fill="#bf8c5e"/>
              <g id="Grupo_6718" data-name="Grupo 6718">
                <path id="Trazado_11726" data-name="Trazado 11726" d="M156.673,79.146s-4.05-2.442-4.9-4.063-3.588-5.706-4.442-5.98-5.448.557-6.38,1.435-1.137,3.356-.53,3.819-.893,2.574.192,2.97,2.674-1.081,2.674-1.081-1.522,2.457-1.064,3.586.958.753,2.607.119,2.819-1.125,3.293-.073,2.225,3.813,5.37,2.905a76.239,76.239,0,0,1,6.2,7.392c4.131,5.881,4.49,6.674,9.8,6.151s1.251-9.773.059-11.519S156.673,79.146,156.673,79.146Z" transform="translate(-140.076 -69.049)" fill="#f7cbad"/>
                <path id="Trazado_11727" data-name="Trazado 11727" d="M143.894,71.071s-2.834.972-3.476,2.862" transform="translate(-139.926 -68.167)" fill="#eaad83"/>
              </g>
            </g>
          </g>
        </g>
      </g>
    </g>
    <g id="Grupo_7604" data-name="Grupo 7604" transform="translate(-1634.913 -26.026)">
      <ellipse id="Elipse_700" data-name="Elipse 700" cx="48.784" cy="7.605" rx="48.784" ry="7.605" transform="translate(1709.345 396.66)" fill="#597fb5" opacity="0.1" style="isolation: isolate"/>
      <g id="Grupo_7603" data-name="Grupo 7603" transform="translate(1703.912 179.684)">
        <g id="Grupo_7600" data-name="Grupo 7600">
          <g id="Grupo_7529" data-name="Grupo 7529" transform="translate(12.15 44.928)">
            <path id="Trazado_12791" data-name="Trazado 12791" d="M1728.02,229.522c2.382-5.958,4.219-10.639,10.437-11.857,7-1.369,16.031,2.433,20.4,8.967,3.632,5.435,5.892,13.642,6.906,20.249,1.6,10.4,1.863,20.912,3.8,31.2,1.791,9.506,2.7,18.709,5.88,27.693,2.173,6.148,3.826,12.063,3.571,18.7-2.75.448-6.273-.132-9.121-.25a92.011,92.011,0,0,1-12.618-.8c-6.158-1.118-12.312-.906-18.523-1.251-3.729-.207-6.763-.31-10.264,1.1-3.533,1.43-6.182,4.49-10.363,3.859-2.015-14.2-4.375-28.155-3.971-42.618a132.285,132.285,0,0,1,7.317-38.881C1723.347,240.111,1725.871,234.9,1728.02,229.522Z" transform="translate(-1714.109 -217.387)" fill="#ed936a"/>
          </g>
          <g id="Grupo_7598" data-name="Grupo 7598">
            <g id="Grupo_7595" data-name="Grupo 7595" transform="translate(13.346)">
              <g id="Grupo_7531" data-name="Grupo 7531" transform="translate(4.156)">
                <g id="Grupo_7530" data-name="Grupo 7530">
                  <path id="Trazado_12792" data-name="Trazado 12792" d="M1736.556,225.693c1.588.261,2.859,1.9,4.473,2.376,3.189.95,5.492-.785,8.458-1.976a7.156,7.156,0,0,1,5.073-.557c1.693.576,2.653,1.341,4.572,1.245a6.2,6.2,0,0,0,4.993-2.2c1.382-1.655.66-2.749,1.226-4.556.536-1.706,2.5-2.421,3.384-3.767,1.027-1.571.492-3.565-.39-5.067-1.114-1.9-2.2-3.469-2.014-5.937.076-1.028.783-1.922.524-3.117a12.765,12.765,0,0,0-2.1-3.6c-1.545-2.107-1.735-3.338-2.177-5.969-.757-4.5-7.075-7.487-10.4-9.489-4.471-2.692-9.22-4.112-14.34-3.04-6.386,1.338-11.019,7.557-14.385,13.086a7.615,7.615,0,0,0-4.076,6.26c-.334,3.438,1.568,5.4,2.364,8.4,1.164,4.4-4.491,7.638-2.837,12.322.846,2.4,3.506,2.492,5.267,3.356,1.09.535.6-.137,1.026,1.139.311.951-.2,2,.547,2.9,2.99,3.6,7.44-2.259,10.72-1.836Z" transform="translate(-1718.6 -179.685)" fill="#252f3a"/>
                </g>
              </g>
              <g id="Grupo_7532" data-name="Grupo 7532" transform="translate(16.714 94.106)">
                <path id="Trazado_12793" data-name="Trazado 12793" d="M1729.138,258.656" transform="translate(-1729.138 -258.656)" fill="#edae9e"/>
              </g>
              <g id="Grupo_7534" data-name="Grupo 7534" transform="translate(0 77.408)">
                <g id="Grupo_7533" data-name="Grupo 7533">
                  <path id="Trazado_12794" data-name="Trazado 12794" d="M1720.891,244.742c1.748-.5,1.188.986,3.426,2.964a17.734,17.734,0,0,1,3.016,3.5c-2.778,10.814-7.078,20.2-7.357,27.283-.311,7.933-4.864,1.281-4.864,1.281C1716.571,265.4,1717.294,259.444,1720.891,244.742Z" transform="translate(-1715.112 -244.643)" fill="#edae9e"/>
                </g>
              </g>
              <g id="Grupo_7535" data-name="Grupo 7535" transform="translate(17.204 44.458)">
                <path id="Trazado_12795" data-name="Trazado 12795" d="M1752.2,255.717c1.7-14.975,4.942-32.863,2.227-35.076-2.987-2.437-7.423-3.532-11.9-3.623a29.146,29.146,0,0,0-12.043,2.073c-2.615,1.014.965,23.983,1.681,39.943Z" transform="translate(-1729.549 -216.993)" fill="#edae9e"/>
              </g>
              <g id="Grupo_7536" data-name="Grupo 7536" transform="translate(25.293 29.423)">
                <path id="Trazado_12796" data-name="Trazado 12796" d="M1737.946,204.955c2.582-1.773,7.367,1.09,7.367,1.09l.106,14.5s-9.179,1.948-9.081-.151C1736.556,215.647,1736.164,206.179,1737.946,204.955Z" transform="translate(-1736.337 -204.376)" fill="#edae9e"/>
              </g>
              <g id="Grupo_7537" data-name="Grupo 7537" transform="translate(25.375 29.426)">
                <path id="Trazado_12797" data-name="Trazado 12797" d="M1741.529,217.337c1.637.677,2.541.733,3.854,2.694.008.013.013.027.02.042l-.1-14.027s-4.784-2.86-7.367-1.09c-.877.6-1.5,7.133-1.53,12.121A11.116,11.116,0,0,1,1741.529,217.337Z" transform="translate(-1736.406 -204.378)" fill="#e4a190"/>
              </g>
              <g id="Grupo_7538" data-name="Grupo 7538" transform="translate(15.601 1.899)">
                <path id="Trazado_12798" data-name="Trazado 12798" d="M1753.909,189.221a11.531,11.531,0,0,0-6.3-7.027,21.323,21.323,0,0,0-12.225,0,11.533,11.533,0,0,0-6.3,7.027c-1.621,4.677-.547,6.018-.416,10.957.129,4.829.164,11.218,3.75,15.325,3.782,4.329,6.928,4.936,10.258,5.028,3.756,0,7.841-3.4,8.978-4.782,4.1-4.968,3.306-9.7,3.533-16.551C1755.357,194.26,1755.53,193.9,1753.909,189.221Z" transform="translate(-1728.204 -181.278)" fill="#edae9e"/>
              </g>
              <g id="Grupo_7542" data-name="Grupo 7542" transform="translate(12.349 20.47)">
                <g id="Grupo_7539" data-name="Grupo 7539">
                  <path id="Trazado_12799" data-name="Trazado 12799" d="M1725.738,202.516c.721,2.324,4.3,5.076,4.868,2.927.348-1.316.144-2.761-.577-5.086s-.067-4.043-2.035-3.333A4.366,4.366,0,0,0,1725.738,202.516Z" transform="translate(-1725.475 -196.862)" fill="#edae9e"/>
                </g>
                <g id="Grupo_7540" data-name="Grupo 7540" transform="translate(1.745 2.29)">
                  <path id="Trazado_12800" data-name="Trazado 12800" d="M1728.306,198.808c.034-.012.069-.013.1-.024a.24.24,0,0,0,.038.052c.776.726.6,2.51.742,3.5q.089.626.241,1.238a2.245,2.245,0,0,1-2.339-1.724A2.415,2.415,0,0,1,1728.306,198.808Z" transform="translate(-1726.939 -198.784)" fill="#e98a8f"/>
                </g>
                <g id="Grupo_7541" data-name="Grupo 7541" transform="translate(2.314 7.881)">
                  <path id="Trazado_12801" data-name="Trazado 12801" d="M1727.422,204.568a1.185,1.185,0,0,0,1.008,1.316,1.147,1.147,0,0,0,1.221-1.087,1.187,1.187,0,0,0-1.01-1.316h0A1.146,1.146,0,0,0,1727.422,204.568Z" transform="translate(-1727.417 -203.476)" fill="#fff"/>
                </g>
              </g>
              <g id="Grupo_7545" data-name="Grupo 7545" transform="translate(5.703 45.804)">
                <g id="Grupo_7544" data-name="Grupo 7544">
                  <g id="Grupo_7543" data-name="Grupo 7543">
                    <path id="Trazado_12802" data-name="Trazado 12802" d="M1722.069,255.779c-1.731-.638-2.172-4.192-2.171-5.409,2.087-16.564,9.078-31.318,12.769-32.083,6.045-1.254,2.473,5.011,2.473,5.011s-3.923,16.966-6.853,26.335c-.54,1.727-.722,2.843-1.834,6.812A11.776,11.776,0,0,1,1722.069,255.779Z" transform="translate(-1719.898 -218.122)" fill="#edae9e"/>
                  </g>
                </g>
              </g>
              <g id="Grupo_7546" data-name="Grupo 7546" transform="translate(73.349 49.026)">
                <path id="Trazado_12803" data-name="Trazado 12803" d="M1779.315,232.516a12.762,12.762,0,0,0,3.744-2.622c1.406-1.41,3.348-3.488,2.916-5.806a5.805,5.805,0,0,0-.854-2.189c-.465-.694-1.175-1.32-1.9-.977a8.875,8.875,0,0,0-2.775,2.622c-.79.97-1.864,1.6-2.691,2.554a6.367,6.367,0,0,0-1.09,3.813C1776.847,230.257,1779.315,232.516,1779.315,232.516Z" transform="translate(-1776.665 -220.826)" fill="#edae9e"/>
              </g>
              <g id="Grupo_7548" data-name="Grupo 7548" transform="translate(37.11 47.757)">
                <g id="Grupo_7547" data-name="Grupo 7547">
                  <path id="Trazado_12804" data-name="Trazado 12804" d="M1764.184,250.187c.822-.035,1.06.1,2.684-1.466a3.569,3.569,0,0,0,1.125-3.775c-7.009-14.725-15.037-25.784-18.416-25.16-5.529,1.019-2.488,7.955-2.488,7.955s6.265,10.2,11.877,17.75c1.623,2.187,2.625,3.182,4.248,5.234Z" transform="translate(-1746.254 -219.761)" fill="#edae9e"/>
                </g>
              </g>
              <g id="Grupo_7550" data-name="Grupo 7550" transform="translate(51.713 56.573)">
                <g id="Grupo_7549" data-name="Grupo 7549">
                  <path id="Trazado_12805" data-name="Trazado 12805" d="M1780.917,227.159a18.054,18.054,0,0,1,3.456,3.191,56.861,56.861,0,0,1-11.427,12.1,79.616,79.616,0,0,1-9.915,7.109,1.849,1.849,0,0,1-1.049.358,1.6,1.6,0,0,1-.722-.309,5.459,5.459,0,0,1-1.472-1.468,4.1,4.1,0,0,1-.424-2.357c.006-.854-1.421-2.564-.6-3C1766.1,238.837,1776.174,232.135,1780.917,227.159Z" transform="translate(-1758.508 -227.159)" fill="#edae9e"/>
                </g>
              </g>
              <g id="Grupo_7563" data-name="Grupo 7563" transform="translate(20.027 19.27)">
                <g id="Grupo_7553" data-name="Grupo 7553" transform="translate(0 7.093)">
                  <g id="Grupo_7551" data-name="Grupo 7551" transform="translate(0 0.257)">
                    <path id="Trazado_12806" data-name="Trazado 12806" d="M1737.649,204.129c.019,1.192-1.249,2.177-2.831,2.207s-2.882-.913-2.9-2.1,1.248-2.18,2.831-2.209S1737.63,202.937,1737.649,204.129Z" transform="translate(-1731.918 -202.023)" fill="#ea9690"/>
                  </g>
                  <g id="Grupo_7552" data-name="Grupo 7552" transform="translate(14.007)">
                    <path id="Trazado_12807" data-name="Trazado 12807" d="M1749.4,203.909c.018,1.193-1.249,2.18-2.83,2.209s-2.88-.912-2.9-2.1,1.249-2.18,2.831-2.208S1749.384,202.719,1749.4,203.909Z" transform="translate(-1743.672 -201.808)" fill="#ea9690"/>
                  </g>
                </g>
                <g id="Grupo_7554" data-name="Grupo 7554" transform="translate(0.494 0.202)">
                  <path id="Trazado_12808" data-name="Trazado 12808" d="M1738.3,197.149a1.6,1.6,0,0,0-.238-.054,5.14,5.14,0,0,0-.635-.068,5.639,5.639,0,0,0-.95.074l-.54.092-.546.17a4.991,4.991,0,0,0-.546.187l-.509.245-.48.23c-.145.087-.277.182-.4.262l-.835.555-.019.012a.16.16,0,0,1-.233-.045.19.19,0,0,1,.042-.253l.8-.671c.123-.1.25-.215.393-.323l.479-.3.515-.322a5.969,5.969,0,0,1,.564-.271c.194-.083.387-.169.577-.253l.586-.172a6.748,6.748,0,0,1,1.073-.207,5.881,5.881,0,0,1,.807-.006,2.347,2.347,0,0,1,.3.032l.038.008a.553.553,0,0,1,.4.651h0a.515.515,0,0,1-.6.433h0Z" transform="translate(-1732.332 -196.025)" fill="#6a2616"/>
                </g>
                <g id="Grupo_7555" data-name="Grupo 7555" transform="translate(12.373)">
                  <path id="Trazado_12809" data-name="Trazado 12809" d="M1742.793,195.861a2.159,2.159,0,0,1,.3,0,5.881,5.881,0,0,1,.8.08,6.8,6.8,0,0,1,1.053.3l.57.226.554.305a5.917,5.917,0,0,1,.541.319l.487.369.453.344c.134.122.253.247.368.357l.746.741a.194.194,0,0,1,.01.257.16.16,0,0,1-.223.021l-.019-.013-.788-.63c-.119-.092-.243-.2-.381-.3l-.461-.273-.489-.293a5.357,5.357,0,0,0-.528-.236l-.53-.218-.53-.142a5.991,5.991,0,0,0-.94-.161,5.187,5.187,0,0,0-.639.01,1.834,1.834,0,0,0-.242.03.516.516,0,0,1-.6-.434h0a.553.553,0,0,1,.4-.648l.04-.007Z" transform="translate(-1742.301 -195.855)" fill="#6a2616"/>
                </g>
                <g id="Grupo_7559" data-name="Grupo 7559" transform="translate(5.694 12.681)">
                  <g id="Grupo_7556" data-name="Grupo 7556">
                    <path id="Trazado_12810" data-name="Trazado 12810" d="M1736.7,206.651a18.6,18.6,0,0,0,8.275-.154,4.085,4.085,0,0,1-4.121,3.948,3.947,3.947,0,0,1-4.154-3.788Z" transform="translate(-1736.696 -206.497)" fill="#702323"/>
                  </g>
                  <g id="Grupo_7557" data-name="Grupo 7557" transform="translate(2.659 2.626)">
                    <path id="Trazado_12811" data-name="Trazado 12811" d="M1738.927,209.814a4.555,4.555,0,0,0,1.5.209,4.093,4.093,0,0,0,2.5-.8A2.978,2.978,0,0,0,1738.927,209.814Z" transform="translate(-1738.927 -208.701)" fill="#bd3c42"/>
                  </g>
                  <g id="Grupo_7558" data-name="Grupo 7558" transform="translate(0.001 0.004)">
                    <path id="Trazado_12812" data-name="Trazado 12812" d="M1744.537,208.127a5.054,5.054,0,0,0,.435-1.627,54.972,54.972,0,0,1-8.275.155,4.917,4.917,0,0,0,.447,1.608,15.868,15.868,0,0,0,3.768.273A14,14,0,0,0,1744.537,208.127Z" transform="translate(-1736.697 -206.5)" fill="#fff"/>
                  </g>
                </g>
                <g id="Grupo_7560" data-name="Grupo 7560" transform="translate(4.573 3.676)">
                  <path id="Trazado_12813" data-name="Trazado 12813" d="M1737.757,200.587c.013.92-.422,1.674-.975,1.684s-1.014-.727-1.026-1.647.421-1.674.974-1.684S1737.744,199.666,1737.757,200.587Z" transform="translate(-1735.756 -198.94)" fill="#430f0a"/>
                </g>
                <g id="Grupo_7561" data-name="Grupo 7561" transform="translate(12.91 3.523)">
                  <path id="Trazado_12814" data-name="Trazado 12814" d="M1742.752,200.493c.013.92.474,1.656,1.026,1.647s.988-.765.975-1.69-.477-1.652-1.03-1.639S1742.738,199.574,1742.752,200.493Z" transform="translate(-1742.752 -198.812)" fill="#430f0a"/>
                </g>
                <g id="Grupo_7562" data-name="Grupo 7562" transform="translate(8.749 5.076)">
                  <path id="Trazado_12815" data-name="Trazado 12815" d="M1740.413,200.115q-.134.677-.2,1.366a2.321,2.321,0,0,1-.057.316c-.026.1-.043.2-.077.3a5.286,5.286,0,0,1-.218.57l.027-.049a4.388,4.388,0,0,0-.433.946,4.708,4.708,0,0,0-.138.5c-.018.085-.03.179-.043.268a1.92,1.92,0,0,0-.01.329,1.249,1.249,0,0,0,.023.129,1.538,1.538,0,0,0,.057.181,1.088,1.088,0,0,0,.174.273,1.1,1.1,0,0,0,.461.3,1.8,1.8,0,0,0,.951.064,3.649,3.649,0,0,1-.784-.425.94.94,0,0,1-.247-.279.492.492,0,0,1-.051-.144V204.6l.03-.155c.02-.069.035-.132.058-.2.049-.137.093-.281.146-.424a8.061,8.061,0,0,1,.35-.795l.023-.042v-.008a3.552,3.552,0,0,0,.2-.729,1.861,1.861,0,0,0,.036-.374,2.761,2.761,0,0,0,0-.371A8.383,8.383,0,0,0,1740.413,200.115Z" transform="translate(-1739.259 -200.115)" fill="#dfa69a"/>
                </g>
              </g>
              <g id="Grupo_7565" data-name="Grupo 7565" transform="translate(55.819 161.088)">
                <g id="Grupo_7564" data-name="Grupo 7564">
                  <path id="Trazado_12816" data-name="Trazado 12816" d="M1762.414,316.245s-3.19,20.8,7.235,54.831c1.46,4.767,4.948-.946,4.948-.946s-1.1-47.488-2.035-52.6S1762.414,316.245,1762.414,316.245Z" transform="translate(-1761.954 -314.865)" fill="#edae9e"/>
                </g>
              </g>
              <g id="Grupo_7566" data-name="Grupo 7566" transform="translate(30.541 106.166)">
                <path id="Trazado_12817" data-name="Trazado 12817" d="M1777.035,326.311s-11.135-33.751-23.375-57.535l-12.919,6.069s3.992,12.758,9.779,27.541c5.355,13.679,13.409,27.058,16.052,32.222C1771.33,334.827,1775.623,331.421,1777.035,326.311Z" transform="translate(-1740.741 -268.776)" fill="#edae9e"/>
              </g>
              <g id="Grupo_7568" data-name="Grupo 7568" transform="translate(50.551 161.27)">
                <g id="Grupo_7567" data-name="Grupo 7567">
                  <path id="Trazado_12818" data-name="Trazado 12818" d="M1764.014,356.725c-1.451-.066-2.884.51-4.241.287-4.044-.66-1.457-8.525-1.052-11.4.848-6.032.154-11.993.063-18.012-.063-4.226-.928-10.321,3.853-10.973,2.38-.325,10.95-3.694,11.7.4,1.368,7.513,1.664,15.462,2.189,23.088q.273,3.968.477,7.944c.106,2.172.89,5.874.291,7.94-.974,3.36-9.955,1.26-12.726.783A4.5,4.5,0,0,0,1764.014,356.725Z" transform="translate(-1757.533 -315.018)" fill="#0084c9"/>
                </g>
              </g>
              <g id="Grupo_7569-2" data-name="Grupo 7569" transform="translate(26.586 103.483)">
                <path id="Trazado_12819" data-name="Trazado 12819" d="M1778.16,327.918s-8.091-35.511-21.831-61.393l-18.907,9.414s2,5.188,7.783,19.972c5.356,13.68,14.433,36.961,17.073,42.126C1762.28,338.032,1775.6,336.829,1778.16,327.918Z" transform="translate(-1737.422 -266.525)" fill="#0084c9"/>
              </g>
              <g id="Grupo_7570" data-name="Grupo 7570" transform="translate(12.024 93.998)">
                <path id="Trazado_12820" data-name="Trazado 12820" d="M1754.594,258.565l-23.551.442c-9.291,11.1-4.713,48.447-4.713,48.447,2.267,3.638,11.489-13.914,19-17.533,13.74-6.617,17.212,13.481,19.724,9.446C1765.058,299.366,1764.208,278.194,1754.594,258.565Z" transform="translate(-1725.203 -258.565)" fill="#0084c9"/>
              </g>
              <g id="Grupo_7571" data-name="Grupo 7571" transform="translate(18.059 94.44)">
                <path id="Trazado_12821" data-name="Trazado 12821" d="M1730.267,258.936" transform="translate(-1730.267 -258.936)" fill="#fff"/>
              </g>
              <g id="Grupo_7572" data-name="Grupo 7572" transform="translate(16.989 44.644)">
                <path id="Trazado_12822" data-name="Trazado 12822" d="M1729.715,240.9c-.107-1.1-.318-2.227-.345-3.327a7.238,7.238,0,0,1,.133-1.362,39.309,39.309,0,0,0,2.052-6.758c1.075-4,1.792-6.266,1.061-10.248.025-.014-.424-1.015-.394-1.03a11.031,11.031,0,0,1,4.841-1.028c1.529,5.093,2.282,14.088,6.672,16.247,1.049.514,2.157-12.043,3.026-15.214a2.263,2.263,0,0,1,.144-.421c-.023-.118-.039-.237-.051-.357-.063-.607,4.114-.026,4.518,1.311,3.205,10.66,7.194,17.719,3.6,25.879-1.8,4.086-1.047,10.807-1.08,22.239a83.925,83.925,0,0,1-13.345,1.213c-7.344.072-10.108-1.1-10.108-1.1-.113-.048.4-5.514.417-6.077q.094-2.88,0-5.76C1730.722,250.352,1730.163,245.631,1729.715,240.9Z" transform="translate(-1729.369 -217.148)" fill="#fff"/>
              </g>
              <g id="Grupo_7573" data-name="Grupo 7573" transform="translate(16.989 45.515)">
                <path id="Trazado_12823" data-name="Trazado 12823" d="M1729.715,240.763c-.107-1.1-.318-2.227-.345-3.327a7.238,7.238,0,0,1,.133-1.362,39.309,39.309,0,0,0,2.052-6.758c1.075-4,1.792-6.266,1.061-10.248.025-.014-.424-1.014-.394-1.03,1.007-.578.973.541,1.145,1.443a31.4,31.4,0,0,1,.454,3.276,36.143,36.143,0,0,1-.076,6.514c-.287,3-1.5,5.733-1.527,8.8-.044,4.453,3.161,9.414,7.341,9.308q-.692.118,1.215-.029c2.356-.075,4.72-.119,7.073.026.821.051,1.646.07,2.48.074.556,0,1.529-.309,1.978.05a16.132,16.132,0,0,1-5.153,2.157c-1.224.387-2.424.825-3.661,1.174a12.951,12.951,0,0,0-3.432,1.177,11.257,11.257,0,0,0-4.043,4.277c-1.939,3.484-.492,9.25,3.168,10.476a27.943,27.943,0,0,0,4.413,1.058c-.983.046-2,.081-3.053.091-7.343.072-10.107-1.1-10.107-1.1-.112-.048.4-5.514.418-6.077q.095-2.88,0-5.76C1730.722,250.211,1730.163,245.493,1729.715,240.763Z" transform="translate(-1729.369 -217.88)" fill="#dbdbdb"/>
              </g>
              <g id="Grupo_7575" data-name="Grupo 7575" transform="translate(15.693 164.154)">
                <g id="Grupo_7574" data-name="Grupo 7574">
                  <path id="Trazado_12824" data-name="Trazado 12824" d="M1731.307,317.8s-6.017,16.846-1.081,52.412c.69,4.975,4.638,3.04,4.638,3.04s6.345-46.966,6.23-52.194S1731.307,317.8,1731.307,317.8Z" transform="translate(-1728.281 -317.438)" fill="#edae9e"/>
                </g>
              </g>
              <g id="Grupo_7576" data-name="Grupo 7576" transform="translate(13.61 104.962)">
                <path id="Trazado_12825" data-name="Trazado 12825" d="M1742.018,331.414s7.007-42.432-.379-63.247l-14-.4s-1,13.478-1.106,29.628c-.094,14.944,2.386,30.857,2.916,36.783A9.721,9.721,0,0,0,1742.018,331.414Z" transform="translate(-1726.533 -267.766)" fill="#edae9e"/>
              </g>
              <g id="Grupo_7578" data-name="Grupo 7578" transform="translate(9.221 165.592)">
                <g id="Grupo_7577" data-name="Grupo 7577">
                  <path id="Trazado_12826" data-name="Trazado 12826" d="M1730.173,355.131c-1.8-.138-4.211.509-5.735,0-1.923-.646-1.56-2.884-1.56-4.862,0-7.15,1.972-14.9,3.381-21.841.812-4.01.87-8.7,5.091-9.252,3.227-.428,9.5-1.6,11.721,1.946,1.575,2.512.55,8.909.51,11.9a127.214,127.214,0,0,1-.921,14.657c-.3,2.308-.2,5.855-1.087,7.942-1.909,4.479-8.068.018-10.99-.447A4.125,4.125,0,0,0,1730.173,355.131Z" transform="translate(-1722.85 -318.645)" fill="#0084c9"/>
                </g>
              </g>
              <g id="Grupo_7579" data-name="Grupo 7579" transform="translate(11.034 103.772)">
                <path id="Trazado_12827" data-name="Trazado 12827" d="M1743.388,340.411s5.56-51.05,1.024-73.644l-17.343.515a184.365,184.365,0,0,0-2.694,29.753c-.094,14.944,2.193,35.9,2.724,41.827C1727.1,338.868,1737.8,347.362,1743.388,340.411Z" transform="translate(-1724.372 -266.767)" fill="#0084c9"/>
              </g>
              <g id="Grupo_7584" data-name="Grupo 7584" transform="translate(63.417 216.353)">
                <g id="Grupo_7580" data-name="Grupo 7580" transform="translate(0 4.562)">
                  <path id="Trazado_12828" data-name="Trazado 12828" d="M1768.33,366.262l.049,1.929s11.453,2.04,15.725.055a1.7,1.7,0,0,0,1.019-2.05,1.738,1.738,0,0,0-.259-.572C1784.138,364.077,1768.33,366.262,1768.33,366.262Z" transform="translate(-1768.33 -365.07)" fill="#fff"/>
                </g>
                <g id="Grupo_7581" data-name="Grupo 7581">
                  <path id="Trazado_12829" data-name="Trazado 12829" d="M1768.33,361.9v5.734s10.254,2.145,16,.11c0,0,2.942-1.43-3.337-3.418s-7.614-3.079-7.614-3.079S1770.589,364.129,1768.33,361.9Z" transform="translate(-1768.33 -361.242)" fill="#f4b84b"/>
                </g>
                <g id="Grupo_7582" data-name="Grupo 7582" transform="translate(0.129 0.761)">
                  <path id="Trazado_12830" data-name="Trazado 12830" d="M1769.708,364.5a3.026,3.026,0,0,1-1.268-2.622,3.27,3.27,0,0,0,3.464.29C1771.871,363.447,1770.843,364.867,1769.708,364.5Z" transform="translate(-1768.438 -361.881)" fill="#ee9746"/>
                </g>
                <g id="Grupo_7583" data-name="Grupo 7583" transform="translate(11.998 3.468)">
                  <path id="Trazado_12831" data-name="Trazado 12831" d="M1780.183,364.152c4.777,1.787,2.213,3.034,2.213,3.034a16.169,16.169,0,0,1-4,.781A5.375,5.375,0,0,1,1780.183,364.152Z" transform="translate(-1778.398 -364.152)" fill="#ef9d47"/>
                </g>
              </g>
              <g id="Grupo_7589" data-name="Grupo 7589" transform="translate(16.093 215.931)">
                <g id="Grupo_7585" data-name="Grupo 7585" transform="translate(0 4.968)">
                  <path id="Trazado_12832" data-name="Trazado 12832" d="M1728.961,365.057l-.344,1.891s10.737,4.93,15.3,4.094c0,0,1.79-.119,1.273-2.355C1744.795,366.992,1728.961,365.057,1728.961,365.057Z" transform="translate(-1728.617 -365.057)" fill="#fff"/>
                </g>
                <g id="Grupo_7586" data-name="Grupo 7586" transform="translate(0.216)">
                  <path id="Trazado_12833" data-name="Trazado 12833" d="M1729.965,360.888l-1.167,5.584s9.544,4.727,15.55,4.216c0,0,3.158-.639-2.553-4.185s-6.786-4.954-6.786-4.954S1731.71,363.645,1729.965,360.888Z" transform="translate(-1728.798 -360.888)" fill="#f4b84b"/>
                </g>
                <g id="Grupo_7587" data-name="Grupo 7587" transform="translate(1.394 0.143)">
                  <path id="Trazado_12834" data-name="Trazado 12834" d="M1730.581,363.882a3.166,3.166,0,0,1-.7-2.874,3.372,3.372,0,0,0,3.314,1.171C1732.9,363.412,1731.612,364.532,1730.581,363.882Z" transform="translate(-1729.787 -361.008)" fill="#ee9746"/>
                </g>
                <g id="Grupo_7588" data-name="Grupo 7588" transform="translate(11.714 6.28)">
                  <path id="Trazado_12835" data-name="Trazado 12835" d="M1740.961,366.158c4.288,2.964,1.536,3.521,1.536,3.521a15.994,15.994,0,0,1-4.051-.267A5.025,5.025,0,0,1,1740.961,366.158Z" transform="translate(-1738.447 -366.158)" fill="#ef9d47"/>
                </g>
              </g>
              <g id="Grupo_7593" data-name="Grupo 7593" transform="translate(41.136 20.471)">
                <g id="Grupo_7590" data-name="Grupo 7590">
                  <path id="Trazado_12836" data-name="Trazado 12836" d="M1754.667,202.516c-.721,2.324-4.3,5.076-4.868,2.927-.349-1.316-.145-2.761.577-5.086s.067-4.041,2.033-3.332A4.366,4.366,0,0,1,1754.667,202.516Z" transform="translate(-1749.632 -196.863)" fill="#edae9e"/>
                </g>
                <g id="Grupo_7591" data-name="Grupo 7591" transform="translate(1.06 2.289)">
                  <path id="Trazado_12837" data-name="Trazado 12837" d="M1751.651,198.808c-.036-.012-.07-.013-.106-.024a.277.277,0,0,1-.038.052c-.777.726-.6,2.51-.744,3.5q-.091.626-.241,1.238a2.243,2.243,0,0,0,2.338-1.724A2.413,2.413,0,0,0,1751.651,198.808Z" transform="translate(-1750.522 -198.784)" fill="#e98a8f"/>
                </g>
                <g id="Grupo_7592" data-name="Grupo 7592" transform="translate(0.744 7.879)">
                  <path id="Trazado_12838" data-name="Trazado 12838" d="M1752.491,204.568a1.186,1.186,0,0,1-1.008,1.316,1.147,1.147,0,0,1-1.221-1.087,1.187,1.187,0,0,1,1.008-1.316h0A1.146,1.146,0,0,1,1752.491,204.568Z" transform="translate(-1750.257 -203.476)" fill="#fff"/>
                </g>
              </g>
              <g id="Grupo_7594" data-name="Grupo 7594" transform="translate(14.036 0.299)">
                <path id="Trazado_12839" data-name="Trazado 12839" d="M1758.183,199.672a38.49,38.49,0,0,0-1.556-8.148c-1.411-4.471-4.288-9.352-8.751-10.717a21.529,21.529,0,0,0-9.225-.639c-4.736.562-8.323,5-10.262,9.374-.778,1.755-1.678,3.91-1.466,5.883.218,2.025.66,4.091.95,6.119.155,1.086.269,3.113,1.142,3.783.81-1.281.269-3.089,1-4.407a6.351,6.351,0,0,1,3.6-2.306c1.251-1.563,2.617-4.713,4.553-5.391.885-.311,1.735.031,2.647-.387,2.546-1.167,2.3-3.615,2.779-6.049.437,1.036.324,2.267.757,3.278a18,18,0,0,0,1.243,1.956c.922,1.555,1.742,2.852,3.537,3.235a15.9,15.9,0,0,1,1.736.144c1.376.49,1.281,1.729,1.845,2.829s.194,2.124,1.068,2.872c1.155.994,1.239,1.838,1.457,3.324C1756.41,203.192,1758.254,201.322,1758.183,199.672Z" transform="translate(-1726.891 -179.935)" fill="#252f3a"/>
              </g>
            </g>
            <g id="Grupo_7597" data-name="Grupo 7597" transform="translate(0 111.321)">
              <path id="Trazado_12840" data-name="Trazado 12840" d="M1715.722,273.163a39,39,0,0,1-2.651,5.784c-1.084,1.578-.89,3.147-.4,5.507.367,1.779,4.156,3.694,4.49,2.194s-2.828-1.4-1.878-3.521c2.048-4.58,4.588,1.112,4.423-.934a33.413,33.413,0,0,1,.382-5.693S1717.586,272.571,1715.722,273.163Z" transform="translate(-1702.31 -273.102)" fill="#edae9e"/>
              <g id="Grupo_7596" data-name="Grupo 7596" transform="translate(0 7.804)">
                <path id="Trazado_12841" data-name="Trazado 12841" d="M1710.609,288.051s-4.718-1.229-6.045,5.371-.312,42.974.292,46.8,5.951,5.515,7.47,5.085" transform="translate(-1703.912 -278.058)" fill="#db6121"/>
                <path id="Trazado_12842" data-name="Trazado 12842" d="M1713.063,288.13s-4.717-1.229-6.044,5.371-.312,42.974.293,46.8,5.951,5.515,7.47,5.085" transform="translate(-1703.442 -278.043)" fill="#c9501b"/>
                <path id="Trazado_12843" data-name="Trazado 12843" d="M1719.492,281.99s1.037,52.075,1.945,52.075.6-.807.8-4.087c.2-3.319-1.2-47.6-1.2-47.6Z" transform="translate(-1700.927 -279.202)" fill="#bcbcbc"/>
                <path id="Trazado_12844" data-name="Trazado 12844" d="M1718.943,280.962a2.667,2.667,0,0,1-.9,3.393,2.108,2.108,0,0,1-3.018-1.008,2.669,2.669,0,0,1,.889-3.388,2.105,2.105,0,0,1,3.022.995Z" transform="translate(-1701.834 -279.651)" fill="#2a2a3d"/>
                <path id="Trazado_12845" data-name="Trazado 12845" d="M1730.477,343.277c-.731,2.007-15.265,6.877-19.243,6.27-.705-.1-1.244-2.039-1.652-5.177-1.9-14.557-.914-54.986-.035-57.806.515-1.639,2.589-3,4.617-3.984a11.038,11.038,0,0,1,7.389-.863,10.015,10.015,0,0,1,3.026,1.242,7.041,7.041,0,0,1,2.2,2.026C1728.946,288.269,1731.208,341.27,1730.477,343.277Z" transform="translate(-1703.034 -279.309)" fill="#de4650"/>
                <path id="Trazado_12846" data-name="Trazado 12846" d="M1721.555,281.719c2,9.475,3.89,54.883,3.213,56.723-.559,1.549-9.382,4.814-15.184,5.928-1.895-14.557-.914-54.986-.034-57.806.515-1.639,2.589-3,4.617-3.984A11.036,11.036,0,0,1,1721.555,281.719Z" transform="translate(-1703.034 -279.309)" fill="#ff7174"/>
                <path id="Trazado_12847" data-name="Trazado 12847" d="M1715,281.862s2.281,58.033,1.256,56.2S1714,282.2,1714,282.2s.011-.6.354-.728a.474.474,0,0,1,.626.324A.642.642,0,0,1,1715,281.862Z" transform="translate(-1701.979 -279.309)" fill="#de4650"/>
              </g>
            </g>
          </g>
          <g id="Grupo_7599" data-name="Grupo 7599" transform="translate(10.121 44.605)">
            <path id="Trazado_12848" data-name="Trazado 12848" d="M1735.194,234.615c.624-2.6,3.47-13.677,4.388-17.5-7.715.113-12.144,6.249-14.86,11.762a125.877,125.877,0,0,0-8.635,23.866,129.33,129.33,0,0,0-3.182,15.506c-.114.875-.589,12.686-.485,12.665a38.093,38.093,0,0,0,3.958-1.186,9.382,9.382,0,0,1,4.029-.971c1.2.11,2.321.4,3.533.412,2.545.027,2.2-1.251,2.491-3.841,1.09-9.714,4.63-18.789,6.282-28.382C1733.423,242.812,1734.211,238.688,1735.194,234.615Z" transform="translate(-1712.406 -217.116)" fill="#f1aa71"/>
          </g>
        </g>
        <g id="Grupo_7601" data-name="Grupo 7601" transform="translate(50.542 44.829)">
          <path id="Trazado_12849" data-name="Trazado 12849" d="M1774.242,259.131c-1.956.781-4.049,1.581-6.157,2.645-7.568,3.824-2.9,20.069-2.556,27.037.186,3.756,1.931,8.858,1.182,12.155-.353-3.351-1.98-7.347-3.332-10.522a195.6,195.6,0,0,1-9.987-29.315c-2.421-9.743-.792-20.258-2.622-30.217-.492-2.682-1.077-5.343-1.779-7.966-.51-1.907-2.255-3.693-2.665-5.53,1.021-.477,2.981.657,3.911,1.136a17.131,17.131,0,0,1,4.186,2.9c3.363,3.282,6.086,7.388,9.764,10.255,1.591,1.243,3.991,2.942,5.967,2.661,2.459-.348,5.313-2.193,7.529-3.393,3.913-2.119,6.177,8.91,6.541,11.473C1785.865,254.072,1780.86,256.487,1774.242,259.131Z" transform="translate(-1746.326 -217.304)" fill="#f1aa71"/>
        </g>
        <g id="Grupo_7602" data-name="Grupo 7602" transform="translate(86.402 49.875)">
          <path id="Trazado_12850" data-name="Trazado 12850" d="M1776.7,229.323s-1.781-4.535,3.637-7.785c0,0,.779.807-.539,3.2a31.757,31.757,0,0,1-2.425,3.926A2.809,2.809,0,0,1,1776.7,229.323Z" transform="translate(-1776.419 -221.538)" fill="#edae9e"/>
        </g>
      </g>
    </g>
  </g>
</svg>
