<svg xmlns="http://www.w3.org/2000/svg" xmlns:xlink="http://www.w3.org/1999/xlink" width="301.263" height="254.939" viewBox="0 0 301.263 254.939">
  <defs>
    <clipPath id="clip-path">
      <path id="Trazado_12308" data-name="Trazado 12308" d="M945.29,852.936c-2.728-3.456-74.825,7.149-78.743,6.409s-19.254-3.837-22.632-5.12c-2.229-1.08-4.052-.878-16.481,3.715S692.634,900.7,690.5,901.425c-2.5.85-2.55,1.965-2.444,6.8s9.086,79.192,9.191,81.187,3.76,2.492,4.127,3.022.364,9.749.364,9.749l119.03-.916s138.185,1.035,138.258.916c.967-8.441,0-129.1,0-129.1S948.017,856.392,945.29,852.936Z" transform="translate(-688.026 -852.242)" fill="none"/>
    </clipPath>
  </defs>
  <g id="Grupo_7568" data-name="Grupo 7568" transform="translate(-70.766 -127.405)" opacity="0.8">
    <g id="Grupo_7529" data-name="Grupo 7529" transform="translate(-605.956 -720.909)" opacity="0.7">
      <g id="Trazado_11996" data-name="Trazado 11996" transform="translate(687.072 851.91)">
        <g id="Grupo_7246" data-name="Grupo 7246">
          <g id="Grupo_7245" data-name="Grupo 7245" clip-path="url(#clip-path)">
            <rect id="Rectángulo_2366" data-name="Rectángulo 2366" width="272.042" height="152.82" transform="translate(-0.077 -2.761)" fill="#f5f9fe"/>
            <path id="Trazado_12307" data-name="Trazado 12307" d="M911.057,861.325c-24.589-12.818-56.8-17.189-89.006-13.893s-64.4,14.258-88.948,32.105c-49.1,35.694-49.041,85.413.137,111.049,24.59,12.818,56.8,17.189,89.006,13.893s64.4-14.257,88.949-32.1C960.3,936.68,960.236,886.963,911.057,861.325Z" transform="translate(-688.725 -851.747)" fill="#f5f9fe"/>
            <ellipse id="Elipse_689" data-name="Elipse 689" cx="114.198" cy="70.093" rx="114.198" ry="70.093" transform="translate(9.332 23.655) rotate(-9.375)" fill="#f6fafe"/>
            <ellipse id="Elipse_690" data-name="Elipse 690" cx="101.509" cy="62.305" rx="101.509" ry="62.305" transform="translate(23.12 29.272) rotate(-9.375)" fill="#f7fafe"/>
            <ellipse id="Elipse_691" data-name="Elipse 691" cx="88.821" cy="54.517" rx="88.821" ry="54.517" transform="translate(36.908 34.889) rotate(-9.375)" fill="#f8fbfe"/>
            <ellipse id="Elipse_692" data-name="Elipse 692" cx="76.132" cy="46.729" rx="76.132" ry="46.729" transform="translate(50.696 40.507) rotate(-9.375)" fill="#f9fcfe"/>
            <ellipse id="Elipse_693" data-name="Elipse 693" cx="63.443" cy="38.941" rx="63.443" ry="38.941" transform="translate(64.484 46.124) rotate(-9.375)" fill="#fbfcff"/>
            <ellipse id="Elipse_694" data-name="Elipse 694" cx="50.755" cy="31.153" rx="50.755" ry="31.153" transform="translate(78.272 51.741) rotate(-9.375)" fill="#fcfdff"/>
            <ellipse id="Elipse_695" data-name="Elipse 695" cx="38.066" cy="23.364" rx="38.066" ry="23.364" transform="translate(92.059 57.358) rotate(-9.375)" fill="#fdfeff"/>
            <ellipse id="Elipse_696" data-name="Elipse 696" cx="25.377" cy="15.576" rx="25.377" ry="15.576" transform="translate(105.847 62.975) rotate(-9.375)" fill="#fefeff"/>
            <ellipse id="Elipse_697" data-name="Elipse 697" cx="12.689" cy="7.788" rx="12.689" ry="7.788" transform="translate(119.635 68.592) rotate(-9.375)" fill="#fff"/>
          </g>
        </g>
      </g>
      <g id="Grupo_7002" data-name="Grupo 7002" transform="translate(682.381 848.315)">
        <g id="Línea_36" data-name="Línea 36" transform="translate(151.021 0)">
          <path id="Trazado_12309" data-name="Trazado 12309" d="M848.53,985.539l-.055,0a.688.688,0,0,1-.631-.739l10.565-135.851a.687.687,0,1,1,1.37.107L849.214,984.905A.688.688,0,0,1,848.53,985.539Z" transform="translate(-847.842 -848.315)" fill="#bec7de"/>
        </g>
        <g id="Línea_37" data-name="Línea 37" transform="translate(13.595 135.906)">
          <path id="Trazado_12310" data-name="Trazado 12310" d="M698.436,1005.448a.687.687,0,0,1-.036-1.373l137.342-7.325a.676.676,0,0,1,.722.649.687.687,0,0,1-.649.722l-137.342,7.325Z" transform="translate(-697.75 -996.747)" fill="#bec7de"/>
        </g>
        <g id="Línea_39" data-name="Línea 39" transform="translate(143.831 137.74)">
          <path id="Trazado_12311" data-name="Trazado 12311" d="M840.677,1016.572h-.029a.687.687,0,0,1-.657-.714l.7-16.449a.686.686,0,0,1,1.372.057l-.7,16.449A.686.686,0,0,1,840.677,1016.572Z" transform="translate(-839.989 -998.749)" fill="#bec7de"/>
        </g>
        <g id="Línea_40" data-name="Línea 40" transform="translate(165.484 10.565)">
          <path id="Trazado_12312" data-name="Trazado 12312" d="M864.324,864.246a.687.687,0,0,1-.091-1.367l22.641-3.019a.687.687,0,0,1,.181,1.362l-22.641,3.019A.767.767,0,0,1,864.324,864.246Z" transform="translate(-863.638 -859.854)" fill="#bec7de"/>
        </g>
        <g id="Línea_41" data-name="Línea 41" transform="translate(196.717 16.099)">
          <path id="Trazado_12313" data-name="Trazado 12313" d="M898.436,875.376a.687.687,0,0,1-.086-1.368l63.435-8.106a.687.687,0,0,1,.173,1.363l-63.435,8.1A.729.729,0,0,1,898.436,875.376Z" transform="translate(-897.75 -865.898)" fill="#bec7de"/>
        </g>
        <g id="Línea_44" data-name="Línea 44" transform="translate(213.199 32.394)">
          <path id="Trazado_12314" data-name="Trazado 12314" d="M916.436,889.7a.687.687,0,0,1-.066-1.37l46.954-4.628a.686.686,0,0,1,.134,1.366L916.5,889.693A.548.548,0,0,1,916.436,889.7Z" transform="translate(-915.75 -883.694)" fill="#bec7de"/>
        </g>
        <g id="Trazado_11998" data-name="Trazado 11998" transform="translate(155.847 20.542)">
          <path id="Trazado_12315" data-name="Trazado 12315" d="M911.436,986.677H853.8a.687.687,0,0,1,0-1.373h56.947l-.281-81.493-39.12-31.84a.687.687,0,0,1,.868-1.066l39.371,32.046a.692.692,0,0,1,.253.53l.285,82.507a.686.686,0,0,1-.687.69Z" transform="translate(-853.113 -870.75)" fill="#bec7de"/>
        </g>
        <g id="Línea_46" data-name="Línea 46" transform="translate(225.102 49.264)">
          <path id="Trazado_12316" data-name="Trazado 12316" d="M929.436,904.986a.687.687,0,0,1-.028-1.373l35.066-1.489a.667.667,0,0,1,.715.656.687.687,0,0,1-.656.715l-35.066,1.489Z" transform="translate(-928.75 -902.12)" fill="#bec7de"/>
        </g>
        <g id="Trazado_11999" data-name="Trazado 11999" transform="translate(240.021 137.323)">
          <path id="Trazado_12317" data-name="Trazado 12317" d="M945.732,1016.354a.688.688,0,0,1-.439-1.216c6.392-5.3,20.192-16.575,20.331-16.689a.687.687,0,0,1,.869,1.064c-.139.113-13.936,11.388-20.324,16.682A.682.682,0,0,1,945.732,1016.354Z" transform="translate(-945.045 -998.294)" fill="#bec7de"/>
        </g>
        <g id="Trazado_12000" data-name="Trazado 12000" transform="translate(177.811 136.947)">
          <path id="Trazado_12318" data-name="Trazado 12318" d="M877.79,1016.4a.687.687,0,0,1-.3-1.306c35.8-17.148,36.024-17.182,36.155-17.2a.687.687,0,0,1,.326,1.329c-.986.412-23.867,11.355-35.887,17.112A.686.686,0,0,1,877.79,1016.4Z" transform="translate(-877.101 -997.884)" fill="#bec7de"/>
        </g>
        <g id="Línea_47" data-name="Línea 47" transform="translate(219.328 138.858)">
          <path id="Trazado_12319" data-name="Trazado 12319" d="M955,1001.344H923.131a.687.687,0,1,1,0-1.373H955a.687.687,0,0,1,0,1.373Z" transform="translate(-922.444 -999.971)" fill="#bec7de"/>
        </g>
        <g id="Trazado_12003" data-name="Trazado 12003" transform="translate(13.914 59.324)">
          <path id="Trazado_12320" data-name="Trazado 12320" d="M715.388,989.692A.687.687,0,0,1,714.7,989V969.65l-13.446-17.838a.687.687,0,0,1-.137-.359L698.1,913.846a.688.688,0,0,1,.63-.74.72.72,0,0,1,.74.631l3,37.407,13.464,17.863a.68.68,0,0,1,.138.413V989A.687.687,0,0,1,715.388,989.692Z" transform="translate(-698.099 -913.106)" fill="#bec7de"/>
        </g>
        <g id="Trazado_12004" data-name="Trazado 12004" transform="translate(25.388 56.367)">
          <path id="Trazado_12321" data-name="Trazado 12321" d="M730.938,988.026a.686.686,0,0,1-.685-.657L728,934.446l-16.309-10.779a.687.687,0,0,1-.308-.532l-.754-12.53a.687.687,0,1,1,1.372-.082l.734,12.189,16.315,10.782a.685.685,0,0,1,.308.544l2.264,53.271a.688.688,0,0,1-.656.716Z" transform="translate(-710.631 -909.877)" fill="#bec7de"/>
        </g>
        <g id="Trazado_12005" data-name="Trazado 12005" transform="translate(52.994 45.794)">
          <path id="Trazado_12322" data-name="Trazado 12322" d="M745.993,986.324a.686.686,0,0,1-.684-.641l-4.527-66.937a.685.685,0,0,1,.168-.5l7.356-8.45-.737-10.737a.687.687,0,0,1,.638-.732.7.7,0,0,1,.732.637l.757,11.021a.686.686,0,0,1-.168.5l-7.356,8.45,4.507,66.654a.687.687,0,0,1-.639.732Z" transform="translate(-740.78 -898.33)" fill="#bec7de"/>
        </g>
        <g id="Trazado_12006" data-name="Trazado 12006" transform="translate(71.703 43.012)">
          <path id="Trazado_12323" data-name="Trazado 12323" d="M770.957,983.974a.686.686,0,0,1-.687-.687V946.769l-8.643-3.755a.686.686,0,0,1-.413-.629V895.978a.687.687,0,0,1,1.373,0v45.956l8.643,3.755a.685.685,0,0,1,.413.63v36.969A.686.686,0,0,1,770.957,983.974Z" transform="translate(-761.214 -895.291)" fill="#bec7de"/>
        </g>
        <g id="Trazado_12007" data-name="Trazado 12007" transform="translate(85.357 36.631)">
          <path id="Trazado_12324" data-name="Trazado 12324" d="M786.625,982.676H786.6a.685.685,0,0,1-.657-.714l2.247-54.574-11.727-7.067a.688.688,0,0,1-.332-.589V889.009a.687.687,0,0,1,1.373,0v30.334l11.743,7.078a.682.682,0,0,1,.331.616l-2.263,54.981A.686.686,0,0,1,786.625,982.676Z" transform="translate(-776.126 -888.322)" fill="#bec7de"/>
        </g>
        <g id="Trazado_12008" data-name="Trazado 12008" transform="translate(107.282 27.671)">
          <path id="Trazado_12325" data-name="Trazado 12325" d="M800.759,981.106h-.006a.687.687,0,0,1-.68-.693l.754-78.886a.681.681,0,0,1,.226-.5l10.322-9.337-.735-12.422a.688.688,0,0,1,.646-.726.7.7,0,0,1,.726.646l.754,12.751a.694.694,0,0,1-.226.55L802.2,901.84l-.752,78.584A.687.687,0,0,1,800.759,981.106Z" transform="translate(-800.072 -878.536)" fill="#bec7de"/>
        </g>
        <g id="Trazado_12009" data-name="Trazado 12009" transform="translate(126.429 23.537)">
          <path id="Trazado_12326" data-name="Trazado 12326" d="M824.686,979.328a.72.72,0,0,1-.1-.007.686.686,0,0,1-.581-.777l5.225-36.115-7.948-5.445a.69.69,0,0,1-.3-.584l1.51-61.708a.688.688,0,0,1,.687-.67h.016a.688.688,0,0,1,.67.7l-1.5,61.335,7.994,5.477a.686.686,0,0,1,.291.665l-5.287,36.538A.687.687,0,0,1,824.686,979.328Z" transform="translate(-820.984 -874.021)" fill="#bec7de"/>
        </g>
        <g id="Trazado_12010" data-name="Trazado 12010" transform="translate(140.385 17.337)">
          <path id="Trazado_12327" data-name="Trazado 12327" d="M836.915,977.759a.6.6,0,0,1-.07,0,.685.685,0,0,1-.615-.751l6.012-60.822-5.882-7.926a.688.688,0,0,1-.125-.525l6.793-39.911a.687.687,0,0,1,1.354.231l-6.743,39.621,5.865,7.9a.692.692,0,0,1,.131.478L837.6,977.141A.687.687,0,0,1,836.915,977.759Z" transform="translate(-836.226 -867.249)" fill="#bec7de"/>
        </g>
        <g id="Trazado_12011" data-name="Trazado 12011" transform="translate(0 0.001)">
          <path id="Trazado_12328" data-name="Trazado 12328" d="M943.921,1003.658h0a.686.686,0,0,1-.687-.687l.008-153.174-71.32,10.5a.682.682,0,0,1-.355-.042l-26.334-10.527L684.346,902.567l11.988,89.1h3.2a.687.687,0,0,1,.687.687v10.565a.687.687,0,0,1-1.373,0v-9.879h-3.109a.685.685,0,0,1-.68-.6l-12.145-90.262a.687.687,0,0,1,.466-.743l161.667-53.09a.69.69,0,0,1,.47.015L871.9,858.917l71.924-10.595a.694.694,0,0,1,.549.16.687.687,0,0,1,.237.519l-.008,153.97A.687.687,0,0,1,943.921,1003.658Z" transform="translate(-682.902 -848.316)" fill="#bec7de"/>
        </g>
        <g id="Trazado_12012" data-name="Trazado 12012" transform="translate(260.34)">
          <path id="Trazado_12329" data-name="Trazado 12329" d="M984.77,1003.737a.687.687,0,0,1-.687-.686l-.244-132.574-16.457-21.053a.686.686,0,1,1,1.081-.845l16.6,21.238a.691.691,0,0,1,.146.422l.244,132.81a.686.686,0,0,1-.686.688Z" transform="translate(-967.236 -848.315)" fill="#bec7de"/>
        </g>
      </g>
      <g id="Línea_50" data-name="Línea 50" transform="translate(676.722 1003.245)">
        <path id="Trazado_12330" data-name="Trazado 12330" d="M977.3,1018.9H677.409a.687.687,0,1,1,0-1.373H977.3a.687.687,0,0,1,0,1.373Z" transform="translate(-676.722 -1017.524)" fill="#bec7de"/>
      </g>
    </g>
    <g id="Grupo_7604" data-name="Grupo 7604" transform="translate(-8121.685 -1115.39)">
      <g id="Grupo_7603" data-name="Grupo 7603">
        <g id="Grupo_7600" data-name="Grupo 7600">
          <g id="Grupo_7529-2" data-name="Grupo 7529">
            <path id="Trazado_12791" data-name="Trazado 12791" d="M8231.241,1330.183c2.337-5.842,4.137-10.433,10.234-11.627,6.864-1.342,15.722,2.386,20,8.794,3.561,5.329,5.776,13.378,6.771,19.857,1.565,10.192,1.827,20.507,3.729,30.595,1.756,9.321,2.649,18.347,5.766,27.156,2.131,6.029,3.752,11.829,3.5,18.334-2.7.439-6.151-.129-8.944-.246a90.144,90.144,0,0,1-12.374-.784c-6.04-1.1-12.073-.888-18.164-1.224-3.655-.2-6.632-.3-10.064,1.084-3.465,1.4-6.063,4.4-10.162,3.784-1.978-13.929-4.29-27.61-3.895-41.792a129.768,129.768,0,0,1,7.176-38.128C8226.662,1340.568,8229.132,1335.457,8231.241,1330.183Z" fill="#ed936a"/>
          </g>
          <g id="Grupo_7598" data-name="Grupo 7598">
            <g id="Grupo_7595" data-name="Grupo 7595">
              <g id="Grupo_7531" data-name="Grupo 7531">
                <g id="Grupo_7530" data-name="Grupo 7530">
                  <path id="Trazado_12792" data-name="Trazado 12792" d="M8240.966,1319.6c1.423.234,2.562,1.7,4,2.128,2.856.851,4.919-.7,7.576-1.768a6.407,6.407,0,0,1,4.543-.5c1.517.515,2.376,1.2,4.1,1.117a5.553,5.553,0,0,0,4.47-1.973c1.237-1.482.591-2.462,1.1-4.08.481-1.529,2.244-2.17,3.032-3.374.92-1.407.44-3.194-.35-4.539-1-1.7-1.968-3.106-1.8-5.317.068-.921.7-1.722.466-2.793a11.422,11.422,0,0,0-1.88-3.221c-1.384-1.887-1.554-2.989-1.949-5.346-.678-4.033-6.336-6.7-9.315-8.5-4-2.411-8.258-3.683-12.849-2.723-5.72,1.2-9.867,6.769-12.884,11.72a6.819,6.819,0,0,0-3.65,5.606c-.3,3.08,1.4,4.834,2.117,7.523,1.043,3.942-4.022,6.842-2.541,11.036.758,2.149,3.141,2.234,4.718,3.005.976.48.541-.123.919,1.024.278.852-.181,1.794.49,2.6,2.678,3.225,6.661-2.024,9.6-1.645Z" fill="#252f3a"/>
                </g>
              </g>
              <g id="Grupo_7532" data-name="Grupo 7532">
                <path id="Trazado_12793" data-name="Trazado 12793" d="M8235.162,1366.51" fill="#edae9e"/>
              </g>
              <g id="Grupo_7534" data-name="Grupo 7534">
                <g id="Grupo_7533" data-name="Grupo 7533">
                  <path id="Trazado_12794" data-name="Trazado 12794" d="M8224.439,1350.232c1.714-.494,1.164.966,3.362,2.906a17.361,17.361,0,0,1,2.956,3.431c-2.723,10.6-6.94,19.811-7.214,26.754-.306,7.78-4.771,1.256-4.771,1.256C8220.2,1370.489,8220.911,1364.65,8224.439,1350.232Z" fill="#edae9e"/>
                </g>
              </g>
              <g id="Grupo_7535" data-name="Grupo 7535">
                <path id="Trazado_12795" data-name="Trazado 12795" d="M8257.857,1355.8c1.664-14.685,4.846-32.227,2.185-34.4-2.93-2.389-7.279-3.466-11.666-3.552a28.565,28.565,0,0,0-11.81,2.033c-2.563.995.946,23.518,1.648,39.17Z" fill="#edae9e"/>
              </g>
              <g id="Grupo_7536" data-name="Grupo 7536">
                <path id="Trazado_12796" data-name="Trazado 12796" d="M8245.257,1305.261c2.313-1.588,6.6.977,6.6.977l.093,12.988s-8.222,1.744-8.133-.136C8244.012,1314.837,8243.661,1306.358,8245.257,1305.261Z" fill="#edae9e"/>
              </g>
              <g id="Grupo_7537" data-name="Grupo 7537">
                <path id="Trazado_12797" data-name="Trazado 12797" d="M8248.476,1316.353c1.468.606,2.277.656,3.453,2.413.007.012.012.024.019.037l-.094-12.563s-4.281-2.561-6.6-.977c-.785.54-1.347,6.389-1.37,10.857A9.953,9.953,0,0,1,8248.476,1316.353Z" fill="#e4a190"/>
              </g>
              <g id="Grupo_7538" data-name="Grupo 7538">
                <path id="Trazado_12798" data-name="Trazado 12798" d="M8258.158,1287.2a10.329,10.329,0,0,0-5.642-6.294,19.089,19.089,0,0,0-10.948,0,10.335,10.335,0,0,0-5.641,6.294c-1.451,4.189-.489,5.39-.372,9.814.115,4.325.147,10.048,3.359,13.726,3.387,3.877,6.2,4.421,9.187,4.5,3.365,0,7.023-3.048,8.041-4.283,3.671-4.45,2.961-8.687,3.165-14.824C8259.455,1291.718,8259.609,1291.394,8258.158,1287.2Z" fill="#edae9e"/>
              </g>
              <g id="Grupo_7542" data-name="Grupo 7542">
                <g id="Grupo_7539" data-name="Grupo 7539">
                  <path id="Trazado_12799" data-name="Trazado 12799" d="M8232.458,1301.786c.646,2.082,3.851,4.547,4.36,2.622.312-1.179.128-2.473-.518-4.556s-.059-3.621-1.823-2.985A3.911,3.911,0,0,0,8232.458,1301.786Z" fill="#edae9e"/>
                </g>
                <g id="Grupo_7540" data-name="Grupo 7540">
                  <path id="Trazado_12800" data-name="Trazado 12800" d="M8235.01,1298.8c.031-.011.063-.012.093-.022a.281.281,0,0,0,.035.047c.694.651.538,2.247.664,3.136.054.373.126.745.215,1.109a2.009,2.009,0,0,1-2.094-1.544A2.162,2.162,0,0,1,8235.01,1298.8Z" fill="#e98a8f"/>
                </g>
                <g id="Grupo_7541" data-name="Grupo 7541">
                  <path id="Trazado_12801" data-name="Trazado 12801" d="M8234.3,1304.759a1.061,1.061,0,0,0,.9,1.179,1.024,1.024,0,0,0,1.092-.951l0-.023a1.063,1.063,0,0,0-.9-1.178h0a1.024,1.024,0,0,0-1.092.951Z" fill="#fff"/>
                </g>
              </g>
              <g id="Grupo_7545" data-name="Grupo 7545">
                <g id="Grupo_7544" data-name="Grupo 7544">
                  <g id="Grupo_7543" data-name="Grupo 7543">
                    <path id="Trazado_12802" data-name="Trazado 12802" d="M8226.494,1356.071c-1.7-.625-2.131-4.111-2.13-5.3,2.047-16.244,8.9-30.711,12.521-31.462,5.93-1.229,2.425,4.914,2.425,4.914s-3.846,16.637-6.72,25.826c-.529,1.693-.708,2.788-1.8,6.68A11.533,11.533,0,0,1,8226.494,1356.071Z" fill="#edae9e"/>
                  </g>
                </g>
              </g>
              <g id="Grupo_7548" data-name="Grupo 7548">
                <g id="Grupo_7547" data-name="Grupo 7547">
                  <path id="Trazado_12804" data-name="Trazado 12804" d="M8272.741,1350.9c.806-.033,1.04.1,2.632-1.437a3.5,3.5,0,0,0,1.1-3.7c-6.873-14.44-14.745-25.285-18.059-24.673-5.422,1-2.44,7.8-2.44,7.8s6.144,10,11.647,17.405c1.592,2.141,2.575,3.12,4.166,5.132Z" fill="#edae9e"/>
                </g>
              </g>
              <g id="Grupo_7563" data-name="Grupo 7563">
                <g id="Grupo_7553" data-name="Grupo 7553">
                  <g id="Grupo_7551" data-name="Grupo 7551">
                    <path id="Trazado_12806" data-name="Trazado 12806" d="M8244.231,1304.119c.017,1.067-1.117,1.95-2.536,1.976s-2.58-.817-2.6-1.882,1.117-1.955,2.536-1.979S8244.215,1303.049,8244.231,1304.119Z" fill="#ea9690"/>
                  </g>
                  <g id="Grupo_7552" data-name="Grupo 7552">
                    <path id="Trazado_12807" data-name="Trazado 12807" d="M8256.776,1303.883c.016,1.069-1.117,1.955-2.535,1.98s-2.58-.817-2.6-1.883,1.117-1.955,2.536-1.977S8256.759,1302.817,8256.776,1303.883Z" fill="#ea9690"/>
                  </g>
                </g>
                <g id="Grupo_7554" data-name="Grupo 7554">
                  <path id="Trazado_12808" data-name="Trazado 12808" d="M8244.884,1296.836a1.279,1.279,0,0,0-.213-.048,4.516,4.516,0,0,0-.569-.061,5.045,5.045,0,0,0-.851.066l-.483.082-.488.153a4.5,4.5,0,0,0-.489.167l-.456.22-.43.206c-.13.078-.248.163-.36.234l-.745.5-.017.01a.145.145,0,0,1-.2-.029l-.007-.012a.169.169,0,0,1,.037-.226l.718-.6c.11-.093.224-.192.352-.289l.43-.268.465-.288a5.347,5.347,0,0,1,.5-.242c.174-.075.347-.152.517-.227l.525-.153a6.024,6.024,0,0,1,.961-.186,5.119,5.119,0,0,1,.723-.006,2.035,2.035,0,0,1,.271.029l.033.007a.5.5,0,0,1,.359.583h0a.466.466,0,0,1-.531.389l-.01,0h0Z" fill="#6a2616"/>
                </g>
                <g id="Grupo_7555" data-name="Grupo 7555">
                  <path id="Trazado_12809" data-name="Trazado 12809" d="M8250.621,1295.655a1.738,1.738,0,0,1,.271,0,5.289,5.289,0,0,1,.722.071,6.082,6.082,0,0,1,.942.272l.511.2.5.273a5.047,5.047,0,0,1,.484.286l.438.33.405.308c.12.109.227.221.329.321l.669.663a.174.174,0,0,1,.009.231.144.144,0,0,1-.2.02l-.018-.012-.705-.565c-.106-.081-.218-.177-.342-.267l-.412-.245-.437-.262a4.65,4.65,0,0,0-.474-.211l-.475-.2-.475-.127a5.42,5.42,0,0,0-.837-.144,4.555,4.555,0,0,0-.573.009,1.547,1.547,0,0,0-.217.027.466.466,0,0,1-.538-.379l0-.01h0a.5.5,0,0,1,.36-.581l.036-.006Z" fill="#6a2616"/>
                </g>
                <g id="Grupo_7559" data-name="Grupo 7559">
                  <g id="Grupo_7556" data-name="Grupo 7556">
                    <path id="Trazado_12810" data-name="Trazado 12810" d="M8244.2,1307.145a16.665,16.665,0,0,0,7.412-.138,3.661,3.661,0,0,1-3.691,3.538,3.537,3.537,0,0,1-3.721-3.344l0-.05Z" fill="#702323"/>
                  </g>
                  <g id="Grupo_7557" data-name="Grupo 7557">
                    <path id="Trazado_12811" data-name="Trazado 12811" d="M8246.58,1310.356a4.079,4.079,0,0,0,1.34.186,3.669,3.669,0,0,0,2.239-.721A2.667,2.667,0,0,0,8246.58,1310.356Z" fill="#bd3c42"/>
                  </g>
                  <g id="Grupo_7558" data-name="Grupo 7558">
                    <path id="Trazado_12812" data-name="Trazado 12812" d="M8251.222,1308.467a4.528,4.528,0,0,0,.39-1.457,49.312,49.312,0,0,1-7.412.138,4.408,4.408,0,0,0,.4,1.441,14.205,14.205,0,0,0,3.375.243A12.508,12.508,0,0,0,8251.222,1308.467Z" fill="#fff"/>
                  </g>
                </g>
                <g id="Grupo_7560" data-name="Grupo 7560">
                  <path id="Trazado_12813" data-name="Trazado 12813" d="M8244.988,1300.416c.012.823-.378,1.5-.873,1.508s-.909-.652-.919-1.475.377-1.5.872-1.508S8244.976,1299.591,8244.988,1300.416Z" fill="#430f0a"/>
                </g>
                <g id="Grupo_7561" data-name="Grupo 7561">
                  <path id="Trazado_12814" data-name="Trazado 12814" d="M8250.662,1300.31c.012.824.425,1.484.919,1.475s.885-.685.874-1.514-.427-1.479-.922-1.467S8250.649,1299.486,8250.662,1300.31Z" fill="#430f0a"/>
                </g>
                <g id="Grupo_7562" data-name="Grupo 7562">
                  <path id="Trazado_12815" data-name="Trazado 12815" d="M8247.968,1300.195q-.12.608-.18,1.223a2.065,2.065,0,0,1-.052.279,2.357,2.357,0,0,1-.069.268,4.6,4.6,0,0,1-.2.51l.024-.044a4.455,4.455,0,0,0-.511,1.292c-.017.076-.027.16-.038.24a1.656,1.656,0,0,0-.009.3c0,.038.012.077.021.115a1.557,1.557,0,0,0,.051.162.944.944,0,0,0,.156.245.983.983,0,0,0,.413.272,1.612,1.612,0,0,0,.852.057,3.238,3.238,0,0,1-.7-.38.849.849,0,0,1-.221-.25.43.43,0,0,1-.045-.129v-.144l.027-.139a1.846,1.846,0,0,1,.052-.178c.044-.123.083-.252.13-.38a7.305,7.305,0,0,1,.314-.712l.02-.037v-.008a3.072,3.072,0,0,0,.179-.651,1.688,1.688,0,0,0,.033-.336,2.69,2.69,0,0,0,0-.332A7.432,7.432,0,0,0,8247.968,1300.195Z" fill="#dfa69a"/>
                </g>
              </g>
              <g id="Grupo_7571" data-name="Grupo 7571">
                <path id="Trazado_12821" data-name="Trazado 12821" d="M8236.481,1366.837" fill="#fff"/>
              </g>
              <g id="Grupo_7572" data-name="Grupo 7572">
                <path id="Trazado_12822" data-name="Trazado 12822" d="M8235.134,1341.3c-.109-1.075-.326-2.185-.354-3.262a6.8,6.8,0,0,1,.137-1.335,37.351,37.351,0,0,0,2.107-6.626c1.1-3.923,1.841-6.144,1.089-10.049.024-.014-.437-1-.408-1.01a11.772,11.772,0,0,1,4.97-1.008c1.571,4.994,2.548,10.934,5.729,12.067,2.319,1.005,3.336-7.945,4.228-11.054a2.163,2.163,0,0,1,.148-.408c-.023-.115-.04-.232-.054-.35-.064-.6,4.225-.026,4.64,1.285,3.291,10.454,8.147,17.057,4.456,25.062-1.852,4.006-1.075,10.6-1.108,21.813-3.2,1.962-7.394,2.567-11.98,2.614a35.175,35.175,0,0,1-12.862-2.186c-.116-.047.408-5.4.428-5.96q.1-2.824,0-5.649C8236.169,1350.567,8235.595,1345.936,8235.134,1341.3Z" fill="#fff"/>
              </g>
              <g id="Grupo_7573" data-name="Grupo 7573">
                <path id="Trazado_12823" data-name="Trazado 12823" d="M8235.173,1341.305c-.1-1.075-.312-2.185-.339-3.262a7.124,7.124,0,0,1,.131-1.335,38.55,38.55,0,0,0,2.012-6.626c1.055-3.923,1.758-6.144,1.041-10.049.024-.014-.416-.995-.387-1.01.988-.567.954.53,1.122,1.415a30.921,30.921,0,0,1,.445,3.212,35.5,35.5,0,0,1-.074,6.387c-.282,2.943-1.469,5.623-1.5,8.626-.043,4.366,3.1,9.232,7.2,9.128q-.678.116,1.19-.029c2.312-.073,4.629-.117,6.932.025.806.05,1.613.07,2.432.073.547,0,1.5-.306,1.938.049a15.839,15.839,0,0,1-5.054,2.115c-1.2.38-2.377.808-3.59,1.151a12.723,12.723,0,0,0-3.363,1.154,11.04,11.04,0,0,0-3.965,4.2c-1.9,3.417-.482,9.072,3.106,10.272a27.352,27.352,0,0,0,4.327,1.038c-.964.046-1.963.08-2.993.089-7.2.07-9.912-1.081-9.912-1.081-.11-.047.391-5.4.408-5.96q.092-2.823,0-5.649C8236.162,1350.564,8235.614,1345.938,8235.173,1341.305Z" fill="#dbdbdb"/>
              </g>
              <g id="Grupo_7593" data-name="Grupo 7593">
                <g id="Grupo_7590" data-name="Grupo 7590">
                  <path id="Trazado_12836" data-name="Trazado 12836" d="M8262.516,1301.787c-.646,2.082-3.851,4.547-4.36,2.621-.313-1.178-.13-2.472.517-4.555s.06-3.619,1.821-2.984A3.911,3.911,0,0,1,8262.516,1301.787Z" fill="#edae9e"/>
                </g>
                <g id="Grupo_7591" data-name="Grupo 7591">
                  <path id="Trazado_12837" data-name="Trazado 12837" d="M8259.967,1298.8c-.033-.011-.063-.012-.094-.022a.227.227,0,0,1-.033.047c-.7.651-.539,2.247-.666,3.136-.054.373-.126.742-.216,1.109a2.008,2.008,0,0,0,2.094-1.545A2.16,2.16,0,0,0,8259.967,1298.8Z" fill="#e98a8f"/>
                </g>
                <g id="Grupo_7592" data-name="Grupo 7592">
                  <path id="Trazado_12838" data-name="Trazado 12838" d="M8260.674,1304.759a1.062,1.062,0,0,1-.9,1.179,1.025,1.025,0,0,1-1.094-.951v-.023a1.062,1.062,0,0,1,.9-1.178h0a1.024,1.024,0,0,1,1.093.95Z" fill="#fff"/>
                </g>
              </g>
              <g id="Grupo_7594" data-name="Grupo 7594">
                <path id="Trazado_12839" data-name="Trazado 12839" d="M8261.764,1296.335a34.436,34.436,0,0,0-1.4-7.3c-1.265-4-3.841-8.378-7.838-9.6a19.3,19.3,0,0,0-8.263-.573c-4.241.5-7.456,4.479-9.191,8.4-.7,1.572-1.5,3.5-1.313,5.269.2,1.814.593,3.664.852,5.481.139.972.241,2.788,1.023,3.389.727-1.147.241-2.767.9-3.948a5.692,5.692,0,0,1,3.222-2.065c1.117-1.4,2.344-4.221,4.079-4.829.793-.279,1.553.028,2.37-.347,2.281-1.044,2.057-3.238,2.488-5.417.392.931.291,2.03.678,2.936a16.29,16.29,0,0,0,1.117,1.751c.826,1.4,1.561,2.554,3.166,2.9a14.173,14.173,0,0,1,1.554.13c1.233.438,1.148,1.548,1.653,2.534s.174,1.9.956,2.572c1.033.89,1.109,1.646,1.3,2.979C8260.172,1299.487,8261.824,1297.812,8261.764,1296.335Z" fill="#252f3a"/>
              </g>
              <g id="Grupo_7552-2" data-name="Grupo 7552-2">
                <g id="Grupo_7360" data-name="Grupo 7360">
                  <path id="Trazado_12556" data-name="Trazado 12556" d="M8245.474,1488.266c0,2.312.688,4.224-5.417,4.186s-5.416-1.874-5.416-4.186,2.426-4.185,5.416-4.185S8245.474,1485.955,8245.474,1488.266Z" fill="#fff"/>
                  <path id="Trazado_12557" data-name="Trazado 12557" d="M8245.473,1486.223c0-2.312-2.424-4.8-5.416-4.8s-5.416,2.49-5.416,4.8a9.97,9.97,0,0,0-.007,1.067c-.055,2.09-.271,3.691,5.423,3.726s5.479-1.621,5.425-3.718A9.869,9.869,0,0,0,8245.473,1486.223Z" fill="#f4b84b"/>
                  <path id="Trazado_12558" data-name="Trazado 12558" d="M8245.473,1488.062c0,.558.04-.139.015.351-.079,1.538-.8,2.632-5.433,2.6-4.753-.03-5.388-1.148-5.436-2.733-.014-.451.02.293.02-.219,0-2.311,2.426-2.335,5.416-2.335S8245.473,1485.754,8245.473,1488.062Z" fill="#ef9d47"/>
                </g>
                <g id="Grupo_7361" data-name="Grupo 7361">
                  <path id="Trazado_12559" data-name="Trazado 12559" d="M8263.993,1488.266c0,2.312.687,4.224-5.417,4.186s-5.416-1.874-5.416-4.186,2.425-4.185,5.416-4.185S8263.993,1485.955,8263.993,1488.266Z" fill="#fff"/>
                  <path id="Trazado_12560" data-name="Trazado 12560" d="M8263.992,1486.223c0-2.312-2.423-4.8-5.416-4.8s-5.416,2.49-5.416,4.8a9.722,9.722,0,0,0-.007,1.067c-.056,2.09-.272,3.691,5.423,3.726s5.479-1.621,5.424-3.718A10.121,10.121,0,0,0,8263.992,1486.223Z" fill="#f4b84b"/>
                  <path id="Trazado_12561" data-name="Trazado 12561" d="M8263.993,1488.062c0,.558.04-.139.015.351-.079,1.538-.8,2.632-5.432,2.6-4.752-.03-5.388-1.148-5.437-2.733-.013-.451.021.293.021-.219,0-2.311,2.425-2.335,5.416-2.335S8263.993,1485.754,8263.993,1488.062Z" fill="#ef9d47"/>
                </g>
                <g id="Grupo_7407" data-name="Grupo 7407">
                  <g id="Grupo_7406" data-name="Grupo 7406">
                    <g id="Grupo_7384" data-name="Grupo 7384">
                      <path id="Trazado_12590" data-name="Trazado 12590" d="M8261.554,1365.444" fill="#edae9e"/>
                    </g>
                    <g id="Grupo_7394" data-name="Grupo 7394">
                      <path id="Trazado_12597" data-name="Trazado 12597" d="M8260.165,1365.756" fill="#fff"/>
                    </g>
                    <g id="Grupo_7405" data-name="Grupo 7405">
                      <g id="Grupo_7398" data-name="Grupo 7398">
                        <g id="Grupo_7397" data-name="Grupo 7397">
                          <path id="Trazado_12600" data-name="Trazado 12600" d="M8261.793,1432.37s5.479,16.956-.918,49.422c-.272,2.063-4.67,2.14-4.94.121-.94-7.844-4.652-42.473-4.362-46.947C8251.88,1430.174,8261.793,1432.37,8261.793,1432.37Z" fill="#edae9e"/>
                        </g>
                      </g>
                      <g id="Grupo_7399" data-name="Grupo 7399">
                        <path id="Trazado_12601" data-name="Trazado 12601" d="M8263.937,1435.955s7.237-39.006-.393-58.139l-14.46-.369s-1.036,12.39-1.142,27.236c-.1,13.738,2.464,28.364,3.012,33.811C8250.954,1438.494,8258.166,1442.345,8263.937,1435.955Z" fill="#edae9e"/>
                      </g>
                      <g id="Grupo_7400" data-name="Grupo 7400">
                        <path id="Trazado_12602" data-name="Trazado 12602" d="M8234.757,1366.064" fill="#edae9e"/>
                      </g>
                      <g id="Grupo_7401" data-name="Grupo 7401">
                        <path id="Trazado_12603" data-name="Trazado 12603" d="M8236.147,1366.376" fill="#fff"/>
                      </g>
                      <g id="Grupo_7403" data-name="Grupo 7403">
                        <g id="Grupo_7402" data-name="Grupo 7402">
                          <path id="Trazado_12604" data-name="Trazado 12604" d="M8235.74,1432.472s-5.048,17.153,1.892,49.28c.466,2.18,4.791,2.1,4.984-.234.894-10,3.735-42.644,3.4-46.653C8245.6,1430.081,8235.74,1432.472,8235.74,1432.472Z" fill="#edae9e"/>
                        </g>
                      </g>
                      <g id="Grupo_7404" data-name="Grupo 7404">
                        <path id="Trazado_12605" data-name="Trazado 12605" d="M8247.294,1435.955s7.237-39.006-.394-58.139l-14.459-.369s-1.037,12.39-1.144,27.236c-.1,13.738,2.463,28.364,3.012,33.811C8234.312,1438.494,8241.523,1442.345,8247.294,1435.955Z" fill="#edae9e"/>
                      </g>
                      <path id="Trazado_12606" data-name="Trazado 12606" d="M8267.849,1441.934l.017-.011c.279-5.47,1.7-24.824.936-38.542-.51-9.141-1.121-17.187-2.148-22.134-.839-5.592-2.474-12.459-5.258-15.415a10.71,10.71,0,0,0-.714-.825c0,.014-.375.285-.381.3-3.4,1.048-7.616,1.147-11.674,1.1a80.509,80.509,0,0,1-12.557-1.03v-.116a20.859,20.859,0,0,0-1.5,2.323,51.428,51.428,0,0,0-5.138,17.476c-.665,4.943-.611,11.683-.658,18.9-.081,11.323,1.51,26.394,2.377,34.4-.276,1.165-.467,2.412-.735,3.595-1.456,6.388-3.493,13.508-3.493,20.081,0,1.818-.376,3.873,1.612,4.47,1.575.47,4.063-.124,5.925,0,.146.01.285.025.421.043,3.019.428,9.378,4.53,11.353.408.918-1.92.815-5.178,1.122-7.3a105.061,105.061,0,0,0,.951-13.476c.013-.886.131-2.1.231-3.408.184-1.589.547-4.876.952-9.235.129.917.255,1.78.375,2.6-.622,2.759-.07,6.938-.1,9.128a104.564,104.564,0,0,0,.564,13.5c.245,2.13.046,5.385.911,7.329,1.856,4.174,8.329.257,11.358-.083.136-.015.277-.025.424-.031,1.863-.072,4.334.592,5.921.168,2-.536,1.688-2.6,1.74-4.421C8270.868,1455.284,8269.113,1448.262,8267.849,1441.934Z" fill="#0084c9"/>
                    </g>
                  </g>
                </g>
                <path id="Trazado_12645" data-name="Trazado 12645" d="M8267.842,1441.934l.016-.012c.281-5.469,1.7-24.824.936-38.542-.509-9.14-1.121-17.187-2.146-22.134-.84-5.592-2.181-12.108-4.965-15.064-.223-.286-.7-.964-.949-1.227,0,.015-.433.337-.438.35-3.4,1.048-7.616,1.147-11.674,1.1-.425,0-1.3,0-1.3-.025.917.22,1.357.714,6.728,2.253,1.693.6,4.13,2.526,5.2,7.627,1.383,6.695,3.135,14.871,4.126,21.645s.877,17.286.935,22.425-1.517,12.088-2.1,17.052,1.07,11.309,1.791,14.794,3.29,2.882,3.814,5.373c.816,5.936-4.382,4.944-5.957,6.462-2.22,2.57-9.011,3.892-7.775,3.975,2.72.178,6.43-1.747,8.513-1.981.136-.015.277-.026.423-.032,1.864-.072,4.333.593,5.921.168,2-.536,1.688-2.6,1.741-4.42C8270.861,1455.284,8269.106,1448.264,8267.842,1441.934Z" fill="#027aaf" opacity="0.75" style="isolation: isolate"/>
                <path id="Trazado_12646" data-name="Trazado 12646" d="M8248.526,1399.739c-.7,8.409-.772,15.071-.694,23.735s-4.966,21.683-5.023,26.511-.388,5.666-.585,11.213-7.26-.8-8.058,1.631-4.087,3.211-5.762,3.885c1.573.47,4.063-.124,5.924,0,.144.01.286.025.422.043,3.019.428,9.378,4.53,11.352.408.917-1.92.815-5.178,1.121-7.3a104.756,104.756,0,0,0,.953-13.478c.013-.885.129-2.1.23-3.408.183-1.589.547-4.875.953-9.235.773-7.4-.259-27.23-.64-32.829A8.86,8.86,0,0,0,8248.526,1399.739Z" fill="#027aaf" opacity="0.75" style="isolation: isolate"/>
              </g>
              <path id="Trazado_5242" data-name="Trazado 5242" d="M8295.116,1332.927l-9.546,9.611-3.946,3.976-2.918-6.01.769-1.085,3.622-2.87,8.312-6.584Z" fill="#edae9e"/>
              <path id="Trazado_5243" data-name="Trazado 5243" d="M8291.826,1326.942a58.894,58.894,0,0,1,3.421-6.411.653.653,0,0,1,1.12.5c.046.237-1.87,4.306-1.87,4.306l.21.129s3.15-3.832,3.731-4.314,1.387.242,1.2.911c-.014.187-3.258,5.028-3.258,5.028l.129.145s3.474-3.234,4.07-3.613,1.289.507.907,1.134a37.74,37.74,0,0,1-3.433,3.59l.107.341s2.909-1.607,3.53-1.87c.837-.354,1.208.885.729,1.148-.192.137-4.627,2.992-4.627,2.992l-1.012,1.017Z" fill="#edae9e"/>
              <path id="Trazado_5244" data-name="Trazado 5244" d="M8291.109,1331.086l2.8,2.7a5.749,5.749,0,0,0,3.726-3.053c-.717-1.541-3.374-1.213-3.374-1.213a3.428,3.428,0,0,0-.5-1.9,3.63,3.63,0,0,0-2.593-.995Z" fill="#edae9e"/>
              <path id="Trazado_5244-2" data-name="Trazado 5244" d="M8291.069,1329.912c-.579-3.927.424-5.085.087-7.423a.423.423,0,0,1,.413-.433.444.444,0,0,1,.12.014,1.285,1.285,0,0,1,1.041,1.271c.061.345-.366,2.422-.277,2.357a3.631,3.631,0,0,1,1.433,2.379,3.446,3.446,0,0,1-.773,1.807s2.3,1.376,1.914,3.032a5.752,5.752,0,0,1-4.815.115Z" fill="#edae9e"/>
              <path id="Trazado_5245" data-name="Trazado 5245" d="M8294.157,1329.744a3.235,3.235,0,0,1,3.106.889,2.314,2.314,0,0,0-2.681-1.789c.546-.122-.484-2.539-1.752-2.131.339.445.87.613,1.139,1.156A3.793,3.793,0,0,1,8294.157,1329.744Z" fill="#bc4681" opacity="0.11"/>
            </g>
            <g id="Grupo_7597" data-name="Grupo 7597">
              <path id="Trazado_12840" data-name="Trazado 12840" d="M8218.836,1383.451a38.212,38.212,0,0,1-2.6,5.672c-1.063,1.547-.873,3.087-.4,5.4.36,1.745,4.077,3.623,4.4,2.152s-2.772-1.372-1.842-3.453c2.009-4.491,4.5,1.09,4.338-.918a32.753,32.753,0,0,1,.375-5.582S8220.664,1382.871,8218.836,1383.451Z" fill="#edae9e"/>
              <g id="Grupo_7596" data-name="Grupo 7596">
                <path id="Trazado_12841" data-name="Trazado 12841" d="M8212.251,1400.843s-4.627-1.205-5.928,5.267-.307,42.142.286,45.9,5.835,5.408,7.325,4.986" fill="#db6121"/>
                <path id="Trazado_12842" data-name="Trazado 12842" d="M8215.118,1400.936s-4.625-1.205-5.927,5.266-.307,42.142.286,45.9,5.837,5.409,7.326,4.987" fill="#c9501b"/>
                <path id="Trazado_12843" data-name="Trazado 12843" d="M8223.889,1393.778s1.02,51.067,1.907,51.067.59-.791.788-4.008c.2-3.254-1.173-46.679-1.173-46.679Z" fill="#bcbcbc"/>
                <path id="Trazado_12844" data-name="Trazado 12844" d="M8222.461,1392.33a2.615,2.615,0,0,1-.879,3.327,2.068,2.068,0,0,1-2.83-.735,2.109,2.109,0,0,1-.126-.254,2.616,2.616,0,0,1,.871-3.322,2.066,2.066,0,0,1,2.832.714,2.1,2.1,0,0,1,.132.262Z" fill="#2a2a3d"/>
                <path id="Trazado_12845" data-name="Trazado 12845" d="M8232.595,1453.773c-.713,1.968-14.969,6.744-18.87,6.15-.69-.1-1.223-2-1.619-5.077-1.859-14.275-.9-53.92-.034-56.686.51-1.606,2.539-2.945,4.526-3.907a10.825,10.825,0,0,1,7.246-.846,9.814,9.814,0,0,1,2.968,1.218,6.9,6.9,0,0,1,2.158,1.987C8231.094,1399.831,8233.312,1451.805,8232.595,1453.773Z" fill="#de4650"/>
                <path id="Trazado_12846" data-name="Trazado 12846" d="M8223.846,1393.407c1.966,9.291,3.815,53.819,3.151,55.624-.548,1.519-9.2,4.722-14.89,5.81-1.858-14.275-.9-53.921-.032-56.686.509-1.606,2.539-2.945,4.525-3.907A10.826,10.826,0,0,1,8223.846,1393.407Z" fill="#ff7174"/>
                <path id="Trazado_12847" data-name="Trazado 12847" d="M8218.452,1393.547s2.237,56.909,1.231,55.11-2.212-54.781-2.212-54.781.011-.591.347-.713a.465.465,0,0,1,.6.273c0,.015.01.03.014.045A.477.477,0,0,1,8218.452,1393.547Z" fill="#de4650"/>
              </g>
            </g>
          </g>
          <g id="Grupo_7599" data-name="Grupo 7599">
            <path id="Trazado_12848" data-name="Trazado 12848" d="M8237.955,1335.128c.612-2.548,3.4-13.412,4.3-17.161-7.564.111-11.91,6.128-14.576,11.533a123.437,123.437,0,0,0-8.467,23.4,127.051,127.051,0,0,0-3.121,15.206c-.111.858-.577,12.441-.475,12.419a37.29,37.29,0,0,0,3.881-1.163,9.212,9.212,0,0,1,3.951-.952c1.175.108,2.275.392,3.465.408,2.5.027,2.156-1.223,2.447-3.771,1.068-9.527,4.54-18.425,6.16-27.832C8236.219,1343.165,8236.991,1339.121,8237.955,1335.128Z" fill="#f1aa71"/>
          </g>
        </g>
        <g id="Grupo_7601" data-name="Grupo 7601">
          <path id="Trazado_12849" data-name="Trazado 12849" d="M8282.622,1359.2c-1.918.765-3.975,1.55-6.038,2.594-7.422,3.75-2.845,19.679-2.507,26.514.183,3.684,1.893,8.686,1.159,11.919-.347-3.286-1.941-7.2-3.267-10.318a191.769,191.769,0,0,1-9.795-28.744c-2.375-9.554-.776-19.866-2.571-29.632-.481-2.631-1.056-5.24-1.743-7.812-.5-1.869-2.21-3.622-2.612-5.424,1-.468,2.923.644,3.834,1.114a16.825,16.825,0,0,1,4.106,2.841c3.3,3.218,5.968,7.245,9.575,10.057,1.56,1.223,3.913,2.885,5.851,2.609,2.412-.342,5.21-2.15,7.383-3.327,3.838-2.077,6.058,8.737,6.415,11.251C8294.02,1354.244,8289.112,1356.611,8282.622,1359.2Z" fill="#f1aa71"/>
        </g>
      </g>
    </g>
    <g id="Grupo_7567" data-name="Grupo 7567" transform="translate(-20 -3)">
      <g id="Grupo_7502" data-name="Grupo 7502" transform="translate(295.711 163.285)">
        <g id="Grupo_7501" data-name="Grupo 7501">
          <g id="Grupo_7500" data-name="Grupo 7500">
            <path id="Trazado_12701" data-name="Trazado 12701" d="M7060.518,2177.264a32.562,32.562,0,0,1-3.693,4.355c-1.355,1.107-1.479,2.492-1.478,4.618,0,1.6,3.262,4.085,3.878,2.874s-2.438-1.825-1.107-3.428c2.875-3.46,4.188,1.971,4.435.185a26.2,26.2,0,0,1,1.493-4.782S7062.427,2177.172,7060.518,2177.264Z" transform="translate(-7055.347 -2079.496)" fill="#ffd5b6"/>
            <g id="Grupo_7497" data-name="Grupo 7497" transform="translate(0.513)">
              <path id="Trazado_12702" data-name="Trazado 12702" d="M7083.216,2082.124a21.333,21.333,0,0,1,9.431,1.19c.485.175.963.374,1.431.594,6.208,2.937,9.132,10.028,8.32,16.639-.828,6.746-.237,8.639,3.313,11.479s6.745,12.781-2.367,17.87-32.662,3.786-32.662,3.786-8.758,1.184-8.875-9.586,8.047-11.361,7.574-20.354c-.3-5.706.9-12.138,4.47-16.74A13.365,13.365,0,0,1,7083.216,2082.124Z" transform="translate(-7055.689 -2082.011)" fill="#50030e"/>
              <path id="Trazado_12703" data-name="Trazado 12703" d="M7076.89,2099.485a1.094,1.094,0,0,0-1.272-.479,1.716,1.716,0,0,0-1.022,1,2.453,2.453,0,0,0,.076,2.06,4.852,4.852,0,0,0,2.568,1.908" transform="translate(-7055.356 -2081.563)" fill="#ffd5b6"/>
              <path id="Trazado_12704" data-name="Trazado 12704" d="M7080.451,2117.542s5.749,2.214,9.193.334a4.6,4.6,0,0,0,1.238-.991,6.387,6.387,0,0,1-1.012-5.673c.047-.131.088-.295-.013-.39l-3.364-.136-3.848-.151c.027.3.041.609.055.917v.075a17.828,17.828,0,0,1-.185,3.083,5.188,5.188,0,0,1-.547,1.845A2.138,2.138,0,0,1,7080.451,2117.542Z" transform="translate(-7055.197 -2081.258)" fill="#ffd5b6"/>
              <path id="Trazado_12705" data-name="Trazado 12705" d="M7082.522,2111.475a.974.974,0,0,0,.124.047c.833.362,5.659,2.557,6.944,6.35a4.6,4.6,0,0,0,1.238-.991,6.387,6.387,0,0,1-1.012-5.673c.047-.131.088-.295-.013-.39l-3.364-.136-3.793.766Z" transform="translate(-7055.142 -2081.254)" fill="#f09f86" opacity="0.3" style="mix-blend-mode: multiply;isolation: isolate"/>
              <path id="Trazado_12706" data-name="Trazado 12706" d="M7076.828,2105.426c1.128,3.042,2.125,5.159,5.113,6.4a.088.088,0,0,0,.041.014c2.987,1.229,7.8,1.031,10.376-.909a8.57,8.57,0,0,0,3.124-4.662,1.789,1.789,0,0,0,2.509-1.517c.444-2.331.2-5.913-3.22-3.842-1.784.26-10.7-4.5-12.57-11.176-1.1,2.809-4.033,4.689-5.271,5.38a1.456,1.456,0,0,0-.717.956A17.405,17.405,0,0,0,7076.828,2105.426Z" transform="translate(-7055.319 -2081.807)" fill="#ffd5b6"/>
              <path id="Trazado_12707" data-name="Trazado 12707" d="M7095.856,2105.525c-1.128,3.042-2.482,5.25-5.469,6.494a.091.091,0,0,1-.041.014c-2.987,1.23-7.8,1.032-10.376-.908a8.565,8.565,0,0,1-3.125-4.662s-1.546-5.02.35-5.4c1.062.154,4.775-1.452,8-4.185,1.1,1.149,6.416,6.84,11.416,3.212A14.291,14.291,0,0,1,7095.856,2105.525Z" transform="translate(-7055.308 -2081.618)" fill="#ffd5b6"/>
              <path id="Trazado_12708" data-name="Trazado 12708" d="M7060.385,2177.976c1.614,1.081,1.19,1.074,2.01,1.942a12.246,12.246,0,0,1,1.518,1.879s8.88-19.891,9.829-31.2a33.527,33.527,0,0,0-7.287-.177c-.915.143-.827.383-.827.383C7065.389,2151.291,7063.933,2170.99,7060.385,2177.976Z" transform="translate(-7055.727 -2080.208)" fill="#ffd5b6"/>
              <path id="Trazado_12709" data-name="Trazado 12709" d="M7067.022,2198.238s-3.458,30.833-2.462,36.185,13.53,31.721,14.631,35.349,2.366,7.177,1.774,8.483a29.714,29.714,0,0,1-3.262,4.308l7.123,1.657s3.527-2.416,3.9-3.971-1.717-5.28-2.917-7.6-3.352-19.345-4.762-24.374-6.06-13.387-6.2-14.949,6.69-27.01,7.584-32.336Z" transform="translate(-7055.621 -2078.942)" fill="#ffd5b6"/>
              <g id="Grupo_7492" data-name="Grupo 7492" transform="translate(17.087 196.723)">
                <path id="Trazado_12710" data-name="Trazado 12710" d="M7090.335,2277.733s.488,1.343.63,1.951-2.1,3.512-6.244,6.38c-2.941,2.27-5.563,3.835-8.312,3.777-1.754-.037-3.2-.632-3.4-.991a11.622,11.622,0,0,1-.5-1.727" transform="translate(-7072.494 -2273.567)" fill="#ffbb81"/>
                <path id="Trazado_12711" data-name="Trazado 12711" d="M7087.534,2273.688a13.105,13.105,0,0,1-7.079,1.761s-.117-.065-.474.337c-.825.928-1.747,4.675-3.246,5.875s-4.119,3.732-4.239,5.373,5.047,3.3,9.63-.308c3.6-2.838,7.951-6.452,8.454-7.463s-1.956-4.018-2.046-4.557S7088.188,2273.579,7087.534,2273.688Z" transform="translate(-7072.495 -2273.674)" fill="#006551"/>
                <path id="Trazado_12712" data-name="Trazado 12712" d="M7081.505,2279.818s-2.661-1.7-3.589-1.138c-.6.363.921.2,2.2.992S7082.127,2280.465,7081.505,2279.818Z" transform="translate(-7072.354 -2273.545)" fill="#ddcdc3"/>
                <path id="Trazado_12713" data-name="Trazado 12713" d="M7080.88,2281.031s-2.661-1.7-3.589-1.138c-.6.362.922.2,2.2.992S7081.5,2281.678,7080.88,2281.031Z" transform="translate(-7072.371 -2273.513)" fill="#ddcdc3"/>
                <path id="Trazado_12714" data-name="Trazado 12714" d="M7080.255,2282.244s-2.661-1.7-3.589-1.139c-.6.364.922.2,2.2.993S7080.877,2282.891,7080.255,2282.244Z" transform="translate(-7072.388 -2273.481)" fill="#ddcdc3"/>
              </g>
              <path id="Trazado_12715" data-name="Trazado 12715" d="M7081.476,2197.219s5.338,30.213,6.234,36.8,4.855,41.621,3.992,44.73-4.035,6.844-4.035,6.844l6.837,4.528s3.656-3.071,4-4.381-1.577-4.866-1.387-6.753,1.476-30.7,2.006-36.191-.8-10.687-1.142-15.373,1.125-28.4,1.125-28.4" transform="translate(-7055.17 -2078.969)" fill="#ffd5b6"/>
              <g id="Grupo_7494" data-name="Grupo 7494" transform="translate(23.603 202.076)">
                <g id="Grupo_7493" data-name="Grupo 7493">
                  <path id="Trazado_12716" data-name="Trazado 12716" d="M7099.089,2284.715s-.055,1.427-.155,2.043-3.274,2.456-8.2,3.54c-3.582.987-6.6,1.443-9.123.348-1.609-.7-2.719-1.8-2.767-2.2a11.462,11.462,0,0,1,.191-1.789" transform="translate(-7078.842 -2278.736)" fill="#ffbb81"/>
                  <path id="Trazado_12717" data-name="Trazado 12717" d="M7098.065,2279.964a13.1,13.1,0,0,1-7.219-1.051s-.083-.1-.566.132c-1.115.545-3.388,3.666-5.23,4.207s-5.224,1.895-5.957,3.367,3.42,4.969,9.03,3.364c4.41-1.262,9.8-2.961,10.65-3.707s-.289-4.46-.167-4.991S7098.712,2280.111,7098.065,2279.964Z" transform="translate(-7078.838 -2278.89)" fill="#06755f"/>
                  <path id="Trazado_12718" data-name="Trazado 12718" d="M7090.034,2283.47s-1.819-2.581-2.891-2.414c-.693.109.78.53,1.661,1.752S7090.364,2284.3,7090.034,2283.47Z" transform="translate(-7078.628 -2278.833)" fill="#ddcdc3"/>
                  <path id="Trazado_12719" data-name="Trazado 12719" d="M7089,2284.355s-1.818-2.581-2.891-2.413c-.693.109.779.53,1.661,1.752S7089.326,2285.19,7089,2284.355Z" transform="translate(-7078.655 -2278.809)" fill="#ddcdc3"/>
                  <path id="Trazado_12720" data-name="Trazado 12720" d="M7087.958,2285.241s-1.818-2.581-2.89-2.413c-.693.109.779.53,1.662,1.751S7088.289,2286.076,7087.958,2285.241Z" transform="translate(-7078.683 -2278.786)" fill="#ddcdc3"/>
                </g>
              </g>
              <g id="Grupo_7496" data-name="Grupo 7496" transform="translate(9.472 69.941)">
                <g id="Grupo_7495" data-name="Grupo 7495">
                  <path id="Trazado_12721" data-name="Trazado 12721" d="M7065.075,2201.543c4.09.513,8.819.887,13.529,1.154,1.232.069,2.474.127,3.687.187,7.657.355,14.761.463,18.309.493.809-6.12,1.577-11.5,1.577-11.5,2.444-12.032-1.331-25.1-3.961-37.092l-4.454-4.424-.207-.207-.158.01-2.759.246-16.5,1.438s-.208,1.133-.572,3.095c-.02.109-.039.236-.068.355C7071.785,2164.531,7067.094,2189.886,7065.075,2201.543Z" transform="translate(-7065.075 -2150.153)" fill="#0e222d"/>
                </g>
              </g>
              <path id="Trazado_12722" data-name="Trazado 12722" d="M7109.409,2151.349c.406,8.071,3.892,20.661,5.531,28.576a33.18,33.18,0,0,0,1.863,2.982s1.95,3.809,1.051,6.264c-.51,2.042-4.327,2.553-5.261,1.953-1.691-1.1-2-3.979-2-3.979l-.462-4.368c-2.715-8.524-6.447-20.844-9.162-29.368Z" transform="translate(-7054.655 -2080.18)" fill="#ffd5b6"/>
              <path id="Trazado_12723" data-name="Trazado 12723" d="M7090.871,2115.336a7.712,7.712,0,0,1-9.934.077,10,10,0,0,0-1.309,1.772s5.467,5.159,12.7-.077A14.36,14.36,0,0,0,7090.871,2115.336Z" transform="translate(-7055.219 -2081.131)" fill="#006551"/>
              <path id="Trazado_12724" data-name="Trazado 12724" d="M7060.172,2150.562c0,1.463,1.08,2.079,3.083,2.461a52.054,52.054,0,0,0,8.934.458h.021c.026.013.062.034.1.054.075.054.157.123.252.206a2.437,2.437,0,0,1,.212.2,18.083,18.083,0,0,0,1.4,1.237,10.119,10.119,0,0,0,1.121.773c1.7,1,11.238,1.463,17.63.923,5.857-.54,5.932-1,7.163-1.7a8.483,8.483,0,0,0,2.837.369,19.085,19.085,0,0,0,5.939-.984c2.236-.848,1.853-.691,2.776-1.845s1.538-.465,1.771-1.313-.773-1.23-1.621-2.925.308-1.845-.847-5.16-2.079-8.777-3.616-14.554a14.137,14.137,0,0,0-7.45-9.275,8.464,8.464,0,0,0-1.716-.581c-.588-.123-1.142-.267-1.647-.409-.144-.041-.281-.082-.417-.123a19.058,19.058,0,0,1-3.248-1.313c-4.388,1-12.707.075-12.707.075a17.152,17.152,0,0,1-3.876,1.388c-4.614.93-9.084,11.244-10.083,13.787s-3.082,9.774-4.388,11.394-1.388,1.7-.848,3c.417,1.012-.267,1.886-.6,2.9A2.914,2.914,0,0,0,7060.172,2150.562Z" transform="translate(-7055.732 -2081.086)" fill="#006551"/>
              <path id="Trazado_12725" data-name="Trazado 12725" d="M7072.446,2153.9a17.98,17.98,0,0,0,1.4,1.237,10.12,10.12,0,0,0,1.121.773c1.7,1,11.238,1.462,17.63.922,5.857-.54,5.932-1,7.163-1.7a8.476,8.476,0,0,0,2.837.37,19.093,19.093,0,0,0,5.939-.984c2.236-.848,1.853-.691,2.776-1.845s1.538-.465,1.771-1.313-.773-1.23-1.621-2.925.308-1.845-.847-5.161-2.079-8.777-3.616-14.554a14.138,14.138,0,0,0-7.45-9.275,8.494,8.494,0,0,0-1.716-.581c-.588-.123-1.142-.267-1.647-.409-.144-.042-.281-.083-.417-.123-.041.013-.082.021-.124.034C7095.646,2118.374,7100.676,2155.784,7072.446,2153.9Z" transform="translate(-7055.408 -2081.052)" opacity="0.2" style="mix-blend-mode: multiply;isolation: isolate"/>
              <path id="Trazado_12726" data-name="Trazado 12726" d="M7117.365,2187.9a1.872,1.872,0,0,1-.794,1.916,4.693,4.693,0,0,1-2.061.726,2.947,2.947,0,0,1-1.928-.143,2.358,2.358,0,0,1-1.037-1.784,3.063,3.063,0,0,1,.676-2.53c.714-.751,2.564-1.908,3.54-1.558s1.435,2.017,1.577,3.043C7117.4,2188.043,7117.365,2187.9,7117.365,2187.9Z" transform="translate(-7054.377 -2079.306)" fill="#ffd5b6"/>
              <path id="Trazado_12727" data-name="Trazado 12727" d="M7099.727,2152.723a4.461,4.461,0,0,0-.208-1.4,2.169,2.169,0,0,1-.09-1.1c.161-.509.631-.653.879-1.083.821-1.428.3-2.722-.16-4.082a19.946,19.946,0,0,1-1.088-4.783c-.146-1.835.626-3.541.5-5.323,0-.038.062-.047.068-.009a5.767,5.767,0,0,1-.148,2.071,12.66,12.66,0,0,0,.022,4.419,18.783,18.783,0,0,0,.919,3.015,11.653,11.653,0,0,1,5.486-7.75c.063-.035.142.055.081.1a16.32,16.32,0,0,0-5.509,7.813,10.946,10.946,0,0,1,.7,2.834,2.37,2.37,0,0,1-.342,1.569c-.17.254-.477.412-.64.659-.8,1.224-.43,1.167-.111,2.165.412,1.29-.1,2.131-1.161,2.927-.128.1-.274-.109-.168-.218A2.352,2.352,0,0,0,7099.727,2152.723Z" transform="translate(-7054.715 -2080.614)" fill="#006551" opacity="0.5" style="mix-blend-mode: multiply;isolation: isolate"/>
              <path id="Trazado_12728" data-name="Trazado 12728" d="M7086.935,2155.693a75.927,75.927,0,0,0,9.488-22.455c.506-2.085.923-4.2,1.339-6.3q.74-3.741,1.484-7.485a8.464,8.464,0,0,0-1.716-.581c-.588-.123-1.142-.267-1.647-.409a.1.1,0,0,1,.007.027s-2.479,24.108-11.926,36.392C7083.677,2157.237,7086.935,2155.693,7086.935,2155.693Z" transform="translate(-7055.105 -2081.049)" fill="#8dd6ee"/>
              <path id="Trazado_12729" data-name="Trazado 12729" d="M7072.213,2152.963l1.408,1.229,1.456-1.366a5.873,5.873,0,0,1-1.647-2.153,14.054,14.054,0,0,1-.211-3.4c-.171.786-.575,1.5-.773,2.29a10.26,10.26,0,0,0-.136,3.233A.155.155,0,0,1,7072.213,2152.963Z" transform="translate(-7055.415 -2080.288)" fill="#8dd6ee"/>
              <path id="Trazado_12730" data-name="Trazado 12730" d="M7073.257,2154.1c3.2-.616,9.081-.089,12.685.346,8.957-12.5,11.335-35.583,11.335-35.583a.117.117,0,0,0-.006-.028c.506.144,1.06.288,1.647.411a8.4,8.4,0,0,1,1.715.581q-.748,3.743-1.483,7.484c-.417,2.106-.833,4.218-1.34,6.3a75.969,75.969,0,0,1-8.78,21.278c.031.2.451,2.9.865,7.151-7.7,2.94-18.162-.492-18.306-.444A67.466,67.466,0,0,1,7073.257,2154.1Z" transform="translate(-7055.432 -2081.039)" opacity="0.2" style="mix-blend-mode: multiply;isolation: isolate"/>
              <path id="Trazado_12731" data-name="Trazado 12731" d="M7055.846,2135.459" transform="translate(-7055.846 -2080.6)" fill="none" stroke="#ff9a00" stroke-miterlimit="10" stroke-width="0.666"/>
              <path id="Trazado_12732" data-name="Trazado 12732" d="M7070.556,2160.322c.143-.047,10.6,3.384,18.3.444-.43-4.423-.868-7.17-.868-7.17-.143-.047-10.964-1.695-15.769-.772A66.8,66.8,0,0,0,7070.556,2160.322Z" transform="translate(-7055.458 -2080.149)" fill="#8dd6ee"/>
              <path id="Trazado_12733" data-name="Trazado 12733" d="M7072.213,2152.824l6.986,4.158,8.749-3.386C7087.805,2153.549,7077.019,2151.9,7072.213,2152.824Z" transform="translate(-7055.415 -2080.149)" fill="#20435b" opacity="0.3" style="mix-blend-mode: multiply;isolation: isolate"/>
              <path id="Trazado_12734" data-name="Trazado 12734" d="M7072.181,2152.824l7.02,3.486,8.749-2.714C7087.806,2153.549,7076.985,2151.9,7072.181,2152.824Z" transform="translate(-7055.416 -2080.149)" fill="#8dd6ee"/>
              <path id="Trazado_12735" data-name="Trazado 12735" d="M7092.895,2101.282c.458,2.262-.62,12.608-10.764,11.125,3.035.986,7.668.652,10.244-1.29a10.213,10.213,0,0,0,3.25-4.8,1.752,1.752,0,0,0,2.355-1.566c.444-2.331.2-5.913-3.22-3.842-1.784.26-10.7-4.5-12.57-11.176-1.1,2.809-4.033,4.689-5.271,5.38a1.456,1.456,0,0,0-.717.956s5.3-2.037,5.947-5.044C7084.022,2095.587,7088.909,2100.468,7092.895,2101.282Z" transform="translate(-7055.309 -2081.807)" fill="#f09f86" opacity="0.3" style="mix-blend-mode: multiply;isolation: isolate"/>
              <path id="Trazado_12736" data-name="Trazado 12736" d="M7090.489,2118.06a4.5,4.5,0,0,1-2.091,1.155,7.76,7.76,0,0,1-1.786.162,13.872,13.872,0,0,1-5.031-.751" transform="translate(-7055.167 -2081.059)" fill="none" stroke="#006551" stroke-miterlimit="10" stroke-width="0.666" opacity="0.3" style="mix-blend-mode: multiply;isolation: isolate"/>
              <path id="Trazado_12737" data-name="Trazado 12737" d="M7078.256,2201.9c1.232.069,2.474.127,3.687.187.778-10.7,1.576-21.581,1.576-21.581S7080.346,2192.12,7078.256,2201.9Z" transform="translate(-7055.254 -2079.411)" opacity="0.2" style="mix-blend-mode: multiply;isolation: isolate"/>
              <path id="Trazado_12738" data-name="Trazado 12738" d="M7060.172,2150.039c0,1.463,1.08,2.079,3.083,2.461a52.054,52.054,0,0,0,8.934.458h.021c.026.013.062.034.1.054-.226-.643-.308-1.367.643-4.785a6.27,6.27,0,0,0-.445-4.382c-.725-1.62-.594-3.308.062-6.971,0,0-5.2,17.2-12.222,12.214A2.914,2.914,0,0,0,7060.172,2150.039Z" transform="translate(-7055.732 -2080.563)" opacity="0.2" style="mix-blend-mode: multiply;isolation: isolate"/>
              <path id="Trazado_12739" data-name="Trazado 12739" d="M7068.484,2130.058c2.325,1.416,3.384,4.327,3.863,7a12.028,12.028,0,0,0-.787,5.352,8.711,8.711,0,0,0,.568,2.112,5.468,5.468,0,0,1,.287,4.272,7.205,7.205,0,0,0-.444,4.348h.021a1.7,1.7,0,0,1,.348.26.137.137,0,0,0,.069-.144,10.26,10.26,0,0,1,.136-3.233c.2-.786.6-1.5.773-2.29a3.457,3.457,0,0,0,.082-.513c.1-1.435-.84-2.666-1.182-4.012a9.934,9.934,0,0,1,.28-5.195c.013.116.021-.1.082-.294a56.514,56.514,0,0,0,1.934-6.507.043.043,0,0,0-.083-.021c-.471,1.839-1.3,3.651-1.954,5.483a12.221,12.221,0,0,0-1.025-3.507c-.581-1.251-1.415-2.966-2.891-3.28C7068.458,2129.867,7068.389,2130,7068.484,2130.058Z" transform="translate(-7055.514 -2080.747)" fill="#006551" opacity="0.5" style="mix-blend-mode: multiply;isolation: isolate"/>
              <path id="Trazado_12740" data-name="Trazado 12740" d="M7082.971,2089.13a18.972,18.972,0,0,0,5.447,6.558,26.72,26.72,0,0,0,7.559,4.021" transform="translate(-7055.13 -2081.823)" fill="none" stroke="#ffccbf" stroke-miterlimit="10" stroke-width="0.666" style="mix-blend-mode: multiply;isolation: isolate"/>
              <path id="Trazado_12741" data-name="Trazado 12741" d="M7084.754,2089.978a16.827,16.827,0,0,0,9.007,6.124" transform="translate(-7055.083 -2081.8)" fill="none" stroke="#ffccbf" stroke-miterlimit="10" stroke-width="0.666" style="mix-blend-mode: multiply;isolation: isolate"/>
              <path id="Trazado_12742" data-name="Trazado 12742" d="M7080.872,2089.577a11.03,11.03,0,0,1-4.361,4.3" transform="translate(-7055.301 -2081.811)" fill="none" stroke="#ffccbf" stroke-miterlimit="10" stroke-width="0.666" style="mix-blend-mode: multiply;isolation: isolate"/>
              <path id="Trazado_12743" data-name="Trazado 12743" d="M7092.087,2098.6a2.331,2.331,0,0,0-1.527-1.391,1.551,1.551,0,0,0-1.775.843" transform="translate(-7054.977 -2081.611)" fill="none" stroke="#6e2200" stroke-linecap="round" stroke-linejoin="round" stroke-width="0.666"/>
              <path id="Trazado_12744" data-name="Trazado 12744" d="M7082.647,2098.293q-.2-.226-.4-.443a1.815,1.815,0,0,0-.944-.626,1.856,1.856,0,0,0-1.5.739" transform="translate(-7055.214 -2081.609)" fill="none" stroke="#6e2200" stroke-linecap="round" stroke-linejoin="round" stroke-width="0.666"/>
            </g>
            <g id="Grupo_7498" data-name="Grupo 7498" transform="translate(35.358 18.531)">
              <path id="Trazado_12745" data-name="Trazado 12745" d="M7089.795,2101.183c-.01.624.309,1.136.712,1.143s.74-.495.75-1.118-.308-1.136-.712-1.143S7089.806,2100.559,7089.795,2101.183Z" transform="translate(-7089.795 -2100.065)" fill="#6e2200"/>
            </g>
            <g id="Grupo_7499" data-name="Grupo 7499" transform="translate(25.469 18.427)">
              <path id="Trazado_12746" data-name="Trazado 12746" d="M7081.624,2101.106c-.011.623-.348,1.124-.751,1.118s-.723-.52-.712-1.143.347-1.125.751-1.117S7081.634,2100.482,7081.624,2101.106Z" transform="translate(-7080.16 -2099.964)" fill="#6e2200"/>
            </g>
          </g>
        </g>
        <path id="Trazado_12747" data-name="Trazado 12747" d="M7092.441,2099.185s-1.9-1.517-2.9-.5c-.47-.3-.95-.634-1.43-.993a1.955,1.955,0,0,1,1.678-1.164l2.276-.379Z" transform="translate(-7054.482 -2081.637)" fill="#50030e"/>
        <g id="Grupo_3068" data-name="Grupo 3068" transform="translate(29.628 18.389)" opacity="0.6" style="mix-blend-mode: multiply;isolation: isolate">
          <path id="Trazado_5315" data-name="Trazado 5315" d="M7084.934,2104.252a.906.906,0,0,1,.548-.226c.314.017.525.323.65.61a.552.552,0,0,1,.055.392.5.5,0,0,1-.274.247C7084.959,2105.721,7083.751,2105.109,7084.934,2104.252Z" transform="translate(-7084.207 -2099.819)" fill="#f09f86"/>
          <g id="Grupo_3067" data-name="Grupo 3067">
            <path id="Trazado_5316" data-name="Trazado 5316" d="M7085.173,2105.136l.039-.218a5.278,5.278,0,0,0,.079-.587,7.167,7.167,0,0,0-.682-3.694c-.085-.177-.18-.351-.282-.519l-.115-.191.169.144a3.438,3.438,0,0,1,.42.443,4.052,4.052,0,0,1,.489.772,4.471,4.471,0,0,1,.354,1.069,4.524,4.524,0,0,1,.053,1.125,4.211,4.211,0,0,1-.183.9,3.48,3.48,0,0,1-.234.563Z" transform="translate(-7084.212 -2099.927)" fill="#f09f86"/>
          </g>
        </g>
        <path id="Trazado_5302" data-name="Trazado 5302" d="M7088.672,2106.119a12.121,12.121,0,0,1-2.909.392,28.733,28.733,0,0,1-3.427-.277s.771,3.312,3.427,3.312C7088.33,2109.546,7088.672,2106.119,7088.672,2106.119Z" transform="translate(-7054.634 -2081.374)" fill="#fff"/>
        <g id="Grupo_3053" data-name="Grupo 3053" transform="translate(22.772 21.936)" opacity="0.3">
          <g id="Grupo_3050" data-name="Grupo 3050" transform="translate(12.148)">
            <g id="Grupo_3049" data-name="Grupo 3049">
              <path id="Trazado_5305" data-name="Trazado 5305" d="M7089.369,2104.647c-.025.449.864.646,1.987.442s2.057-.733,2.08-1.183-.863-.647-1.985-.443S7089.391,2104.2,7089.369,2104.647Z" transform="translate(-7089.369 -2103.383)" fill="#ff3d17"/>
            </g>
          </g>
          <g id="Grupo_3052" data-name="Grupo 3052" transform="translate(0 0.283)">
            <g id="Grupo_3051" data-name="Grupo 3051">
              <path id="Trazado_5306" data-name="Trazado 5306" d="M7077.533,2104.179c-.025-.448.864-.646,1.987-.44s2.057.738,2.078,1.188-.865.646-1.987.44S7077.558,2104.629,7077.533,2104.179Z" transform="translate(-7077.533 -2103.658)" fill="#ff3d17"/>
            </g>
          </g>
        </g>
      </g>
    </g>
    <g id="Grupo_6723" data-name="Grupo 6723" transform="translate(-7942.158 -1126.713)">
      <g id="Grupo_6722" data-name="Grupo 6722" transform="translate(8115.505 1279.526)">
        <g id="Grupo_6721" data-name="Grupo 6721">
          <g id="Grupo_6704" data-name="Grupo 6704" transform="translate(14.654 101.762)">
            <g id="Grupo_6699" data-name="Grupo 6699" transform="translate(3.23)">
              <path id="Trazado_11680" data-name="Trazado 11680" d="M8148.262,1380.055s-3.332,12.159-3.827,18.7-4.628,24.165-5.646,27.4-5.37,10.646-6.016,20.553,0,32.126,0,32.126,3.519,3.241,6.666,0c0,0,5.277-23.238,7.779-31.57a182.224,182.224,0,0,1,7.5-20c1.667-3.795,7.129-25.644,7.129-25.644l1.574.277s-.741,17.776,0,22.034,3.239,9.629,2.5,14.813.093,14.721,1.019,23.146,2.871,21.293,2.871,21.293a6.876,6.876,0,0,0,7.313-1.018s2.777-42.4,3.147-46.383-.83-18.331-.74-26.2-.121-27.682-2.838-31.944C8176.686,1377.649,8160.884,1378.759,8148.262,1380.055Z" transform="translate(-8132.486 -1377.645)" fill="#1f3b89"/>
              <g id="Grupo_6697" data-name="Grupo 6697" transform="translate(1.298 1.823)">
                <path id="Trazado_11681" data-name="Trazado 11681" stroke="#0a2d72" d="M8149.864,1379.808s-1.253,9.334-2.562,17.5-5.778,27.046-5.271,28.4.631,2.468-.726,2.715-2.222,1.359-.988,1.728-1.357,2.964-1.852,4.074a59.767,59.767,0,0,0-3.7,17.406c-.623,9.258-1.024,27.837-1.024,27.837" fill="none" transform="translate(-8133.737 -1379.388)" stroke-linecap="round" stroke-linejoin="round" stroke-width="0.485" stroke-dasharray="2.424 1.939"/>
                <path id="Trazado_11682" data-name="Trazado 11682" d="M8153.745,1379.4s-.623,10.155-1.543,10.586-4.542,1.679-4.542,1.679" transform="translate(-8133.22 -1379.403)" fill="none" stroke="#0a2d72" stroke-linecap="round" stroke-linejoin="round" stroke-width="0.485"/>
              </g>
              <g id="Grupo_6698" data-name="Grupo 6698" transform="translate(30.328 0.513)">
                <path id="Trazado_11683" data-name="Trazado 11683" d="M8165.068,1378.421s1.733,13.518.622,15.863-3.963,7.485-3.963,7.485" transform="translate(-8161.727 -1378.13)" fill="none" stroke="#0a2d72" stroke-linecap="round" stroke-linejoin="round" stroke-width="0.485"/>
                <path id="Trazado_11684" data-name="Trazado 11684" d="M8168.621,1378.14s1.348,12.6,0,13.574-2.888,1.952-2.888,1.952" transform="translate(-8161.579 -1378.14)" fill="none" stroke="#0a2d72" stroke-linecap="round" stroke-linejoin="round" stroke-width="0.485"/>
              </g>
              <path id="Trazado_11685" data-name="Trazado 11685" d="M8160.315,1399.651s6.172-2.438,10.739-3.673" transform="translate(-8131.453 -1376.964)" fill="none" stroke="#0a2d72" stroke-linecap="round" stroke-linejoin="round" stroke-width="0.485"/>
              <path id="Trazado_11686" data-name="Trazado 11686" d="M8166.256,1399.567a24.031,24.031,0,0,1,9.176-1.3" transform="translate(-8131.232 -1376.88)" fill="none" stroke="#0a2d72" stroke-linecap="round" stroke-linejoin="round" stroke-width="0.485"/>
              <path id="Trazado_11687" data-name="Trazado 11687" d="M8171.268,1377.93s1.231,7.978,2.342,8.6,3.813,1.667,3.813,1.667" transform="translate(-8131.046 -1377.635)" fill="none" stroke="#0a2d72" stroke-linecap="round" stroke-linejoin="round" stroke-width="0.485"/>
              <path id="Trazado_11688" data-name="Trazado 11688" stroke="#0a2d72" d="M8163.819,1398.224s.81,23.1,1.734,25.939,4.321,7.036,3.733,7.779-3.457.987-2.7,1.851,2.114,2.964,1.621,4.691,3.335,44.572,3.335,44.572" fill="none" transform="translate(-8131.322 -1376.881)" stroke-linecap="round" stroke-linejoin="round" stroke-width="0.485" stroke-dasharray="2.424 1.939"/>
            </g>
            <g id="Grupo_6701" data-name="Grupo 6701" transform="translate(0 99.779)">
              <path id="Trazado_11689" data-name="Trazado 11689" d="M8132.146,1474.535s-1.944,7.591-2.593,11.11.649,8.728.649,8.728,11.109,2.154,16.942,0c0,0,2.777-5.765,0-7.8a17.467,17.467,0,0,0-5.186-2.684s-.934-8.8-2.5-9.351S8133.441,1473.326,8132.146,1474.535Z" transform="translate(-8129.371 -1473.852)" fill="#df4370"/>
              <g id="Grupo_6700" data-name="Grupo 6700" transform="translate(3.793 3.597)">
                <path id="Trazado_11690" data-name="Trazado 11690" d="M8133.028,1478.1s4.4-1.763,7.756,0" transform="translate(-8133.028 -1477.32)" fill="none" stroke="#eedbff" stroke-linecap="round" stroke-linejoin="round" stroke-width="0.97"/>
                <path id="Trazado_11691" data-name="Trazado 11691" d="M8133.737,1480.83s4.533-1.524,7.686,0" transform="translate(-8133.002 -1477.215)" fill="none" stroke="#eedbff" stroke-linecap="round" stroke-linejoin="round" stroke-width="0.97"/>
              </g>
              <path id="Trazado_11692" data-name="Trazado 11692" d="M8148.061,1491.1c-6.384,1.156-15.411,0-18.421-.3.242,1.687.552,2.938.552,2.938s11.109,2.154,16.942,0A15.659,15.659,0,0,0,8148.061,1491.1Z" transform="translate(-8129.362 -1473.222)" fill="#f6eeff"/>
              <path id="Trazado_11693" data-name="Trazado 11693" d="M8131.333,1489.641s12.19,2.292,16.953,0a3.706,3.706,0,0,0-1.214-3.422,17.46,17.46,0,0,0-5.186-2.684S8131.333,1481.955,8131.333,1489.641Z" transform="translate(-8129.299 -1473.497)" fill="#f6eeff"/>
            </g>
            <g id="Grupo_6703" data-name="Grupo 6703" transform="translate(39.59 103.333)">
              <path id="Trazado_11694" data-name="Trazado 11694" d="M8168.531,1478.422s-.556,7.591-.83,9.72-.277,4.748.83,5.522,26.664.681,26.664.681,1.763-4.356,0-6.573-6.85-2.962-10.739-3.24l-9.128-6.935A9.083,9.083,0,0,0,8168.531,1478.422Z" transform="translate(-8167.544 -1477.278)" fill="#df4370"/>
              <g id="Grupo_6702" data-name="Grupo 6702" transform="translate(6.952 2.727)">
                <path id="Trazado_11695" data-name="Trazado 11695" d="M8174.248,1483.018s2.728-3.991,5.112-2.932" transform="translate(-8174.248 -1479.908)" fill="none" stroke="#eedbff" stroke-linecap="round" stroke-linejoin="round" stroke-width="0.97"/>
                <path id="Trazado_11696" data-name="Trazado 11696" d="M8176.713,1485.769s3.122-4.252,5.468-3.554" transform="translate(-8174.157 -1479.825)" fill="none" stroke="#eedbff" stroke-linecap="round" stroke-linejoin="round" stroke-width="0.97"/>
              </g>
              <path id="Trazado_11697" data-name="Trazado 11697" d="M8172.813,1485.913c0,1.52-.765,2.753-1.711,2.753s-1.713-1.232-1.713-2.753.765-2.752,1.713-2.752S8172.813,1484.392,8172.813,1485.913Z" transform="translate(-8167.477 -1477.06)" fill="#f6eeff"/>
              <path id="Trazado_11698" data-name="Trazado 11698" d="M8195.194,1493.876a12.47,12.47,0,0,0,.754-3.29c-1.582.164-4.969.42-10.752.42-7.184,0-15.287-.791-17.651-1.037.01,1.428.261,2.719.985,3.225C8169.642,1493.966,8195.194,1493.876,8195.194,1493.876Z" transform="translate(-8167.544 -1476.807)" fill="#f6eeff"/>
              <path id="Trazado_11699" data-name="Trazado 11699" d="M8182.971,1489.716a72.805,72.805,0,0,0,12.407-.226,3.829,3.829,0,0,0-.742-1.979c-1.764-2.221-6.85-2.962-10.739-3.24C8183.9,1484.272,8181.675,1487.012,8182.971,1489.716Z" transform="translate(-8166.987 -1477.018)" fill="#f6eeff"/>
            </g>
          </g>
          <g id="Grupo_7566" data-name="Grupo 7566">
            <g id="Grupo_7565" data-name="Grupo 7565" transform="translate(20.55)">
              <g id="Grupo_7564" data-name="Grupo 7564">
                <g id="Grupo_7563-2" data-name="Grupo 7563">
                  <g id="Grupo_7559-2" data-name="Grupo 7559" transform="translate(1.751 45.271)">
                    <path id="Trazado_12791-2" data-name="Trazado 12791" d="M8156.763,1323.588c-.322.053-9.12,2.759-13.24,4.591a21.179,21.179,0,0,0-6.777,4.934s2.314,9.638,5.313,15.034c2.6,4.673,3.634,12.529,4.029,17.986.221,3.033-.092,17.075-.092,17.075s11.173,5.678,19.232,4.579,12.821-7.51,12.821-7.51-2.579-11.573-3.313-15.981c-.681-4.085-1.95-10.358-1.1-13.59.958-3.652,2.858-19.426,2.218-23.09C8175.852,1327.617,8169.18,1321.573,8156.763,1323.588Z" transform="translate(-8136.746 -1323.177)" fill="#f4c27a"/>
                    <g id="Grupo_7558-2" data-name="Grupo 7558" transform="translate(5.269 0.096)" opacity="0.5">
                      <g id="Grupo_7557-2" data-name="Grupo 7557">
                        <g id="Grupo_7553-2" data-name="Grupo 7553" transform="translate(0 5.664)">
                          <path id="Trazado_12792-2" data-name="Trazado 12792" d="M8141.826,1328.73s6.088,15.258,7.278,19.654a106.229,106.229,0,0,1,2.962,17.585c.427,5.861,0,19.231,0,19.231" transform="translate(-8141.826 -1328.73)" fill="none" stroke="#bf8c5e" stroke-miterlimit="10" stroke-width="0.608"/>
                        </g>
                        <g id="Grupo_7554-2" data-name="Grupo 7554" transform="translate(7.749 2.551)">
                          <path id="Trazado_12793-2" data-name="Trazado 12793" d="M8149.3,1325.729s6.947,22.309,8.047,28.536,1.374,13.188,1.74,18.408a127.3,127.3,0,0,1-.483,14.808" transform="translate(-8149.297 -1325.729)" fill="none" stroke="#bf8c5e" stroke-miterlimit="10" stroke-width="0.608"/>
                        </g>
                        <g id="Grupo_7555-2" data-name="Grupo 7555" transform="translate(22.034)">
                          <path id="Trazado_12794-2" data-name="Trazado 12794" d="M8163.07,1323.269s.081,26.879.447,32.281,5.8,30.751,5.8,30.751" transform="translate(-8163.07 -1323.269)" fill="none" stroke="#bf8c5e" stroke-miterlimit="10" stroke-width="0.608"/>
                        </g>
                        <g id="Grupo_7556-2" data-name="Grupo 7556" transform="translate(27.476 1.837)">
                          <path id="Trazado_12795-2" data-name="Trazado 12795" d="M8170.43,1325.04s-1.633,27.394-2.091,32.062,6.738,25.068,6.738,25.068" transform="translate(-8168.318 -1325.04)" fill="none" stroke="#bf8c5e" stroke-miterlimit="10" stroke-width="0.608"/>
                        </g>
                      </g>
                    </g>
                  </g>
                  <path id="Trazado_12796-2" data-name="Trazado 12796" d="M8152.425,1324.43a5.005,5.005,0,0,0,4.457,2.113c3.031-.184,3.7-3.937,3.7-3.937s1.837-.656,2.2,1.824-1.754,6.875-5.182,7.333a5.986,5.986,0,0,1-6.541-3.559C8150.242,1326.177,8150.579,1323.416,8152.425,1324.43Z" transform="translate(-8134.479 -1277.93)" fill="#bf8c5e"/>
                  <g id="Grupo_7562-2" data-name="Grupo 7562">
                    <path id="Trazado_12797-2" data-name="Trazado 12797" d="M8156.213,1289.37c-6.354.017-10.624,4.763-10.135,13.188s1.343,17.34,6.351,17.34a23.036,23.036,0,0,1,0,6.838s3.052,3.548,5.494,2.507a6.509,6.509,0,0,0,3.3-3.606,15.8,15.8,0,0,1-.731-5.738s4.761-.856,5.615-9.525S8169.157,1289.336,8156.213,1289.37Z" transform="translate(-8134.649 -1279.161)" fill="#f7cbad"/>
                    <g id="Grupo_7560-2" data-name="Grupo 7560" transform="translate(17.259 22.909)">
                      <path id="Trazado_12798-2" data-name="Trazado 12798" d="M8161.461,1304.708a.778.778,0,1,1-.865-.681A.778.778,0,0,1,8161.461,1304.708Z" transform="translate(-8151.393 -1301.526)" fill="#ba631c"/>
                      <path id="Trazado_12799-2" data-name="Trazado 12799" d="M8153.25,1305.076a.778.778,0,1,1-.865-.681A.779.779,0,0,1,8153.25,1305.076Z" transform="translate(-8151.698 -1301.512)" fill="#ba631c"/>
                      <path id="Trazado_12800-2" data-name="Trazado 12800" d="M8156.053,1301.615s1.554,6.056-3.147,7.333a12.351,12.351,0,0,0,3.394,2.314" transform="translate(-8151.653 -1301.615)" fill="none" stroke="#ba631c" stroke-miterlimit="10" stroke-width="0.657"/>
                      <path id="Trazado_12801-2" data-name="Trazado 12801" d="M8153.2,1312.519s3.235,3.846,6.96-.367" transform="translate(-8151.643 -1301.224)" fill="none" stroke="#ba631c" stroke-miterlimit="10" stroke-width="0.657"/>
                    </g>
                    <path id="Trazado_12802-2" data-name="Trazado 12802" d="M8146.815,1307.55c.417-.012,1.318-1.147,1.441-4.994s.977-6.654,3.662-7.143a39.876,39.876,0,0,1,5.173-.5c-.235.35-.45.692-.648,1.01-.6.956-1.11,1.782-1.688,2a14.979,14.979,0,0,1-3.9.733,1.466,1.466,0,0,0,.055,2.93l.058,0a17.7,17.7,0,0,0,4.807-.914c1.517-.564,2.349-1.9,3.155-3.2a11.529,11.529,0,0,1,1.89-2.469c2.035.2,3.714.709,4.165,1.757,1.161,2.686.894,10.42,1.943,10.338s2.026-8.325,2.209-10.645a11.388,11.388,0,0,0-.326-4.31s.937-3.137-1.078-4.724a61.158,61.158,0,0,0-6.9-4.03c-.916-.549-.855-2.93-1.771-3.357s-3.811-.977-3.8.244,1.521,1.77,2.049,2.5.192,2.075.7,2.259a7.2,7.2,0,0,1-2.745-1.466,5.6,5.6,0,0,0-3.347-1.77c-1.4-.245-2.99-.916-3.6,0s.7,2.686,1.509,2.87,1.545,1.343,1.116,1.465a3.2,3.2,0,0,1-3.081-.183c-1.62-.916-2.426-2.259-4.71-2.32s-3.991,1.343-3.625,2.136,2.245.672,3.625.854a17.837,17.837,0,0,1,4.141,1.71,11.546,11.546,0,0,1-3.311-.55c-1.586-.55-4.333-.184-4.944.611s-.915,2.441.428,2.87,3.417,2.014,4.517,1.648,1.527,1.038.245,1.1-3.357-.393-4.823-.471-4.884,1.508-4.274,2.546,2.138.977,3.908,1.1a8.575,8.575,0,0,1,3.663.793c.673.427-.184,1.1-1.282,1.222s-4.519.061-4.609,1.16,2.045,1.77,4.183,1.282,3.479-.427,3.663.306S8145.19,1307.6,8146.815,1307.55Z" transform="translate(-8135.057 -1279.526)" fill="#350712"/>
                    <path id="Trazado_12803" data-name="Trazado 12803" d="M8147.681,1313.522l-1.251-9.419s-2.444-3.778-5.68-1.641S8144.6,1313.837,8147.681,1313.522Z" transform="translate(-8134.877 -1278.699)" fill="#eaad83"/>
                    <path id="Trazado_12804-2" data-name="Trazado 12804" d="M8164.856,1313.33l1.25-9.419s2.445-3.777,5.682-1.641S8167.938,1313.645,8164.856,1313.33Z" transform="translate(-8133.95 -1278.706)" fill="#eaad83"/>
                    <g id="Grupo_7561-2" data-name="Grupo 7561" transform="translate(17.779 40.637)">
                      <path id="Trazado_12805" data-name="Trazado 12805" d="M8152.2,1318.805a26.821,26.821,0,0,1,.245,4.752,6.583,6.583,0,0,0,3.783.986,7.941,7.941,0,0,0,4.2-2.347,13.993,13.993,0,0,1-.169-3.391C8155.376,1320.393,8152.2,1318.805,8152.2,1318.805Z" transform="translate(-8152.2 -1318.704)" fill="#eaad83"/>
                      <path id="Trazado_12806-2" data-name="Trazado 12806" d="M8160.319,1318.708c-.111.029-.225.06-.348.1A2.621,2.621,0,0,0,8160.319,1318.708Z" transform="translate(-8151.912 -1318.708)" fill="#eaad83"/>
                    </g>
                    <path id="Trazado_12807-2" data-name="Trazado 12807" d="M8164.126,1305.878c.225.528-.342,1.274-1.265,1.667s-1.854.284-2.079-.244.343-1.274,1.266-1.667S8163.9,1305.351,8164.126,1305.878Z" transform="translate(-8134.104 -1278.566)" fill="#bc4681" opacity="0.17"/>
                    <path id="Trazado_12808-2" data-name="Trazado 12808" d="M8152.475,1307.4c-.131.558-1.029.826-2.006.6s-1.663-.867-1.532-1.425,1.029-.824,2.006-.6S8152.6,1306.839,8152.475,1307.4Z" transform="translate(-8134.542 -1278.547)" fill="#bc4681" opacity="0.17"/>
                  </g>
                </g>
              </g>
            </g>
            <path id="Trazado_12809-2" data-name="Trazado 12809" d="M8179.974,1310.505l6.251,4.079-2.211,4-10.284-7.345,2.571-3.306h.366Z" transform="translate(-8113.071 -1278.472)" fill="#896042"/>
            <path id="Trazado_12810-2" data-name="Trazado 12810" d="M8132.835,1314.138l4.407-5.142.819,1.546,1.752,3.6-10.651,10.284-1.469-4.407Z" transform="translate(-8114.781 -1278.432)" fill="#896042"/>
            <g id="Grupo_3033" data-name="Grupo 3033" transform="translate(0 0.176)">
              <path id="Trazado_5274" data-name="Trazado 5274" d="M8121.97,1295.966l7.544,17.094,3.116,7.071,6.725-6.3-.453-1.778-3.245-5.486-7.449-12.587Z" transform="translate(-8114.993 -1279.166)" fill="#f7cbad"/>
              <path id="Trazado_5275" data-name="Trazado 5275" d="M8129.7,1290.467a92.622,92.622,0,0,0-1.517-10c-.35-.082-1.515-.188-1.69.1s.47,6.428.47,6.428l-.672.09s-2.278-7.312-2.525-7.386a4.078,4.078,0,0,0-2,.58c-.073.249,1.8,8.078,1.8,8.078l-.533.257s-3.089-6.826-3.246-6.791-1.7.752-1.729,1.013a50.358,50.358,0,0,0,2.527,6.262l-.188.442s-3.732-4.844-4.062-4.62-1.245,1.315-1.066,1.586,4.479,6.139,4.479,6.139l.8,1.811Z" transform="translate(-8115.243 -1279.696)" fill="#f7cbad"/>
              <path id="Trazado_5276" data-name="Trazado 5276" d="M8128.127,1295.807a13.31,13.31,0,0,1,6.84-6.527.583.583,0,0,0,.218-.8.554.554,0,0,0-.1-.131,1.772,1.772,0,0,0-2.242-.327c-.451.174-2.6,2.156-2.589,2a5,5,0,0,0-3.83,0,4.737,4.737,0,0,0-1.586,2.2s-3.259-1.736-4.943-.1a7.921,7.921,0,0,0,3.288,5.772Z" transform="translate(-8115.07 -1279.396)" fill="#f7cbad"/>
              <path id="Trazado_5277" data-name="Trazado 5277" d="M8124.839,1292.527a4.466,4.466,0,0,0-4.441-.391,3.193,3.193,0,0,1,4.337-.979c-.642-.426,1.879-3.03,3.311-1.878-.657.406-1.424.359-2.039.926A5.234,5.234,0,0,0,8124.839,1292.527Z" transform="translate(-8115.051 -1279.351)" fill="#bc4681" opacity="0.17"/>
              <path id="Trazado_5278" data-name="Trazado 5278" d="M8129.244,1312.608l3.118,7.07,6.727-6.3-.453-1.778-3.246-5.486a16.724,16.724,0,0,0-3.705,3.743Q8130.479,1311.255,8129.244,1312.608Z" transform="translate(-8114.723 -1278.715)" fill="#bc4681" opacity="0.17"/>
            </g>
            <g id="Grupo_3001" data-name="Grupo 3001" transform="translate(61.218 0.176)">
              <path id="Trazado_5242-2" data-name="Trazado 5242" d="M8191.656,1295.966l-7.544,17.094-3.117,7.071-6.727-6.3.453-1.778,3.246-5.486,7.448-12.587Z" transform="translate(-8174.269 -1279.166)" fill="#f7cbad"/>
              <path id="Trazado_5243-2" data-name="Trazado 5243" d="M8183.827,1290.467a92.622,92.622,0,0,1,1.517-10c.348-.082,1.514-.188,1.69.1s-.47,6.428-.47,6.428l.673.09s2.276-7.312,2.524-7.386a4.074,4.074,0,0,1,1.994.58c.076.249-1.795,8.078-1.795,8.078l.535.257s3.086-6.826,3.244-6.791,1.706.752,1.728,1.013a50.717,50.717,0,0,1-2.526,6.262l.188.442s3.732-4.844,4.062-4.62,1.248,1.315,1.067,1.586-4.48,6.139-4.48,6.139l-.8,1.811Z" transform="translate(-8173.914 -1279.696)" fill="#f7cbad"/>
              <path id="Trazado_5244-3" data-name="Trazado 5244" d="M8185.435,1295.807a13.31,13.31,0,0,0-6.84-6.527.584.584,0,0,1-.116-.927,1.773,1.773,0,0,1,2.243-.327c.45.174,2.6,2.156,2.589,2a5,5,0,0,1,3.83,0,4.742,4.742,0,0,1,1.585,2.2s3.26-1.736,4.944-.1a7.929,7.929,0,0,1-3.289,5.772Z" transform="translate(-8174.119 -1279.396)" fill="#f7cbad"/>
              <path id="Trazado_5245-2" data-name="Trazado 5245" d="M8188.44,1292.527a4.466,4.466,0,0,1,4.441-.391,3.194,3.194,0,0,0-4.338-.979c.643-.426-1.878-3.03-3.311-1.878.658.406,1.424.359,2.039.926A5.235,5.235,0,0,1,8188.44,1292.527Z" transform="translate(-8173.861 -1279.351)" fill="#bc4681" opacity="0.17"/>
              <path id="Trazado_5246" data-name="Trazado 5246" d="M8184.112,1312.608l-3.117,7.07-6.727-6.3.453-1.778,3.248-5.486a16.7,16.7,0,0,1,3.7,3.743Q8182.878,1311.255,8184.112,1312.608Z" transform="translate(-8174.269 -1278.715)" fill="#bc4681" opacity="0.17"/>
            </g>
            <path id="Trazado_5272" data-name="Trazado 5272" d="M8183.465,1318.681c-2.05,3.107-3.368,16.668-8.107,22.526-.342.393-1.021,1.177-1.587,1.877a.479.479,0,0,0-.075.027l-7.719-18.9a7.073,7.073,0,0,1,.231-.9c.015-.053.037-.1.051-.161,1.771-5.507,4-6.885,7.938-11.119l2.291,1.646,3.431,2.466Z" transform="translate(-8113.359 -1278.32)" fill="#dda66b"/>
            <path id="Trazado_5273" data-name="Trazado 5273" d="M8176.485,1313.669a.136.136,0,0,0-.015.025,53.731,53.731,0,0,1-6.493,8.779c-1.325,1.574-2.3.573-4,1.732.016-.053.037-.1.051-.161,1.746-6.345,4.229-7.787,8.169-12.021Z" transform="translate(-8113.359 -1278.32)" fill="#bf8c5e" opacity="0.63"/>
            <path id="Trazado_5279" data-name="Trazado 5279" d="M8130.766,1320.254c2.2,5.727,3.164,17.583,6.529,21.882a14.229,14.229,0,0,0,3.471,3.595l.073.027,7.442-18.933a7.37,7.37,0,0,0-.233-.9c-.016-.053-.038-.1-.052-.161-1.788-5.5-4.028-7.971-7.983-12.195l-2.286,1.653-3.423,2.477Z" transform="translate(-8114.666 -1278.262)" fill="#dda66b"/>
            <path id="Trazado_5280" data-name="Trazado 5280" d="M8137.475,1315.22a.121.121,0,0,1,.016.025,56.372,56.372,0,0,0,6.465,9.142c2.84,3.171,2.374,1.283,4.077,2.437-.015-.053-.037-.1-.051-.161-.451-2.411-2.288-7.553-8.224-13.1Z" transform="translate(-8114.417 -1278.262)" fill="#bf8c5e" opacity="0.63"/>
            <path id="Trazado_12811-2" data-name="Trazado 12811" d="M8172.673,1312.344s.424-.115,1.1-1.469c.734-1.469,2.2-3.305,2.938-2.938,1.355.677-.366,2.571,2.938,4.408s5.143,2.57,6.244,2.2-.367,2.2-.367,2.938v2.2c0,.734-1.836,2.938-3.306,1.47s-1.9-3.059-3.673-3.674-2.937-3.305-4.774-4.04S8172.673,1312.711,8172.673,1312.344Z" transform="translate(-8113.115 -1278.473)" fill="#bf8c5e"/>
            <path id="Trazado_12812-2" data-name="Trazado 12812" d="M8126.994,1321.125c.261-.78.734-1.47,2.938-2.571s4.775-4.775,5.509-5.876,1.164-3.646,1.868-3.844,1.438.17,2.173,1.272,0,2.2.734,2.571a2.617,2.617,0,0,1,1.1,2.2c0,.735-2.938,1.837-4.407,3.673a25.484,25.484,0,0,0-2.937,5.142,22.71,22.71,0,0,0-1.211,3.7c-.259.712-2.1,3.283-2.83.712s-2.571-3.672-2.938-4.407A3.107,3.107,0,0,1,8126.994,1321.125Z" transform="translate(-8114.816 -1278.44)" fill="#bf8c5e"/>
          </g>
        </g>
      </g>
    </g>
    <path id="Unión_16" data-name="Unión 16" d="M-307.752,1991.773c-9.421,1.943-25.08,3.214-42.806,3.214-23.334,0-43.087-2.2-49.742-5.24-6.116,2.448-21.941,4.193-40.5,4.193-23.859,0-43.2-2.883-43.2-6.439s19.342-6.439,43.2-6.439c18.543,0,34.357,1.741,40.484,4.187,6.639-3.041,26.405-5.248,49.758-5.248,19.428,0,36.376,1.527,45.345,3.792,9.506-1.849,25.037-3.054,42.582-3.054,28.931,0,52.383,3.275,52.383,7.316s-23.452,7.317-52.383,7.317C-281.84,1995.371-298.635,1993.927-307.752,1991.773Z" transform="translate(568.698 -1613.527)" fill="#597fb5" stroke="rgba(0,0,0,0)" stroke-miterlimit="10" stroke-width="1" opacity="0.1"/>
  </g>
</svg>
