<svg xmlns="http://www.w3.org/2000/svg" xmlns:xlink="http://www.w3.org/1999/xlink" width="17.724" height="16" viewBox="0 0 17.724 16">
  <defs>
    <clipPath id="clip-path">
      <rect width="17.724" height="16" fill="none"/>
    </clipPath>
  </defs>
  <g id="trabajo" clip-path="url(#clip-path)">
    <path id="Trazado_343" data-name="Trazado 343" d="M-172.792,256.748H-177.5v-.533a1.581,1.581,0,0,0-1.558-1.6h-4.154a1.581,1.581,0,0,0-1.558,1.6v.533h-4.708a.528.528,0,0,0-.519.533v11.733a1.581,1.581,0,0,0,1.558,1.6h14.609a1.581,1.581,0,0,0,1.558-1.6V257.291A.511.511,0,0,0-172.792,256.748Zm-10.942-.533a.527.527,0,0,1,.519-.533h4.154a.527.527,0,0,1,.519.533v.533h-5.193Zm10.219,1.6-1.613,4.969a.52.52,0,0,1-.493.365h-2.921v-.533a.526.526,0,0,0-.519-.533h-4.154a.526.526,0,0,0-.519.533v.533h-2.921a.52.52,0,0,1-.493-.365l-1.612-4.969Zm-6.065,5.333v1.067H-182.7v-1.067Zm6.266,5.867a.527.527,0,0,1-.519.533h-14.609a.527.527,0,0,1-.519-.533v-8.447l.829,2.553a1.56,1.56,0,0,0,1.478,1.094h2.921v.533a.526.526,0,0,0,.519.533h4.154a.526.526,0,0,0,.519-.533v-.533h2.921a1.56,1.56,0,0,0,1.478-1.094l.828-2.553Z" transform="translate(190 -254.615)" fill="#99afce"/>
  </g>
</svg>
